<svg xmlns="http://www.w3.org/2000/svg" viewBox="0 0 2000 1216.02">
  <defs>
    <style>
      .cls-1 {
        isolation: isolate;
      }

      .cls-2 {
        opacity: 0.3;
      }

      .cls-23, .cls-3, .cls-32 {
        fill: #fff;
      }

      .cls-4 {
        fill: #8e8e8d;
      }

      .cls-5 {
        fill: #cecece;
      }

      .cls-6 {
        mix-blend-mode: multiply;
      }

      .cls-11, .cls-33, .cls-35, .cls-7 {
        fill: #efedf0;
      }

      .cls-34, .cls-8 {
        fill: #016f87;
      }

      .cls-9 {
        fill: #13b1d3;
      }

      .cls-10 {
        fill: #ffa454;
      }

      .cls-11, .cls-23, .cls-27 {
        font-size: 18px;
        font-family: Montserrat-Medium, Montserrat;
      }

      .cls-12 {
        letter-spacing: -0.01em;
      }

      .cls-13 {
        letter-spacing: 0.01em;
      }

      .cls-14 {
        letter-spacing: 0em;
      }

      .cls-15 {
        letter-spacing: 0.01em;
      }

      .cls-16 {
        letter-spacing: 0em;
      }

      .cls-17 {
        letter-spacing: 0em;
      }

      .cls-18 {
        letter-spacing: 0.01em;
      }

      .cls-19 {
        letter-spacing: 0em;
      }

      .cls-20 {
        letter-spacing: 0em;
      }

      .cls-21 {
        letter-spacing: 0.01em;
      }

      .cls-22 {
        letter-spacing: 0.02em;
      }

      .cls-24 {
        letter-spacing: 0.01em;
      }

      .cls-25 {
        letter-spacing: 0.01em;
      }

      .cls-26 {
        letter-spacing: 0em;
      }

      .cls-27 {
        fill: #1f497d;
      }

      .cls-28 {
        letter-spacing: -0.01em;
      }

      .cls-29 {
        letter-spacing: -0.01em;
      }

      .cls-30 {
        letter-spacing: 0em;
      }

      .cls-31 {
        letter-spacing: -0.01em;
      }

      .cls-32, .cls-33, .cls-34 {
        font-size: 60px;
        font-family: Montserrat-Bold, Montserrat;
      }

      .cls-32, .cls-33, .cls-34, .cls-36 {
        font-weight: 700;
      }

      .cls-35 {
        font-size: 35px;
        font-family: Montserrat-ExtraBold, Montserrat;
      }

      .cls-37 {
        letter-spacing: -0.05em;
      }

      .cls-38 {
        letter-spacing: -0.01em;
      }

      .cls-39 {
        letter-spacing: 0.01em;
      }

      .cls-40 {
        letter-spacing: -0.02em;
      }

      .cls-41 {
        letter-spacing: 0.08em;
      }

      .cls-42 {
        font-size: 30px;
        font-family: Vollkorn-Regular, Vollkorn;
      }

      .cls-43 {
        letter-spacing: -0.03em;
      }

      .cls-44 {
        letter-spacing: 0.1em;
      }

      .cls-45 {
        letter-spacing: -0.01em;
      }

      .cls-46 {
        letter-spacing: -0.01em;
      }

      .cls-47 {
        letter-spacing: -0.09em;
      }

      .cls-48 {
        letter-spacing: -0.02em;
      }

      #number1 {
      
      -moz-transform-origin: 451.12px 574.21px;
          -ms-transform-origin:  451.12px 574.21px;
          -o-transform-origin: 451.12px 574.21px;
          -webkit-transform-origin:  451.12px 574.21px;
          transform-origin: 451.12px 574.21px;
        -webkit-animation: fade-in 1s cubic-bezier(0.390, 0.575, 0.565, 1.000) 1 both;
                animation: fade-in 1s cubic-bezier(0.390, 0.575, 0.565, 1.000) 1 both;
      }

      #white1 {
          -moz-transform-origin: 585.83px 502.71px;
          -ms-transform-origin:  585.83px 502.71px;
          -o-transform-origin: 585.83px 502.71px;
          -webkit-transform-origin:  585.83px 502.71px;
          transform-origin: 585.83px 502.71px;
          -webkit-animation: slit-in-diagonal-1 0.3s ease-out 1.2s both;
          animation: slit-in-diagonal-2 0.3s ease-out 1.2s both;
      }

      #white2 {

      -moz-transform-origin: 649.13px 613.48px;
          -ms-transform-origin:  649.13px 613.48px;
          -o-transform-origin: 649.13px 613.48px;
          -webkit-transform-origin:  649.13px 613.48px;
          transform-origin: 649.13px 613.48px;
         -webkit-animation: slit-in-diagonal-1 0.3s ease-out 1.4s both;
          animation: slit-in-diagonal-1 0.3s ease-out 1.4s both;
      }



        #white3 {

      -moz-transform-origin: 717.26px 613.48px;
          -ms-transform-origin:  717.26px 613.48px;
          -o-transform-origin: 717.26px 613.48px;
          -webkit-transform-origin:  717.26px 613.48px;
          transform-origin: 717.26px 613.48px;
         -webkit-animation: slit-in-diagonal-1 0.3s ease-out 1.6s both;
          animation: slit-in-diagonal-1 0.3s ease-out 1.6s both;
      }

      #text1 {
         -moz-transform-origin: 585.98px 542.97px;
          -ms-transform-origin:  585.98px 542.97px;
          -o-transform-origin: 585.98px 542.97px;
          -webkit-transform-origin:  585.98px 542.97px;
          transform-origin: 585.98px 542.97px;
         -webkit-animation: slit-in-diagonal-1 0.3s ease-out 1.4s both;
          animation: slit-in-diagonal-1 0.3s ease-out 1.4s both;
        }

    #number2 {

      -moz-transform-origin: 839.98px 574.21px;
          -ms-transform-origin:  839.98px 574.21px;
          -o-transform-origin: 839.98px 574.21px;
          -webkit-transform-origin:  839.98px 574.21px;
          transform-origin: 839.98px 574.21px;
        -webkit-animation: fade-in 1s cubic-bezier(0.390, 0.575, 0.565, 1.000) 2s both;
                animation: fade-in 1s cubic-bezier(0.390, 0.575, 0.565, 1.000) 2s both;
      }


      #aqua1 {
          -moz-transform-origin: 975.29px 502.71px;
          -ms-transform-origin:  975.29px 502.71px;
          -o-transform-origin: 975.29px 502.71px;
          -webkit-transform-origin:  975.29px 502.71px;
          transform-origin: 975.29px 502.71px;
          -webkit-animation: slit-in-diagonal-1 0.3s ease-out 2.2s both;
          animation: slit-in-diagonal-2 0.3s ease-out 2.2s both;
      }

      #aqua2 {

      -moz-transform-origin: 1038.59px 613.48px;
          -ms-transform-origin:  1038.59px 613.48px;
          -o-transform-origin: 1038.59px 613.48px;
          -webkit-transform-origin:  1038.59px 613.48px;
          transform-origin: 1038.59px 613.48px;
         -webkit-animation: slit-in-diagonal-1 0.3s ease-out 2.4s both;
          animation: slit-in-diagonal-1 0.3s ease-out 2.4s both;
      }



        #aqua3 {

      -moz-transform-origin: 1170.03px 613.48px;
          -ms-transform-origin:  1170.03px 613.48px;
          -o-transform-origin: 1170.03px 613.48px;
          -webkit-transform-origin:  1170.03px 613.48px;
          transform-origin: 1170.03px 613.48px;
         -webkit-animation: slit-in-diagonal-1 0.3s ease-out 2.6s both;
          animation: slit-in-diagonal-1 0.3s ease-out 2.6s both;
      }

      #text2 {
         -moz-transform-origin: 973.98px 542.97px;
          -ms-transform-origin:  973.98px 542.97px;
          -o-transform-origin: 973.98px 542.97px;
          -webkit-transform-origin:  973.98px 542.97px;
          transform-origin: 973.98px 542.97px;
         -webkit-animation: slit-in-diagonal-1 0.3s ease-out 2.4s both;
          animation: slit-in-diagonal-1 0.3s ease-out 2.4s both;
        }


        #number3{

        -moz-transform-origin:         1247.38px 574.21px;
          -ms-transform-origin:          1247.38px 574.21px;
          -o-transform-origin:         1247.38px 574.21px;
          -webkit-transform-origin:          1247.38px 574.21px;
          transform-origin:         1247.38px 574.21px;
            -webkit-animation: fade-in 1s cubic-bezier(0.390, 0.575, 0.565, 1.000) 3s both;
                    animation: fade-in 1s cubic-bezier(0.390, 0.575, 0.565, 1.000) 3s both;
          }


              #orange1 {
          -moz-transform-origin: 1301.48px 502.71px;
          -ms-transform-origin:  1301.48px 502.71px;
          -o-transform-origin: 1301.48px 502.71px;
          -webkit-transform-origin:  1301.48px 502.71px;
          transform-origin: 1301.48px 502.71px;
          -webkit-animation: slit-in-diagonal-1 0.3s ease-out 3.2s both;
          animation: slit-in-diagonal-2 0.3s ease-out 3.2s both;
      }

      #orange2 {

      -moz-transform-origin: 1428.06px 613.48px;
          -ms-transform-origin:  1428.06px 613.48px;
          -o-transform-origin: 1428.06px 613.48px;
          -webkit-transform-origin:  1428.06px 613.48px;
          transform-origin: 1428.06px 613.48px;
         -webkit-animation: slit-in-diagonal-1 0.3s ease-out 3.4s both;
          animation: slit-in-diagonal-1 0.3s ease-out 3.4s both;
      }


        #orange3 {

      -moz-transform-origin: 1559.51px 613.48px;
          -ms-transform-origin:  1559.51px 613.48px;
          -o-transform-origin: 1559.51px 613.48px;
          -webkit-transform-origin:  1559.51px 613.48px;
          transform-origin: 1559.51px 613.48px;
         -webkit-animation: slit-in-diagonal-1 0.3s ease-out 3.6s both;
          animation: slit-in-diagonal-1 0.3s ease-out 3.6s both;
      }

      #text3 {
         -moz-transform-origin: 1365.98px 542.97px;
          -ms-transform-origin:  1365.98px 542.97px;
          -o-transform-origin: 1365.98px 542.97px;
          -webkit-transform-origin:  1365.98px 542.97px;
          transform-origin: 1365.98px 542.97px;
         -webkit-animation: slit-in-diagonal-1 0.3s ease-out 3.4s both;
          animation: slit-in-diagonal-1 0.3s ease-out 3.4s both;
        }


      /* ----------------------------------------------
       * Generated by Animista on 2018-10-11 19:36:25
       * w: http://animista.net, t: @cssanimista
       * ---------------------------------------------- */

      /**
       * ----------------------------------------
       * animation slit-in-diagonal-1
       * ----------------------------------------
       */
      @-webkit-keyframes slit-in-diagonal-1 {
        0% {
          -webkit-transform: translateZ(-800px) rotate3d(1, 1, 0, 90deg);
                  transform: translateZ(-800px) rotate3d(1, 1, 0, 90deg);
          -webkit-animation-timing-function: ease-in;
                  animation-timing-function: ease-in;
          opacity: 0;
        }
        54% {
          -webkit-transform: translateZ(-160px) rotate3d(1, 1, 0, 87deg);
                  transform: translateZ(-160px) rotate3d(1, 1, 0, 87deg);
          -webkit-animation-timing-function: ease-in-out;
                  animation-timing-function: ease-in-out;
          opacity: 1;
        }
        100% {
          -webkit-transform: translateZ(0) rotate3d(1, 1, 0, 0);
                  transform: translateZ(0) rotate3d(1, 1, 0, 0);
          -webkit-animation-timing-function: ease-out;
                  animation-timing-function: ease-out;
        }
      }
      @keyframes slit-in-diagonal-1 {
        0% {
          -webkit-transform: translateZ(-800px) rotate3d(1, 1, 0, 90deg);
                  transform: translateZ(-800px) rotate3d(1, 1, 0, 90deg);
          -webkit-animation-timing-function: ease-in;
                  animation-timing-function: ease-in;
          opacity: 0;
        }
        54% {
          -webkit-transform: translateZ(-160px) rotate3d(1, 1, 0, 87deg);
                  transform: translateZ(-160px) rotate3d(1, 1, 0, 87deg);
          -webkit-animation-timing-function: ease-in-out;
                  animation-timing-function: ease-in-out;
          opacity: 1;
        }
        100% {
          -webkit-transform: translateZ(0) rotate3d(1, 1, 0, 0);
                  transform: translateZ(0) rotate3d(1, 1, 0, 0);
          -webkit-animation-timing-function: ease-out;
                  animation-timing-function: ease-out;
        }
      }

       * ----------------------------------------
       * animation slit-in-diagonal-2
       * ----------------------------------------
       */
        @-webkit-keyframes slit-in-diagonal-2 {
          0% {
            -webkit-transform: translateZ(-800px) rotate3d(-1, 1, 0, -90deg);
                    transform: translateZ(-800px) rotate3d(-1, 1, 0, -90deg);
            -webkit-animation-timing-function: ease-in;
                    animation-timing-function: ease-in;
            opacity: 0;
          }
          54% {
            -webkit-transform: translateZ(-160px) rotate3d(-1, 1, 0, -87deg);
                    transform: translateZ(-160px) rotate3d(-1, 1, 0, -87deg);
            -webkit-animation-timing-function: ease-in-out;
                    animation-timing-function: ease-in-out;
            opacity: 1;
          }
          100% {
            -webkit-transform: translateZ(0) rotate3d(-1, 1, 0, 0);
                    transform: translateZ(0) rotate3d(-1, 1, 0, 0);
            -webkit-animation-timing-function: ease-out;
                    animation-timing-function: ease-out;
          }
        }
        @keyframes slit-in-diagonal-2 {
          0% {
            -webkit-transform: translateZ(-800px) rotate3d(-1, 1, 0, -90deg);
                    transform: translateZ(-800px) rotate3d(-1, 1, 0, -90deg);
            -webkit-animation-timing-function: ease-in;
                    animation-timing-function: ease-in;
            opacity: 0;
          }
          54% {
            -webkit-transform: translateZ(-160px) rotate3d(-1, 1, 0, -87deg);
                    transform: translateZ(-160px) rotate3d(-1, 1, 0, -87deg);
            -webkit-animation-timing-function: ease-in-out;
                    animation-timing-function: ease-in-out;
            opacity: 1;
          }
          100% {
            -webkit-transform: translateZ(0) rotate3d(-1, 1, 0, 0);
                    transform: translateZ(0) rotate3d(-1, 1, 0, 0);
            -webkit-animation-timing-function: ease-out;
                    animation-timing-function: ease-out;
          }
        }

/* ----------------------------------------------
 * Generated by Animista on 2018-10-11 20:33:43
 * w: http://animista.net, t: @cssanimista
 * ---------------------------------------------- */

      /**
       * ----------------------------------------
       * animation fade-in
       * ----------------------------------------
       */
      @-webkit-keyframes fade-in {
        0% {
          opacity: 0;
        }
        100% {
          opacity: 1;
        }
      }
      @keyframes fade-in {
        0% {
          opacity: 0;
        }
        100% {
          opacity: 1;
        }
      }

      




    </style>
  </defs>
  <title>Artboard 2a</title>
  <g class="cls-1">
    <g id="background">
      <g>
        <g id="bw" class="cls-2">
          <polygon class="cls-3" points="2046.35 1124.66 2143.72 954.27 2241.09 1124.66 2338.45 1295.05 2143.72 1295.05 1948.99 1295.05 1948.99 1295.05 1948.98 1295.05 2046.35 1124.66"/>
          <polygon class="cls-4" points="1754.25 954.27 1851.62 1124.66 1948.98 1295.05 1754.25 1295.05 1559.52 1295.05 1559.51 1295.05 1656.88 1124.66 1754.25 954.27"/>
          <polygon class="cls-3" points="1507.08 1203.29 1559.51 1295.05 1364.78 1295.05 1170.05 1295.05 1267.41 1124.66 1364.78 954.27 1462.15 1124.66 1507.08 1203.29"/>
          <polygon class="cls-4" points="1089.86 1154.72 1170.03 1295.05 975.31 1295.05 780.57 1295.05 780.57 1295.05 877.94 1124.66 975.31 954.27 1072.68 1124.66 1089.86 1154.72"/>
          <polygon class="cls-4" points="1170.05 954.27 1364.78 954.27 1267.41 1124.66 1170.04 1295.03 1170.03 1295.05 1089.86 1154.72 1072.68 1124.66 975.31 954.27 975.31 954.27 1170.03 954.27 1170.05 954.27"/>
          <polygon class="cls-4" points="1559.52 954.27 1754.24 954.27 1656.88 1124.66 1559.51 1295.05 1559.51 1295.05 1507.08 1203.29 1462.15 1124.66 1364.78 954.27 1364.79 954.27 1559.51 954.27 1559.52 954.27"/>
          <polygon class="cls-5" points="1948.99 954.27 2143.71 954.27 2046.35 1124.66 1948.98 1295.05 1851.62 1124.66 1754.25 954.27 1754.24 954.27 1754.25 954.27 1948.98 954.27 1948.99 954.27"/>
          <polygon class="cls-3" points="1170.03 613.47 1170.05 613.47 1072.68 783.88 975.31 954.25 882.37 791.62 877.95 783.88 865.77 762.58 780.57 613.47 975.31 613.47 1170.03 613.47"/>
          <polygon class="cls-3" points="1559.51 613.47 1559.51 613.47 1559.51 613.47 1462.15 783.88 1364.78 954.25 1267.41 783.88 1170.05 613.47 1364.78 613.47 1559.51 613.47"/>
          <polygon class="cls-3" points="1948.98 613.47 1948.99 613.47 1851.62 783.88 1754.25 954.27 1663.37 795.23 1656.88 783.88 1644.71 762.58 1559.52 613.47 1754.25 613.47 1948.98 613.47"/>
          <polygon class="cls-5" points="2143.72 954.27 2046.36 783.88 2010.95 721.91 1948.99 613.47 2143.72 613.47 2338.45 613.47 2241.09 783.88 2143.72 954.27"/>
          <polygon class="cls-5" points="1948.99 613.47 1948.99 613.47 2010.95 721.91 2046.36 783.88 2143.72 954.27 2143.71 954.27 1948.99 954.27 1948.98 954.27 1754.25 954.27 1851.62 783.88 1948.99 613.47"/>
          <polygon class="cls-4" points="1559.52 613.47 1644.71 762.58 1656.88 783.88 1663.37 795.23 1754.25 954.27 1754.25 954.27 1754.24 954.27 1559.52 954.27 1559.51 954.27 1364.79 954.27 1462.15 783.88 1559.52 613.47"/>
          <polygon class="cls-3" points="1170.05 613.47 1267.41 783.88 1364.78 954.25 1364.79 954.27 1364.78 954.27 1170.05 954.27 1170.03 954.27 975.31 954.27 1072.68 783.88 1170.05 613.47"/>
          <polygon class="cls-5" points="1948.99 613.47 1948.99 613.47 1948.98 613.47 2046.35 443.08 2143.72 272.69 2241.09 443.08 2338.45 613.47 2143.72 613.47 1948.99 613.47"/>
          <polygon class="cls-4" points="1754.25 272.69 1851.62 443.08 1948.98 613.47 1754.25 613.47 1559.52 613.47 1559.51 613.47 1559.51 613.47 1656.88 443.08 1754.25 272.69"/>
          <polygon class="cls-3" points="1497.55 505.05 1559.51 613.47 1364.78 613.47 1170.05 613.47 1267.41 443.08 1364.78 272.69 1462.15 443.08 1497.55 505.05"/>
          <polygon class="cls-3" points="1084.85 464.38 1170.03 613.47 975.31 613.47 780.57 613.47 780.57 613.47 877.94 443.08 975.31 272.69 1072.68 443.08 1084.85 464.38"/>
          <polygon class="cls-5" points="1170.05 272.69 1364.78 272.69 1267.41 443.08 1170.04 613.47 1170.03 613.47 1084.85 464.38 1072.68 443.08 975.31 272.69 975.31 272.69 1170.03 272.69 1170.05 272.69"/>
          <polygon class="cls-3" points="1559.52 272.69 1754.24 272.69 1656.88 443.08 1559.51 613.47 1559.51 613.47 1497.55 505.05 1462.15 443.08 1364.78 272.69 1364.79 272.69 1559.51 272.69 1559.52 272.69"/>
          <polygon class="cls-4" points="1948.99 272.69 2143.71 272.69 2046.35 443.08 1948.98 613.47 1851.62 443.08 1754.25 272.69 1754.24 272.69 1754.25 272.69 1948.98 272.69 1948.99 272.69"/>
          <polygon class="cls-5" points="1170.03 -68.1 1170.05 -68.1 1072.68 102.31 975.31 272.69 882.37 110.04 877.95 102.31 865.77 81.01 780.57 -68.1 975.31 -68.1 1170.03 -68.1"/>
          <polygon class="cls-5" points="1462.15 102.31 1364.78 272.69 1267.41 102.31 1170.05 -68.1 1364.78 -68.1 1559.51 -68.1 1559.51 -68.1 1559.51 -68.1 1462.15 102.31"/>
          <polygon class="cls-3" points="1851.62 102.31 1754.25 272.69 1663.37 113.66 1656.88 102.31 1644.71 81.01 1559.52 -68.1 1754.25 -68.1 1948.98 -68.1 1948.99 -68.1 1851.62 102.31"/>
          <polygon class="cls-4" points="2143.72 272.69 2046.36 102.31 2010.95 40.34 1948.99 -68.1 2143.72 -68.1 2338.45 -68.1 2241.09 102.31 2143.72 272.69"/>
          <polygon class="cls-4" points="1948.99 272.69 1948.98 272.69 1754.25 272.69 1851.62 102.31 1948.99 -68.1 1948.99 -68.1 2010.95 40.34 2046.36 102.31 2143.72 272.69 2143.71 272.69 1948.99 272.69"/>
          <polygon class="cls-3" points="1559.52 -68.1 1644.71 81.01 1656.88 102.31 1663.37 113.66 1754.25 272.69 1754.25 272.69 1754.24 272.69 1559.52 272.69 1559.51 272.69 1364.79 272.69 1462.15 102.31 1559.52 -68.1"/>
          <polygon class="cls-5" points="1170.05 -68.1 1267.41 102.31 1364.78 272.69 1364.79 272.69 1364.78 272.69 1170.05 272.69 1170.03 272.69 975.31 272.69 1072.68 102.31 1170.05 -68.1"/>
          <polygon class="cls-5" points="196.35 954.26 196.36 954.26 98.98 1124.67 1.62 1295.06 -89.26 1136.02 -95.75 1124.67 -107.92 1103.37 -193.11 954.26 1.62 954.26 196.35 954.26"/>
          <polygon class="cls-3" points="391.09 1295.06 293.72 1124.67 258.31 1062.7 196.36 954.26 391.09 954.26 585.82 954.26 488.45 1124.67 391.09 1295.06"/>
          <polygon class="cls-3" points="671.02 1103.37 585.83 954.26 780.56 954.26 975.29 954.26 975.29 954.26 877.92 1124.67 780.56 1295.06 683.19 1124.67 671.02 1103.37"/>
          <polygon class="cls-3" points="585.83 954.28 585.82 954.26 585.83 954.26 585.83 954.28"/>
          <polygon class="cls-4" points="585.83 1295.06 585.82 1295.06 391.09 1295.06 488.45 1124.67 585.83 954.28 585.83 954.26 671.02 1103.37 683.19 1124.67 780.56 1295.06 780.55 1295.06 585.83 1295.06"/>
          <polygon class="cls-3" points="196.36 954.26 196.36 954.26 258.31 1062.7 293.72 1124.67 391.09 1295.06 391.08 1295.06 196.36 1295.06 196.35 1295.06 1.62 1295.06 98.99 1124.67 196.36 954.26"/>
          <polygon class="cls-4" points="-193.11 954.26 -107.92 1103.37 -95.75 1124.67 -89.26 1136.02 1.62 1295.06 1.62 1295.06 1.61 1295.06 -193.11 1295.06 -193.12 1295.06 -387.84 1295.06 -290.49 1124.67 -193.11 954.26"/>
          <polygon class="cls-4" points="585.83 954.26 585.82 954.26 683.18 783.87 780.56 613.48 856.29 746 877.92 783.87 975.29 954.26 780.56 954.26 585.83 954.26"/>
          <polygon class="cls-3" points="196.36 954.26 196.36 954.26 196.35 954.26 293.71 783.87 391.09 613.48 488.45 783.87 585.82 954.26 391.09 954.26 196.36 954.26"/>
          <polygon class="cls-4" points="1.62 613.48 98.98 783.87 196.35 954.26 1.62 954.26 -193.11 954.26 -193.12 954.26 -193.12 954.26 -95.75 783.87 1.62 613.48"/>
          <polygon class="cls-3" points="-193.11 613.48 1.61 613.48 -95.76 783.87 -193.12 954.26 -193.12 954.26 -255.09 845.84 -290.49 783.87 -387.85 613.48 -387.84 613.48 -193.12 613.48 -193.11 613.48"/>
          <polygon class="cls-5" points="196.36 613.48 391.08 613.48 293.71 783.87 196.35 954.26 98.98 783.87 1.62 613.48 1.61 613.48 1.62 613.48 196.35 613.48 196.36 613.48"/>
          <polygon class="cls-3" points="585.83 613.48 780.55 613.48 683.18 783.87 585.82 954.26 488.45 783.87 391.09 613.48 391.08 613.48 391.09 613.48 585.82 613.48 585.83 613.48"/>
          <polygon class="cls-5" points="98.98 443.09 1.62 613.48 -89.26 454.44 -95.75 443.09 -107.92 421.79 -193.11 272.69 1.62 272.69 196.35 272.69 196.36 272.69 98.98 443.09"/>
          <polygon class="cls-5" points="391.09 613.48 293.72 443.09 258.31 381.13 196.36 272.69 391.09 272.69 585.82 272.69 488.45 443.09 391.09 613.48"/>
          <polygon class="cls-3" points="585.83 272.7 585.82 272.69 585.83 272.69 585.83 272.7"/>
          <polygon class="cls-3" points="877.92 443.09 780.56 613.48 683.19 443.09 671.02 421.79 585.83 272.69 780.56 272.69 975.29 272.69 975.29 272.69 877.92 443.09"/>
          <polygon class="cls-3" points="585.83 613.48 585.82 613.48 391.09 613.48 488.45 443.09 585.83 272.7 585.83 272.69 671.02 421.79 683.19 443.09 780.56 613.48 780.55 613.48 585.83 613.48"/>
          <polygon class="cls-4" points="196.36 613.48 196.35 613.48 1.62 613.48 98.99 443.09 196.36 272.69 196.36 272.69 258.31 381.13 293.72 443.09 391.09 613.48 391.08 613.48 196.36 613.48"/>
          <polygon class="cls-3" points="-193.11 272.69 -107.92 421.79 -95.75 443.09 -89.26 454.44 1.62 613.48 1.62 613.48 1.61 613.48 -193.11 613.48 -193.12 613.48 -387.84 613.48 -290.49 443.09 -193.11 272.69"/>
          <polygon class="cls-5" points="585.83 272.69 585.82 272.69 683.18 102.3 780.56 -68.09 856.29 64.43 877.92 102.3 975.29 272.69 780.56 272.69 585.83 272.69"/>
          <polygon class="cls-5" points="196.36 272.69 196.36 272.69 196.35 272.69 293.71 102.3 391.09 -68.09 488.45 102.3 585.82 272.69 391.09 272.69 196.36 272.69"/>
          <polygon class="cls-5" points="-193.11 272.69 -193.12 272.69 -193.12 272.69 -95.75 102.3 1.62 -68.09 98.98 102.3 196.35 272.69 1.62 272.69 -193.11 272.69"/>
          <polygon class="cls-4" points="-193.12 272.69 -193.12 272.69 -255.09 164.26 -290.49 102.3 -387.85 -68.09 -193.12 -68.09 1.61 -68.09 -95.76 102.3 -193.12 272.69"/>
          <polygon class="cls-4" points="196.35 272.69 98.98 102.3 1.62 -68.09 1.61 -68.09 196.35 -68.09 391.08 -68.09 293.71 102.3 196.35 272.69"/>
          <polygon class="cls-5" points="585.82 272.69 488.45 102.3 391.09 -68.09 391.08 -68.09 585.82 -68.09 780.55 -68.09 683.18 102.3 585.82 272.69"/>
        </g>
        <g id="color" class="cls-6">
          <polygon class="cls-7" points="1754.24 1184.29 1754.23 1184.29 1851.6 1354.67 1948.97 1525.06 2020.72 1399.51 2046.34 1354.69 2086.9 1283.68 2143.7 1184.29 1948.97 1184.29 1754.24 1184.29"/>
          <polygon class="cls-7" points="1701.8 1276.04 1754.23 1184.29 1559.51 1184.29 1364.77 1184.29 1462.13 1354.67 1559.51 1525.06 1656.87 1354.67 1701.8 1276.04"/>
          <polygon class="cls-7" points="1284.58 1324.61 1364.76 1184.29 1170.03 1184.29 975.3 1184.29 975.29 1184.29 1072.66 1354.67 1170.03 1525.06 1267.39 1354.67 1284.58 1324.61"/>
          <polygon class="cls-8" points="1364.77 1184.3 1364.77 1184.29 1364.76 1184.29 1364.77 1184.3"/>
          <polygon class="cls-7" points="975.29 1184.29 975.29 1184.29 899.57 1316.82 877.93 1354.69 780.56 1525.06 780.57 1525.06 975.29 1525.06 975.3 1525.06 1170.03 1525.06 1072.66 1354.69 975.29 1184.29"/>
          <polygon class="cls-7" points="1364.77 1184.3 1364.76 1184.29 1284.58 1324.61 1267.39 1354.69 1170.03 1525.06 1170.04 1525.06 1364.76 1525.06 1364.77 1525.06 1559.51 1525.06 1462.13 1354.69 1364.77 1184.3"/>
          <polygon class="cls-7" points="1754.23 1184.29 1754.23 1184.29 1701.8 1276.04 1656.87 1354.69 1559.51 1525.06 1559.51 1525.06 1754.23 1525.06 1754.24 1525.06 1948.97 1525.06 1851.6 1354.69 1754.23 1184.29"/>
          <polygon class="cls-7" points="2143.7 1184.29 2086.9 1283.68 2046.34 1354.69 2020.72 1399.51 1948.97 1525.06 1948.97 1525.06 1948.98 1525.06 2143.7 1525.06 2143.72 1525.06 2338.43 1525.06 2241.07 1354.69 2143.7 1184.29"/>
          <polygon class="cls-7" points="1170.03 843.5 1101.87 962.78 1072.67 1013.89 975.3 1184.29 1170.03 1184.29 1364.76 1184.29 1364.77 1184.29 1267.4 1013.89 1170.03 843.5"/>
          <polygon class="cls-7" points="1656.87 1013.89 1559.51 843.5 1462.13 1013.89 1364.77 1184.29 1559.51 1184.29 1754.23 1184.29 1754.23 1184.29 1754.24 1184.29 1656.87 1013.89"/>
          <polygon class="cls-7" points="1948.97 843.5 1851.6 1013.89 1754.24 1184.29 1948.97 1184.29 2143.7 1184.29 2143.71 1184.29 2046.34 1013.89 1948.97 843.5"/>
          <polygon class="cls-8" points="2143.7 843.5 1948.98 843.5 2046.34 1013.89 2143.71 1184.29 2143.72 1184.29 2196.14 1092.53 2241.07 1013.89 2338.44 843.5 2338.43 843.5 2143.72 843.5 2143.7 843.5"/>
          <polygon class="cls-7" points="1754.23 843.5 1559.51 843.5 1656.87 1013.89 1754.24 1184.29 1851.6 1013.89 1948.97 843.5 1948.98 843.5 1948.97 843.5 1754.24 843.5 1754.23 843.5"/>
          <polygon class="cls-7" points="1559.51 843.5 1559.51 843.5 1559.51 843.5 1364.77 843.5 1364.76 843.5 1170.04 843.5 1267.4 1013.89 1364.77 1184.29 1462.13 1013.89 1559.51 843.5"/>
          <polygon class="cls-7" points="975.3 1184.29 1072.67 1013.89 1101.87 962.78 1170.03 843.5 1170.04 843.5 1170.03 843.5 975.3 843.5 975.29 843.5 780.57 843.5 877.93 1013.89 975.3 1184.29"/>
          <polygon class="cls-9" points="1754.24 502.71 1754.23 502.71 1851.6 673.1 1948.97 843.5 2039.85 684.47 2046.34 673.1 2058.51 651.82 2143.7 502.71 1948.97 502.71 1754.24 502.71"/>
          <polygon class="cls-8" points="1559.51 843.5 1656.87 673.1 1692.27 611.15 1754.23 502.71 1559.51 502.71 1364.77 502.71 1462.13 673.1 1559.51 843.5"/>
          <polygon class="cls-10" points="1279.57 651.82 1364.76 502.71 1170.03 502.71 975.3 502.71 975.29 502.71 1072.66 673.1 1170.03 843.5 1267.39 673.1 1279.57 651.82"/>
          <polygon class="cls-9" points="1364.77 502.73 1364.77 502.71 1364.76 502.71 1364.77 502.73"/>
          <polygon class="cls-7" points="975.3 843.5 1170.03 843.5 1072.66 673.12 975.29 502.73 975.29 502.71 893.51 645.85 877.93 673.12 780.56 843.5 780.57 843.5 975.29 843.5 975.3 843.5"/>
          <polygon class="cls-8" points="1364.77 843.5 1559.51 843.5 1462.13 673.12 1364.77 502.73 1364.76 502.71 1279.57 651.82 1267.39 673.12 1170.03 843.5 1170.04 843.5 1364.76 843.5 1364.77 843.5"/>
          <polygon class="cls-8" points="1754.23 502.71 1754.23 502.71 1692.27 611.15 1656.87 673.12 1559.51 843.5 1559.51 843.5 1754.23 843.5 1754.24 843.5 1948.97 843.5 1851.6 673.12 1754.23 502.71"/>
          <polygon class="cls-9" points="2143.7 502.71 2058.51 651.82 2046.34 673.12 2039.85 684.47 1948.97 843.5 1948.97 843.5 1948.98 843.5 2143.7 843.5 2143.72 843.5 2338.43 843.5 2241.07 673.12 2143.7 502.71"/>
          <polygon class="cls-8" points="1364.76 502.71 1364.77 502.71 1267.4 332.32 1170.03 161.93 1094.31 294.45 1072.67 332.32 975.3 502.71 1170.03 502.71 1364.76 502.71"/>
          <polygon class="cls-9" points="1754.23 502.71 1754.23 502.71 1754.24 502.71 1656.87 332.32 1559.51 161.93 1462.13 332.32 1364.77 502.71 1559.51 502.71 1754.23 502.71"/>
          <polygon class="cls-8" points="1948.98 161.93 1851.6 332.32 1754.24 502.71 1948.97 502.71 2143.7 502.71 2143.71 502.71 2143.71 502.71 2046.34 332.32 1948.98 161.93"/>
          <polygon class="cls-8" points="2143.7 161.93 1948.98 161.93 2046.34 332.32 2143.72 502.71 2143.72 502.71 2205.67 394.27 2241.07 332.32 2338.44 161.93 2338.43 161.93 2143.72 161.93 2143.7 161.93"/>
          <polygon class="cls-8" points="1754.23 161.93 1559.51 161.93 1656.87 332.32 1754.24 502.71 1851.6 332.32 1948.98 161.93 1948.98 161.93 1948.97 161.93 1754.24 161.93 1754.23 161.93"/>
          <polygon class="cls-9" points="1364.76 161.93 1170.04 161.93 1267.4 332.32 1364.77 502.71 1462.13 332.32 1559.51 161.93 1559.51 161.93 1559.51 161.93 1364.77 161.93 1364.76 161.93"/>
          <polygon class="cls-8" points="975.3 502.71 1072.67 332.32 1094.31 294.45 1170.03 161.93 1170.04 161.93 1170.03 161.93 975.3 161.93 975.29 161.93 780.57 161.93 877.93 332.32 975.3 502.71"/>
          <polygon class="cls-8" points="1851.6 -8.47 1948.97 161.93 2039.85 2.9 2046.34 -8.47 2058.51 -29.76 2143.7 -178.86 1948.97 -178.86 1754.24 -178.86 1754.23 -178.86 1851.6 -8.47"/>
          <polygon class="cls-8" points="1559.51 161.93 1656.87 -8.47 1692.27 -70.42 1754.23 -178.86 1559.51 -178.86 1364.77 -178.86 1462.13 -8.47 1559.51 161.93"/>
          <polygon class="cls-10" points="1072.66 -8.47 1170.03 161.93 1267.39 -8.47 1279.57 -29.76 1364.76 -178.86 1170.03 -178.86 975.3 -178.86 975.29 -178.86 1072.66 -8.47"/>
          <polygon class="cls-8" points="975.3 161.93 1170.03 161.93 1072.66 -8.46 975.29 -178.85 975.29 -178.86 893.51 -35.73 877.93 -8.46 780.56 161.93 780.57 161.93 975.29 161.93 975.3 161.93"/>
          <polygon class="cls-10" points="1364.76 161.93 1364.77 161.93 1559.51 161.93 1462.13 -8.46 1364.77 -178.85 1364.76 -178.86 1279.57 -29.76 1267.39 -8.46 1170.03 161.93 1170.04 161.93 1364.76 161.93"/>
          <polygon class="cls-8" points="1754.23 161.93 1754.24 161.93 1948.97 161.93 1851.6 -8.46 1754.23 -178.86 1754.23 -178.86 1692.27 -70.42 1656.87 -8.46 1559.51 161.93 1559.51 161.93 1754.23 161.93"/>
          <polygon class="cls-8" points="2143.7 -178.86 2058.51 -29.76 2046.34 -8.46 2039.85 2.9 1948.97 161.93 1948.97 161.93 1948.98 161.93 2143.7 161.93 2143.72 161.93 2338.43 161.93 2241.07 -8.46 2143.7 -178.86"/>
          <polygon class="cls-9" points="-95.73 1354.67 -193.1 1184.28 -290.47 1354.67 -387.84 1525.06 -193.1 1525.06 1.62 1525.06 1.62 1525.06 1.63 1525.06 -95.73 1354.67"/>
          <polygon class="cls-7" points="196.36 1184.28 99 1354.67 1.63 1525.06 196.36 1525.06 391.09 1525.06 391.1 1525.06 293.73 1354.67 196.36 1184.28"/>
          <polygon class="cls-7" points="443.53 1433.31 391.11 1525.06 585.83 1525.06 780.56 1525.06 683.2 1354.67 585.83 1184.28 488.47 1354.67 443.53 1433.31"/>
          <polygon class="cls-7" points="780.56 1184.28 585.83 1184.28 683.2 1354.67 780.57 1525.05 780.58 1525.06 860.76 1384.74 877.94 1354.67 975.3 1184.28 975.3 1184.28 780.58 1184.28 780.56 1184.28"/>
          <polygon class="cls-7" points="391.09 1184.28 196.37 1184.28 293.74 1354.67 391.1 1525.06 391.11 1525.06 443.53 1433.31 488.47 1354.67 585.83 1184.28 585.83 1184.28 391.11 1184.28 391.09 1184.28"/>
          <polygon class="cls-7" points="1.62 1184.28 -193.1 1184.28 -95.73 1354.67 1.63 1525.06 99 1354.67 196.36 1184.28 196.37 1184.28 196.36 1184.28 1.63 1184.28 1.62 1184.28"/>
          <polygon class="cls-7" points="391.11 843.49 391.1 843.49 391.1 843.49 488.47 1013.88 585.83 1184.27 683.2 1013.89 780.56 843.49 585.83 843.49 391.11 843.49"/>
          <polygon class="cls-7" points="1.63 843.49 1.62 843.49 99 1013.88 196.36 1184.28 287.24 1025.25 293.73 1013.88 305.9 992.6 391.09 843.49 196.36 843.49 1.63 843.49"/>
          <polygon class="cls-8" points="-193.1 1184.28 -95.74 1013.88 -60.33 951.93 1.62 843.49 -193.1 843.49 -387.84 843.49 -290.48 1013.88 -193.1 1184.28"/>
          <polygon class="cls-7" points="1.62 843.49 1.62 843.49 -60.33 951.93 -95.74 1013.89 -193.1 1184.28 -193.1 1184.28 1.62 1184.28 1.63 1184.28 196.36 1184.28 99 1013.89 1.62 843.49"/>
          <polygon class="cls-7" points="391.09 843.49 305.9 992.6 293.73 1013.89 287.24 1025.25 196.36 1184.28 196.36 1184.28 196.37 1184.28 391.09 1184.28 391.11 1184.28 585.83 1184.28 488.47 1013.89 391.09 843.49"/>
          <polygon class="cls-7" points="780.56 843.49 683.2 1013.89 585.83 1184.27 585.83 1184.28 585.83 1184.28 780.56 1184.28 780.58 1184.28 975.3 1184.28 877.94 1013.89 780.56 843.49"/>
          <polygon class="cls-10" points="1.62 843.49 1.62 843.49 1.63 843.49 -95.73 673.1 -193.1 502.71 -290.47 673.1 -387.84 843.49 -193.1 843.49 1.62 843.49"/>
          <polygon class="cls-10" points="196.37 502.71 99 673.1 1.63 843.49 196.36 843.49 391.09 843.49 391.1 843.49 391.1 843.49 293.73 673.1 196.37 502.71"/>
          <polygon class="cls-8" points="453.07 735.05 391.11 843.49 585.83 843.49 780.56 843.49 683.2 673.1 585.83 502.71 488.47 673.1 453.07 735.05"/>
          <polygon class="cls-8" points="780.58 843.49 780.57 843.47 780.56 843.49 780.58 843.49"/>
          <polygon class="cls-9" points="780.56 502.71 585.83 502.71 683.2 673.1 780.57 843.47 780.58 843.49 865.77 694.4 877.94 673.1 975.3 502.71 975.3 502.71 780.58 502.71 780.56 502.71"/>
          <polygon class="cls-7" points="391.09 502.71 196.37 502.71 293.74 673.1 391.11 843.49 391.11 843.49 453.07 735.05 488.47 673.1 585.83 502.71 585.83 502.71 391.11 502.71 391.09 502.71"/>
          <polygon class="cls-9" points="1.62 502.71 -193.1 502.71 -95.73 673.1 1.63 843.49 99 673.1 196.37 502.71 196.37 502.71 196.36 502.71 1.63 502.71 1.62 502.71"/>
          <polygon class="cls-8" points="488.47 332.3 585.83 502.69 683.2 332.32 780.56 161.91 585.83 161.91 391.11 161.91 391.1 161.91 391.1 161.91 488.47 332.3"/>
          <polygon class="cls-7" points="99 332.3 196.36 502.71 287.24 343.67 293.73 332.3 305.9 311.02 391.09 161.91 196.36 161.91 1.63 161.91 1.62 161.91 99 332.3"/>
          <polygon class="cls-10" points="-193.1 502.71 -95.74 332.3 -60.33 270.36 1.62 161.91 -193.1 161.91 -387.84 161.91 -290.48 332.3 -193.1 502.71"/>
          <polygon class="cls-8" points="1.62 502.71 1.63 502.71 196.36 502.71 99 332.32 1.62 161.91 1.62 161.91 -60.33 270.36 -95.74 332.32 -193.1 502.71 -193.1 502.71 1.62 502.71"/>
          <polygon class="cls-8" points="391.09 161.91 305.9 311.02 293.73 332.32 287.24 343.67 196.36 502.71 196.36 502.71 196.37 502.71 391.09 502.71 391.11 502.71 585.83 502.71 488.47 332.32 391.09 161.91"/>
          <polygon class="cls-8" points="780.56 161.91 683.2 332.32 585.83 502.69 585.83 502.71 585.83 502.71 780.56 502.71 780.58 502.71 975.3 502.71 877.94 332.32 780.56 161.91"/>
          <polygon class="cls-7" points="1.62 161.91 1.62 161.91 1.63 161.91 -95.73 -8.47 -193.1 -178.86 -290.47 -8.47 -387.84 161.91 -193.1 161.91 1.62 161.91"/>
          <polygon class="cls-8" points="391.09 161.91 391.1 161.91 391.1 161.91 293.73 -8.47 196.37 -178.86 99 -8.47 1.63 161.91 196.36 161.91 391.09 161.91"/>
          <polygon class="cls-8" points="453.07 53.49 391.11 161.91 585.83 161.91 780.56 161.91 683.2 -8.47 585.83 -178.86 488.47 -8.47 453.07 53.49"/>
          <polygon class="cls-8" points="780.57 161.91 780.58 161.91 865.77 12.82 877.94 -8.47 975.3 -178.86 780.58 -178.86 585.83 -178.86 683.2 -8.47 780.57 161.91"/>
          <polygon class="cls-8" points="391.11 161.91 391.11 161.91 453.07 53.49 488.47 -8.47 585.83 -178.86 391.11 -178.86 196.37 -178.86 293.74 -8.47 391.11 161.91"/>
          <polygon class="cls-8" points="1.63 161.91 99 -8.47 196.37 -178.86 196.37 -178.86 1.63 -178.86 -193.1 -178.86 -95.73 -8.47 1.63 161.91"/>
        </g>
      </g>
    </g>
    <g id="animated">
      <g id="orange3">
        <polygon class="cls-10" points="1496.21 502.71 1497.55 505.05 1559.51 613.47 1622.81 502.71 1559.51 502.71 1496.21 502.71"/>
      </g>
      <g id="orange2">
        <polygon class="cls-10" points="1496.21 502.71 1364.77 502.71 1428.06 613.47 1559.51 613.47 1497.55 505.05 1496.21 502.71"/>
      </g>
      <g id="orange1">
        <polygon class="cls-10" points="1364.76 502.71 1301.48 613.47 1364.78 613.47 1428.05 613.47 1364.77 502.73 1364.76 502.71"/>
      </g>
      <polygon class="cls-10" points="1233.34 502.71 1170.05 613.47 1301.48 613.47 1364.76 502.71 1233.34 502.71"/>
      <g id="aqua3">
        <polygon class="cls-9" points="1106.75 502.71 1170.03 613.47 1170.04 613.47 1233.34 502.71 1170.03 502.71 1106.75 502.71"/>
      </g>
      <g id="aqua2">
        <polygon class="cls-9" points="975.3 502.71 975.3 502.72 1038.59 613.47 1170.03 613.47 1106.75 502.71 975.3 502.71"/>
      </g>
      <g id="aqua1">
        <polygon class="cls-9" points="912.01 613.47 975.31 613.47 1038.58 613.47 975.29 502.73 912.01 613.47"/>
      </g>
      <polygon id="aquastart" class="cls-9" points="975.3 502.71 843.86 502.71 780.57 613.48 912.01 613.48 975.31 502.71 975.3 502.71"/>
      <polygon id="white3" class="cls-7" points="780.56 502.71 717.26 502.71 780.56 613.48 843.85 502.71 780.58 502.71 780.56 502.71"/>
      <polygon id="white1" class="cls-7" points="522.53 613.48 585.82 613.48 585.83 613.48 649.13 613.48 585.83 502.71 522.53 613.48"/>
      <polygon id="white2" class="cls-7" points="585.83 502.71 649.13 613.48 780.55 613.48 780.56 613.48 717.26 502.71 585.83 502.71"/>
      <polygon id="white_start" data-name="white start" class="cls-7" points="585.82 502.71 454.38 502.71 391.09 613.48 522.53 613.48 585.83 502.71 585.82 502.71"/>
      <g id="text3">"
      <text class="cls-11" transform="translate(1365.98 542.97)"><tspan class="cls-12">Countries covered </tspan><tspan class="cls-18"><tspan x="0" y="19">in our Philanthropy </tspan></tspan><tspan class="cls-21" x="0" y="38">Law Reports series</tspan></text></g>
      <g id="text2"><text class="cls-23" transform="translate(973.98 542.97)"><tspan class="cls-24">C</tspan><tspan class="cls-18" x="13.14" y="0">SO Sustainabili</tspan><tspan x="152.96" y="0">t</tspan><tspan class="cls-18" x="160.41" y="0">y </tspan><tspan class="cls-18"><tspan x="0" y="19">I</tspan><tspan class="cls-25" x="5.76" y="19">n</tspan><tspan x="18.25" y="19">d</tspan><tspan class="cls-20" x="30.71" y="19">e</tspan><tspan class="cls-15" x="41.63" y="19">x </tspan><tspan class="cls-26" x="56.77" y="19">r</tspan><tspan x="64.12" y="19">epo</tspan><tspan class="cls-22" x="99.38" y="19">r</tspan><tspan class="cls-15" x="107.21" y="19">ts </tspan></tspan><tspan class="cls-15"><tspan x="0" y="38">p</tspan><tspan class="cls-26" x="12.46" y="38">r</tspan><tspan x="19.8" y="38">odu</tspan><tspan class="cls-16" x="56.23" y="38">c</tspan><tspan class="cls-18" x="66.55" y="38">ed</tspan></tspan></text></g>
      <g id="text1">
      <text class="cls-27" transform="translate(585.98 542.97)"><tspan class="cls-18">Bills anal</tspan><tspan x="83.16" y="0">y</tspan><tspan class="cls-16" x="93.22" y="0">z</tspan><tspan class="cls-18" x="102.63" y="0">ed in</tspan><tspan class="cls-15"><tspan x="0" y="19">our US </tspan><tspan class="cls-28" x="67.35" y="19">P</tspan><tspan class="cls-19" x="80.19" y="19">r</tspan><tspan x="87.53" y="19">o</tspan><tspan class="cls-29" x="99.14" y="19">t</tspan><tspan x="106.45" y="19">est</tspan></tspan><tspan class="cls-21" x="0" y="38">L</tspan><tspan x="10.93" y="38">a</tspan><tspan class="cls-15" x="21.69" y="38">w </tspan><tspan class="cls-30" x="43.07" y="38">T</tspan><tspan class="cls-16" x="53.59" y="38">r</tspan><tspan class="cls-21" x="61" y="38">a</tspan><tspan class="cls-14" x="72" y="38">c</tspan><tspan class="cls-31" x="82.33" y="38">k</tspan><tspan class="cls-18" x="93.2" y="38">er</tspan></text>
      </g>
    </g>
    <g id="Text">
      <g id="number1"><text class="cls-34" transform="translate(451.12 574.21)">64</text></g>
      <g id="number2"><text class="cls-32" transform="translate(839.98 574.21)">69</text></g>
      <g id="number3"><text class="cls-33" transform="translate(1247.38 574.21)">9</text></g>
      <text class="cls-35" transform="translate(453.98 196.09)"><tspan class="cls-36"><tspan class="cls-37">W</tspan><tspan x="39.51" y="0">e p</tspan><tspan class="cls-38" x="96.49" y="0">r</tspan><tspan x="111.75" y="0">o</tspan><tspan class="cls-39" x="135.06" y="0">m</tspan><tspan x="171.92" y="0">o</tspan><tspan class="cls-40" x="195.23" y="0">t</tspan><tspan x="210.31" y="0">e </tspan><tspan class="cls-41" x="242.97" y="0">f</tspan><tspan class="cls-38" x="259.98" y="0">r</tspan><tspan x="275.24" y="0">eedom. </tspan></tspan><tspan class="cls-42"><tspan class="cls-43" x="0" y="48">F</tspan><tspan x="15.93" y="48">reedom o</tspan><tspan class="cls-44" x="138.33" y="48">f</tspan><tspan x="151.59" y="48" xml:space="preserve"> associ</tspan><tspan class="cls-45" x="236.61" y="48">a</tspan><tspan x="251.1" y="48">tion, freedom o</tspan><tspan class="cls-44" x="450.95" y="48">f</tspan><tspan x="464.21" y="48" xml:space="preserve"> assem</tspan><tspan x="551.6" y="48">-</tspan><tspan class="cls-46" x="0" y="84">b</tspan><tspan x="16.11" y="84">l</tspan><tspan class="cls-47" x="25.08" y="84">y</tspan><tspan x="38.61" y="84">, and freedom o</tspan><tspan class="cls-44" x="240.81" y="84">f</tspan><tspan x="254.07" y="84" xml:space="preserve"> expression. Our</tspan><tspan class="cls-43" x="466.97" y="84"> </tspan><tspan class="cls-46" x="472.07" y="84">w</tspan><tspan x="494.99" y="84">ork </tspan><tspan x="0" y="120">supports civil societ</tspan><tspan class="cls-47" x="260.31" y="120">y</tspan><tspan x="273.84" y="120">, civic particip</tspan><tspan class="cls-48" x="458.21" y="120">a</tspan><tspan x="472.7" y="120">tion, </tspan><tspan x="0" y="156">and </tspan><tspan class="cls-46" x="55.77" y="156">p</tspan><tspan x="72.66" y="156">hilanthro</tspan><tspan class="cls-46" x="198.33" y="156">p</tspan><tspan class="cls-43" x="215.22" y="156">y</tspan><tspan x="230.55" y="156" xml:space="preserve"> in countries around the </tspan><tspan class="cls-46" x="0" y="192">w</tspan><tspan x="22.92" y="192">orld.</tspan></tspan></text>
    </g>
  </g>
</svg>
