<svg xmlns="http://www.w3.org/2000/svg" xmlns:xlink="http://www.w3.org/1999/xlink" viewBox="0 0 2000.27 1134.18">
  <defs>
    <style>
      .cls-1 {
        fill: none;
      }

      .cls-2 {
        isolation: isolate;
      }

      .cls-12, .cls-3 {
        opacity: 0.3;
      }

      .cls-4 {
        opacity: 0.3;
      }

      .cls-11, .cls-5 {
        fill: #8e8e8d;
      }

      .cls-12, .cls-14, .cls-15, .cls-16, .cls-17, .cls-18, .cls-19, .cls-20, .cls-21, .cls-22, .cls-5, .cls-6, .cls-7, .cls-8, .cls-9 {
        mix-blend-mode: multiply;
      }

      .cls-47, .cls-48, .cls-6, .cls-66 {
        fill: #fff;
      }

      .cls-10, .cls-7, .cls-72, .cls-73 {
        fill: #efedf0;
      }

      .cls-8 {
        fill: #cfcfce;
      }

      .cls-9 {
        fill: #f1f0f0;
      }

      .cls-12 {
        fill: #333;
      }

      .cls-13 {
        fill: #606161;
      }

      .cls-14 {
        fill: #efedef;
      }

      .cls-16 {
        fill: #016f87;
      }

      .cls-17 {
        fill: #f9a357;
      }

      .cls-18 {
        fill: #13b1d3;
      }

      .cls-19 {
        fill: #16b1d3;
      }

      .cls-20 {
        fill: #056f87;
      }

      .cls-21 {
        fill: #036f87;
      }

      .cls-22 {
        font-size: 35px;
        font-family: Montserrat-ExtraBold, Montserrat;
      }

      .cls-22, .cls-57, .cls-58 {
        fill: #1e4a7e;
      }

      .cls-23, .cls-24, .cls-25, .cls-26, .cls-27, .cls-28, .cls-47, .cls-57, .cls-72 {
        font-weight: 700;
      }

      .cls-23 {
        letter-spacing: -0.05em;
      }

      .cls-25 {
        letter-spacing: -0.01em;
      }

      .cls-26 {
        letter-spacing: 0.01em;
      }

      .cls-27 {
        letter-spacing: -0.02em;
      }

      .cls-28, .cls-36 {
        letter-spacing: 0.08em;
      }

      .cls-29, .cls-30, .cls-31 {
        font-family: Montserrat-Regular, Montserrat;
      }

      .cls-29 {
        letter-spacing: -0.01em;
      }

      .cls-30, .cls-37 {
        letter-spacing: -0.01em;
      }

      .cls-32 {
        letter-spacing: 0.08em;
      }

      .cls-33 {
        letter-spacing: -0.01em;
      }

      .cls-34 {
        letter-spacing: -0.03em;
      }

      .cls-35 {
        letter-spacing: 0em;
      }

      .cls-38 {
        letter-spacing: -0.01em;
      }

      .cls-39 {
        letter-spacing: -0.01em;
      }

      .cls-40 {
        letter-spacing: 0.01em;
      }

      .cls-41 {
        letter-spacing: -0.01em;
      }

      .cls-42 {
        letter-spacing: 0em;
      }

      .cls-43 {
        letter-spacing: 0em;
      }

      .cls-44 {
        letter-spacing: 0em;
      }

      .cls-45 {
        letter-spacing: -0.01em;
      }

      .cls-46 {
        clip-path: url(#clip-path);
      }

      .cls-47, .cls-57, .cls-72 {
        font-size: 60px;
        font-family: Montserrat-Bold, Montserrat;
      }

      .cls-48, .cls-58, .cls-66, .cls-73 {
        font-size: 18px;
        font-family: Montserrat-Medium, Montserrat;
      }

      .cls-49 {
        letter-spacing: 0.01em;
      }

      .cls-50 {
        letter-spacing: 0.01em;
      }

      .cls-51 {
        letter-spacing: 0.01em;
      }

      .cls-52 {
        letter-spacing: 0em;
      }

      .cls-53, .cls-66 {
        letter-spacing: 0.01em;
      }

      .cls-54 {
        letter-spacing: 0em;
      }

      .cls-55 {
        letter-spacing: 0.02em;
      }

      .cls-56 {
        letter-spacing: 0em;
      }

      .cls-59 {
        letter-spacing: -0.01em;
      }

      .cls-60 {
        letter-spacing: 0.01em;
      }

      .cls-61 {
        letter-spacing: 0em;
      }

      .cls-62 {
        letter-spacing: 0em;
      }

      .cls-63 {
        letter-spacing: 0em;
      }

      .cls-64 {
        letter-spacing: 0.01em;
      }

      .cls-65 {
        letter-spacing: -0.04em;
      }

      .cls-67 {
        letter-spacing: -0.02em;
      }

      .cls-68 {
        letter-spacing: 0.09em;
      }

      .cls-69 {
        letter-spacing: 0.01em;
      }

      .cls-70 {
        letter-spacing: 0em;
      }

      .cls-71 {
        letter-spacing: 0em;
      }

      .cls-74 {
        letter-spacing: -0.01em;
      }

      .cls-75 {
        letter-spacing: -0.01em;
      }

      .cls-76 {
        letter-spacing: 0em;
      }

      .cls-77 {
        letter-spacing: -0.01em;
      }
    </style>
    <clipPath id="clip-path">
      <rect class="cls-1" x="414.13" y="30.41" width="322.6" height="87"/>
    </clipPath>
  </defs>
  <title>Artboard 15</title>
  <g class="cls-2">
    <g id="Tiles">
      <g id="Gray" class="cls-3">
        <g class="cls-4">
          <polygon class="cls-5" points="523.42 645.55 523.42 645.55 576.62 738.65 629.83 831.76 671.21 759.35 683.03 738.65 736.24 645.55 629.83 645.55 523.42 645.55"/>
          <polygon class="cls-6" points="463.56 5.42 417.01 86.9 523.42 86.9 629.83 86.9 629.83 86.9 576.62 -6.22 523.42 -99.33 470.22 -6.22 463.56 5.42"/>
          <polygon class="cls-6" points="417.01 86.89 417.01 86.9 417.01 86.9 417.01 86.89"/>
          <polygon class="cls-5" points="417.01 -99.33 417.01 -99.33 310.6 -99.33 363.8 -6.22 417.01 86.89 417.01 86.9 463.56 5.42 470.22 -6.22 523.42 -99.33 523.41 -99.33 417.01 -99.33"/>
          <polygon class="cls-5" points="417.01 86.9 417.01 86.9 470.21 180 523.42 273.11 564.8 200.7 576.62 180 629.83 86.9 523.42 86.9 417.01 86.9"/>
          <polygon class="cls-7" points="417.01 273.11 523.41 273.11 470.21 180 417.01 86.9 363.8 180 310.6 273.11 310.59 273.11 310.6 273.11 417.01 273.11 417.01 273.11"/>
          <polygon class="cls-6" points="417.01 459.33 417.01 459.34 417.01 459.34 417.01 459.33"/>
          <polygon class="cls-6" points="576.62 366.22 523.42 273.11 470.22 366.22 463.56 377.86 417.01 459.34 523.42 459.34 629.83 459.34 629.83 459.34 576.62 366.22"/>
          <polygon class="cls-7" points="417.01 273.11 417.01 273.11 310.6 273.11 363.8 366.22 417.01 459.33 417.01 459.34 463.56 377.86 470.22 366.22 523.42 273.11 523.41 273.11 417.01 273.11"/>
          <polygon class="cls-6" points="417.01 459.34 417.01 459.34 470.21 552.44 523.42 645.55 564.8 573.14 576.62 552.44 629.83 459.34 523.42 459.34 417.01 459.34"/>
          <polygon class="cls-8" points="417.01 459.34 363.8 552.44 310.6 645.55 310.59 645.55 417.01 645.55 523.41 645.55 470.21 552.44 417.01 459.34"/>
          <polygon class="cls-6" points="417.01 1204.19 417 1204.19 470.21 1111.09 523.42 1017.98 564.8 1090.39 576.62 1111.09 629.83 1204.19 523.42 1204.19 417.01 1204.19"/>
          <polygon class="cls-6" points="417.01 1017.98 523.41 1017.98 470.21 1111.09 417 1204.19 363.8 1111.09 310.6 1017.98 310.59 1017.98 310.6 1017.98 417 1017.98 417.01 1017.98"/>
          <polygon class="cls-6" points="417.01 831.77 417 831.76 417.01 831.76 417.01 831.77"/>
          <polygon class="cls-8" points="576.62 924.87 523.42 1017.98 470.21 924.87 463.56 913.24 417.01 831.76 523.42 831.76 629.83 831.76 629.83 831.76 576.62 924.87"/>
          <polygon class="cls-7" points="417.01 1017.98 417 1017.98 310.6 1017.98 363.8 924.87 417.01 831.77 417.01 831.76 463.56 913.24 470.21 924.87 523.42 1017.98 523.41 1017.98 417.01 1017.98"/>
          <polygon class="cls-7" points="417.01 831.76 417 831.76 470.21 738.65 523.42 645.54 564.8 717.96 576.62 738.65 629.83 831.76 523.42 831.76 417.01 831.76"/>
          <polygon class="cls-7" points="417 831.76 363.8 738.65 310.6 645.54 310.59 645.54 417 645.54 523.41 645.54 470.21 738.65 417 831.76"/>
          <polygon class="cls-6" points="1650.12 382.66 1693.93 459.34 1587.52 459.34 1481.11 459.34 1481.11 459.34 1534.32 366.23 1587.52 273.11 1640.73 366.23 1650.12 382.66"/>
          <polygon class="cls-8" points="1693.94 459.34 1693.93 459.34 1693.93 459.33 1693.94 459.34"/>
          <polygon class="cls-5" points="1587.52 459.34 1693.93 459.34 1640.73 552.45 1587.52 645.55 1587.52 645.56 1543.71 568.88 1534.32 552.45 1481.11 459.34 1481.11 459.34 1587.52 459.34 1587.52 459.34"/>
          <polygon class="cls-5" points="1693.93 86.9 1693.94 86.9 1640.73 180.01 1587.52 273.11 1544.55 197.91 1534.32 180.01 1512.15 141.21 1481.11 86.9 1587.52 86.9 1693.93 86.9"/>
          <polygon class="cls-5" points="1693.93 86.9 1693.93 86.89 1693.94 86.9 1693.93 86.9"/>
          <polygon class="cls-5" points="1650.12 10.22 1693.93 86.9 1587.52 86.9 1481.11 86.9 1481.11 86.9 1534.32 -6.21 1587.52 -99.31 1640.73 -6.21 1650.12 10.22"/>
          <polygon class="cls-8" points="1481.1 459.34 1518.35 524.51 1534.31 552.45 1587.51 645.55 1481.1 645.55 1374.69 645.55 1374.69 645.55 1427.89 552.45 1481.1 459.34"/>
          <polygon class="cls-6" points="1268.28 459.34 1321.49 552.45 1374.69 645.55 1268.28 645.55 1161.88 645.55 1161.88 645.55 1161.87 645.55 1215.07 552.45 1268.28 459.34"/>
          <polygon class="cls-5" points="1055.46 459.34 1108.67 552.45 1161.87 645.55 1055.46 645.55 949.05 645.55 949.05 645.55 1002.26 552.45 1055.46 459.34"/>
          <polygon class="cls-7" points="842.64 459.33 895.85 552.45 920.4 595.42 949.05 645.55 842.64 645.55 736.23 645.55 789.44 552.45 842.64 459.33"/>
          <polygon class="cls-7" points="692.42 568.88 736.23 645.55 629.82 645.55 523.41 645.55 523.41 645.55 576.61 552.45 629.82 459.33 683.03 552.45 692.42 568.88"/>
          <polygon class="cls-8" points="736.23 645.55 736.23 645.55 736.23 645.54 736.23 645.55"/>
          <polygon class="cls-6" points="736.23 459.33 842.64 459.33 789.44 552.45 736.23 645.54 736.23 645.55 692.42 568.88 683.03 552.45 629.82 459.33 629.82 459.33 736.23 459.33 736.23 459.33"/>
          <polygon class="cls-7" points="895.85 552.45 842.64 459.33 842.65 459.33 949.05 459.33 949.05 459.33 1055.46 459.33 1002.25 552.45 949.05 645.55 949.05 645.55 920.4 595.42 895.85 552.45"/>
          <polygon class="cls-6" points="1055.46 459.34 1055.46 459.33 1055.46 459.33 1161.87 459.33 1161.88 459.33 1268.28 459.33 1215.07 552.45 1161.87 645.55 1108.67 552.45 1055.46 459.34"/>
          <polygon class="cls-6" points="1268.28 459.34 1268.28 459.33 1268.28 459.33 1374.69 459.33 1374.69 459.33 1481.1 459.33 1427.89 552.45 1374.69 645.55 1321.49 552.45 1268.28 459.34"/>
          <polygon class="cls-6" points="736.23 273.12 736.23 273.12 683.03 366.23 629.82 459.33 586.85 384.13 576.62 366.23 554.45 327.43 523.41 273.12 629.82 273.12 736.23 273.12"/>
          <polygon class="cls-6" points="949.05 273.12 949.05 273.12 949.05 273.12 895.85 366.23 842.64 459.33 789.44 366.23 736.23 273.12 842.64 273.12 949.05 273.12"/>
          <polygon class="cls-8" points="1161.87 273.12 1161.88 273.12 1108.67 366.23 1055.46 459.33 1016.26 390.73 1002.26 366.23 980.09 327.43 949.05 273.12 1055.46 273.12 1161.87 273.12"/>
          <polygon class="cls-8" points="1190.52 323.25 1161.88 273.12 1268.28 273.12 1374.69 273.12 1321.49 366.23 1268.28 459.33 1215.08 366.23 1190.52 323.25"/>
          <polygon class="cls-5" points="1418.51 349.8 1374.69 273.12 1481.1 273.12 1587.51 273.12 1587.52 273.12 1534.31 366.23 1481.1 459.33 1427.9 366.23 1418.51 349.8"/>
          <polygon class="cls-5" points="1374.69 273.13 1374.69 273.12 1374.69 273.12 1374.69 273.13"/>
          <polygon class="cls-5" points="1374.69 273.13 1374.69 273.12 1418.51 349.8 1427.9 366.23 1481.1 459.33 1481.1 459.33 1374.69 459.33 1374.69 459.33 1268.28 459.33 1321.49 366.23 1374.69 273.13"/>
          <polygon class="cls-8" points="1161.88 273.12 1161.88 273.12 1190.52 323.25 1215.08 366.23 1268.28 459.33 1268.28 459.33 1161.88 459.33 1161.87 459.33 1055.46 459.33 1108.67 366.23 1161.88 273.12"/>
          <polygon class="cls-8" points="949.05 273.12 980.09 327.43 1002.26 366.23 1016.26 390.73 1055.46 459.33 1055.46 459.33 1055.46 459.33 949.05 459.33 949.05 459.33 842.65 459.33 895.85 366.23 949.05 273.12"/>
          <polygon class="cls-6" points="736.23 273.12 789.44 366.23 842.64 459.33 842.65 459.33 842.64 459.33 736.23 459.33 736.23 459.33 629.82 459.33 683.03 366.23 736.23 273.12"/>
          <polygon class="cls-5" points="1481.1 86.9 1518.35 152.08 1534.31 180.01 1587.51 273.12 1481.1 273.12 1374.69 273.12 1374.69 273.12 1427.89 180.01 1481.1 86.9"/>
          <polygon class="cls-5" points="1215.07 180.01 1268.28 86.9 1321.49 180.01 1374.69 273.12 1268.28 273.12 1161.88 273.12 1161.88 273.12 1161.87 273.12 1215.07 180.01"/>
          <polygon class="cls-8" points="1055.46 86.9 1108.67 180.01 1161.87 273.12 1055.46 273.12 949.05 273.12 949.05 273.12 1002.26 180.01 1055.46 86.9"/>
          <polygon class="cls-7" points="920.4 222.98 949.05 273.12 842.64 273.12 736.23 273.12 789.44 180.01 842.64 86.9 895.85 180.01 920.4 222.98"/>
          <polygon class="cls-5" points="736.23 273.12 736.23 273.11 736.23 273.12 736.23 273.12"/>
          <polygon class="cls-7" points="692.42 196.44 736.23 273.12 629.82 273.12 523.41 273.12 523.41 273.12 576.61 180.01 629.82 86.9 683.03 180.01 692.42 196.44"/>
          <polygon class="cls-7" points="736.23 86.9 842.64 86.9 789.44 180.01 736.23 273.11 736.23 273.12 692.42 196.44 683.03 180.01 629.82 86.9 629.82 86.9 736.23 86.9 736.23 86.9"/>
          <polygon class="cls-7" points="949.05 86.9 1055.46 86.9 1002.25 180.01 949.05 273.12 949.05 273.12 920.4 222.98 895.85 180.01 842.64 86.9 842.65 86.9 949.05 86.9 949.05 86.9"/>
          <polygon class="cls-6" points="1161.88 86.9 1268.28 86.9 1215.07 180.01 1161.87 273.12 1108.67 180.01 1055.46 86.9 1055.46 86.9 1055.46 86.9 1161.87 86.9 1161.88 86.9"/>
          <polygon class="cls-6" points="1268.28 86.9 1268.28 86.9 1268.28 86.9 1374.69 86.9 1374.69 86.9 1481.1 86.9 1427.89 180.01 1374.69 273.12 1321.49 180.01 1268.28 86.9"/>
          <polygon class="cls-5" points="736.23 -99.32 736.23 -99.32 683.03 -6.2 629.82 86.89 579.04 -1.98 576.62 -6.2 569.97 -17.84 523.41 -99.32 629.82 -99.32 736.23 -99.32"/>
          <polygon class="cls-6" points="949.05 -99.32 949.05 -99.32 949.05 -99.32 895.85 -6.2 842.64 86.89 789.44 -6.2 736.23 -99.32 842.64 -99.32 949.05 -99.32"/>
          <polygon class="cls-6" points="1161.87 -99.32 1161.88 -99.32 1108.67 -6.2 1055.46 86.9 1005.8 0 1002.26 -6.2 995.61 -17.84 949.05 -99.32 1055.46 -99.32 1161.87 -99.32"/>
          <polygon class="cls-8" points="1268.28 86.9 1215.08 -6.2 1195.73 -40.06 1161.88 -99.32 1268.28 -99.32 1374.69 -99.32 1321.49 -6.2 1268.28 86.9"/>
          <polygon class="cls-6" points="1421.25 -17.84 1374.69 -99.32 1481.1 -99.32 1587.51 -99.32 1587.52 -99.32 1534.31 -6.2 1481.1 86.9 1427.9 -6.2 1421.25 -17.84"/>
          <polygon class="cls-5" points="1374.69 86.9 1374.69 86.9 1268.28 86.9 1321.49 -6.2 1374.69 -99.31 1374.69 -99.32 1421.25 -17.84 1427.9 -6.2 1481.1 86.9 1481.1 86.9 1374.69 86.9"/>
          <polygon class="cls-6" points="1161.88 -99.32 1161.88 -99.32 1195.73 -40.06 1215.08 -6.2 1268.28 86.9 1268.28 86.9 1161.88 86.9 1161.87 86.9 1055.46 86.9 1108.67 -6.2 1161.88 -99.32"/>
          <polygon class="cls-5" points="949.05 -99.32 995.61 -17.84 1002.26 -6.2 1005.8 0 1055.46 86.9 1055.46 86.9 1055.46 86.9 949.05 86.9 949.05 86.9 842.65 86.9 895.85 -6.2 949.05 -99.32"/>
          <polygon class="cls-6" points="736.23 -99.32 789.44 -6.2 842.64 86.89 842.65 86.9 842.64 86.9 736.23 86.9 736.23 86.9 629.82 86.9 683.03 -6.2 736.23 -99.32"/>
          <polygon class="cls-9" points="629.83 1017.98 736.24 1017.98 683.03 1111.09 629.83 1204.19 629.82 1204.19 586.01 1127.52 576.62 1111.09 523.42 1017.98 523.42 1017.98 629.82 1017.98 629.83 1017.98"/>
          <polygon class="cls-8" points="629.83 831.76 683.03 924.87 736.24 1017.97 736.24 1017.98 736.24 1017.98 629.83 1017.98 629.82 1017.98 523.42 1017.98 576.62 924.87 629.83 831.76"/>
          <polygon class="cls-6" points="1481.12 1204.19 1481.12 1204.19 1534.32 1111.08 1587.53 1017.97 1628.91 1090.39 1640.73 1111.08 1693.94 1204.19 1587.53 1204.19 1481.12 1204.19"/>
          <polygon class="cls-6" points="1268.3 1204.19 1268.3 1204.19 1268.3 1204.19 1321.5 1111.08 1374.71 1017.97 1427.91 1111.08 1481.12 1204.19 1374.71 1204.19 1268.3 1204.19"/>
          <polygon class="cls-6" points="1161.89 1017.97 1215.09 1111.08 1268.3 1204.19 1161.89 1204.19 1055.48 1204.19 1055.48 1204.19 1055.48 1204.19 1108.69 1111.08 1161.89 1017.97"/>
          <polygon class="cls-6" points="1021.62 1144.94 1055.48 1204.19 949.07 1204.19 842.66 1204.19 895.87 1111.08 949.07 1017.97 1002.27 1111.08 1021.62 1144.94"/>
          <polygon class="cls-6" points="796.1 1122.72 842.65 1204.19 736.25 1204.19 629.84 1204.19 629.84 1204.19 683.04 1111.08 736.25 1017.97 789.45 1111.08 796.1 1122.72"/>
          <polygon class="cls-6" points="842.66 1017.97 949.07 1017.97 895.87 1111.08 842.66 1204.19 842.65 1204.19 796.1 1122.72 789.45 1111.08 736.25 1017.97 736.25 1017.97 842.65 1017.97 842.66 1017.97"/>
          <polygon class="cls-6" points="1055.48 1017.97 1161.89 1017.97 1108.68 1111.08 1055.48 1204.19 1055.48 1204.19 1021.62 1144.94 1002.27 1111.08 949.07 1017.97 949.07 1017.97 1055.48 1017.97 1055.48 1017.97"/>
          <polygon class="cls-6" points="1268.3 1017.97 1374.71 1017.97 1321.5 1111.08 1268.3 1204.19 1215.09 1111.08 1161.89 1017.97 1161.89 1017.97 1161.89 1017.97 1268.3 1017.97 1268.3 1017.97"/>
          <polygon class="cls-6" points="1481.12 1017.97 1587.53 1017.97 1534.32 1111.08 1481.12 1204.19 1427.91 1111.08 1374.71 1017.97 1374.71 1017.97 1374.71 1017.97 1481.12 1017.97 1481.12 1017.97"/>
          <polygon class="cls-8" points="842.65 831.75 842.66 831.75 789.45 924.87 736.25 1017.97 685.46 929.09 683.04 924.87 676.39 913.23 629.84 831.75 736.25 831.75 842.65 831.75"/>
          <polygon class="cls-8" points="789.43 924.87 736.23 1017.97 683.02 924.87 629.82 831.75 736.23 831.75 842.63 831.75 842.63 831.75 842.63 831.75 789.43 924.87"/>
          <polygon class="cls-6" points="1215.09 924.87 1161.89 1017.97 1112.23 931.07 1108.69 924.87 1102.04 913.23 1055.48 831.75 1161.89 831.75 1268.3 831.75 1268.3 831.75 1215.09 924.87"/>
          <polygon class="cls-10" points="1374.71 1017.97 1321.51 924.87 1302.16 891.01 1268.3 831.75 1374.71 831.75 1481.12 831.75 1427.91 924.87 1374.71 1017.97"/>
          <polygon class="cls-7" points="1481.12 1017.97 1481.12 1017.97 1374.71 1017.97 1427.91 924.87 1481.12 831.76 1481.12 831.75 1527.68 913.23 1534.33 924.87 1587.53 1017.97 1587.53 1017.97 1481.12 1017.97"/>
          <polygon class="cls-5" points="1021.62 772.5 1055.48 831.75 949.07 831.75 842.66 831.75 895.87 738.64 949.07 645.54 1002.27 738.64 1021.62 772.5"/>
          <polygon class="cls-7" points="808.77 772.5 842.63 831.75 736.23 831.75 629.82 831.75 683.02 738.64 736.23 645.54 789.43 738.64 808.77 772.5"/>
        </g>
        <polygon class="cls-7" points="1268.3 1017.97 1268.3 1017.97 1161.89 1017.97 1215.1 924.87 1268.3 831.75 1268.3 831.75 1302.16 891.01 1321.51 924.87 1374.71 1017.97 1374.71 1017.97 1268.3 1017.97"/>
        <polygon class="cls-7" points="1481.12 831.75 1481.12 831.75 1534.32 738.64 1587.53 645.54 1628.91 717.95 1640.73 738.64 1693.94 831.75 1587.53 831.75 1481.12 831.75"/>
        <polygon class="cls-7" points="1268.3 831.75 1268.3 831.75 1268.3 831.75 1321.5 738.64 1374.71 645.54 1427.91 738.64 1481.12 831.75 1374.71 831.75 1268.3 831.75"/>
        <polygon class="cls-7" points="842.66 831.75 842.65 831.75 796.1 750.28 789.45 738.64 736.25 645.54 842.65 645.54 949.07 645.54 895.87 738.64 842.66 831.75"/>
        <polygon class="cls-7" points="1055.48 831.75 1055.48 831.75 1021.62 772.5 1002.27 738.64 949.07 645.54 1055.48 645.54 1161.89 645.54 1108.68 738.64 1055.48 831.75"/>
        <polygon class="cls-11" points="1640.73 924.87 1587.53 1017.97 1534.33 924.87 1527.68 913.23 1481.12 831.75 1587.53 831.75 1693.94 831.75 1693.94 831.75 1640.73 924.87"/>
        <polygon class="cls-6" points="1055.48 831.75 1102.04 913.23 1108.69 924.87 1112.23 931.07 1161.89 1017.97 1161.89 1017.97 1161.89 1017.97 1055.48 1017.97 1055.48 1017.97 949.07 1017.97 1002.27 924.87 1055.48 831.75"/>
        <polygon class="cls-6" points="842.66 831.75 895.87 924.87 949.07 1017.97 949.07 1017.97 949.07 1017.97 842.66 1017.97 842.65 1017.97 736.25 1017.97 789.45 924.87 842.66 831.75"/>
        <polygon class="cls-6" points="1055.48 831.75 1055.48 831.75 1055.48 831.75 1108.69 738.64 1161.89 645.54 1215.09 738.64 1268.3 831.75 1161.89 831.75 1055.48 831.75"/>
        <polygon class="cls-6" points="796.1 750.28 842.65 831.75 736.25 831.75 629.84 831.75 629.84 831.75 683.04 738.64 736.25 645.54 789.45 738.64 796.1 750.28"/>
        <polygon class="cls-7" points="1268.3 831.75 1215.09 738.64 1161.89 645.54 1161.89 645.54 1268.3 645.54 1374.71 645.54 1321.5 738.64 1268.3 831.75"/>
        <polygon class="cls-6" points="1481.12 831.75 1427.91 738.64 1374.71 645.54 1374.71 645.54 1481.12 645.54 1587.53 645.54 1534.32 738.64 1481.12 831.75"/>
        <g class="cls-4">
          <polygon class="cls-6" points="373.19 382.64 416.99 459.32 310.59 459.32 204.18 459.32 204.18 459.32 257.38 366.21 310.59 273.1 363.79 366.21 373.19 382.64"/>
          <polygon class="cls-8" points="417 459.32 416.99 459.32 417 459.31 417 459.32"/>
          <polygon class="cls-5" points="310.59 459.32 417 459.32 363.79 552.43 310.59 645.53 310.58 645.54 266.77 568.86 257.38 552.43 204.18 459.32 204.18 459.32 310.58 459.32 310.59 459.32"/>
          <polygon class="cls-5" points="416.99 86.88 417 86.88 363.79 179.99 310.59 273.1 267.62 197.89 257.39 179.99 235.22 141.19 204.18 86.88 310.59 86.88 416.99 86.88"/>
          <polygon class="cls-5" points="416.99 86.88 417 86.87 417 86.88 416.99 86.88"/>
          <polygon class="cls-5" points="373.19 10.2 416.99 86.88 310.59 86.88 204.18 86.88 204.18 86.88 257.38 -6.23 310.59 -99.33 363.79 -6.23 373.19 10.2"/>
          <polygon class="cls-5" points="204.17 459.32 241.41 524.5 257.37 552.43 310.58 645.54 204.17 645.54 97.76 645.54 97.76 645.54 150.96 552.43 204.17 459.32"/>
          <polygon class="cls-6" points="-8.65 459.32 44.55 552.43 97.76 645.54 -8.65 645.54 -115.06 645.54 -115.06 645.54 -115.06 645.54 -61.86 552.43 -8.65 459.32"/>
          <polygon class="cls-5" points="-8.65 459.32 -8.65 459.31 -8.65 459.31 97.76 459.31 97.76 459.31 204.16 459.31 150.96 552.43 97.76 645.54 44.55 552.43 -8.65 459.32"/>
          <polygon class="cls-6" points="-86.41 323.24 -115.06 273.1 -8.65 273.1 97.76 273.1 44.55 366.21 -8.65 459.31 -61.85 366.21 -86.41 323.24"/>
          <polygon class="cls-12" points="141.57 349.78 97.76 273.1 204.17 273.1 310.58 273.1 310.58 273.1 257.37 366.21 204.17 459.31 150.97 366.21 141.57 349.78"/>
          <polygon class="cls-5" points="97.76 273.11 97.76 273.1 97.76 273.1 97.76 273.11"/>
          <polygon class="cls-5" points="97.76 273.11 97.76 273.1 141.57 349.78 150.97 366.21 204.17 459.31 204.16 459.31 97.76 459.31 97.76 459.31 -8.65 459.31 44.55 366.21 97.76 273.11"/>
          <polygon class="cls-5" points="204.17 86.89 241.41 152.06 257.37 179.99 310.58 273.1 204.17 273.1 97.76 273.1 97.76 273.1 150.96 179.99 204.17 86.89"/>
          <polygon class="cls-5" points="-61.86 179.99 -8.65 86.89 44.55 179.99 97.76 273.1 -8.65 273.1 -115.06 273.1 -115.06 273.1 -115.06 273.1 -61.86 179.99"/>
          <polygon class="cls-6" points="-8.65 86.89 -8.65 86.89 -8.65 86.89 97.76 86.89 97.76 86.89 204.16 86.89 150.96 179.99 97.76 273.1 44.55 179.99 -8.65 86.89"/>
          <polygon class="cls-8" points="-8.65 86.89 -61.85 -6.22 -81.2 -40.08 -115.06 -99.34 -8.65 -99.34 97.76 -99.34 44.55 -6.22 -8.65 86.89"/>
          <polygon class="cls-6" points="144.31 -17.86 97.76 -99.34 204.17 -99.34 310.58 -99.34 310.58 -99.34 257.37 -6.22 204.17 86.89 150.97 -6.22 144.31 -17.86"/>
          <polygon class="cls-5" points="97.76 86.89 97.76 86.89 -8.65 86.89 44.55 -6.22 97.76 -99.33 97.76 -99.34 144.31 -17.86 150.97 -6.22 204.17 86.89 204.16 86.89 97.76 86.89"/>
          <polygon class="cls-5" points="204.19 1204.17 204.19 1204.17 257.39 1111.06 310.6 1017.96 351.98 1090.37 363.8 1111.06 417 1204.17 310.6 1204.17 204.19 1204.17"/>
          <polygon class="cls-8" points="-8.63 1204.17 -8.63 1204.17 -8.64 1204.17 44.57 1111.06 97.78 1017.96 150.98 1111.06 204.19 1204.17 97.78 1204.17 -8.63 1204.17"/>
          <polygon class="cls-8" points="-8.63 1017.96 97.77 1017.96 44.57 1111.06 -8.64 1204.17 -61.84 1111.06 -115.04 1017.96 -115.05 1017.96 -115.04 1017.96 -8.64 1017.96 -8.63 1017.96"/>
          <polygon class="cls-8" points="204.19 1017.96 310.59 1017.96 257.39 1111.06 204.19 1204.17 150.98 1111.06 97.78 1017.96 97.77 1017.96 97.78 1017.96 204.19 1017.96 204.19 1017.96"/>
          <polygon class="cls-11" points="97.78 1017.96 44.57 924.85 25.22 890.99 -8.63 831.73 97.78 831.73 204.19 831.73 150.98 924.85 97.78 1017.96"/>
          <polygon class="cls-5" points="204.19 1017.96 204.19 1017.96 97.78 1017.96 150.98 924.85 204.19 831.74 204.19 831.73 250.74 913.21 257.39 924.85 310.6 1017.96 310.59 1017.96 204.19 1017.96"/>
        </g>
        <polygon class="cls-5" points="-8.63 1017.96 -8.64 1017.96 -115.04 1017.96 -61.84 924.85 -8.63 831.73 -8.63 831.73 25.22 890.99 44.57 924.85 97.78 1017.96 97.77 1017.96 -8.63 1017.96"/>
        <polygon class="cls-6" points="362.83 831.73 362.83 831.73 416.03 738.63 469.24 645.52 510.62 717.93 522.45 738.63 575.65 831.73 469.24 831.73 362.83 831.73"/>
        <polygon class="cls-5" points="-8.63 831.73 -8.63 831.73 -8.64 831.73 44.57 738.63 97.78 645.52 150.98 738.63 204.19 831.73 97.78 831.73 -8.63 831.73"/>
        <polygon class="cls-12" points="363.8 924.85 310.6 1017.96 257.39 924.85 250.74 913.21 204.19 831.73 310.6 831.73 417 831.73 417.01 831.73 363.8 924.85"/>
        <polygon class="cls-6" points="-8.64 831.73 -61.84 738.63 -115.04 645.52 -115.05 645.52 -8.64 645.52 97.77 645.52 44.57 738.63 -8.64 831.73"/>
        <polygon class="cls-6" points="204.19 831.73 150.98 738.63 97.78 645.52 97.77 645.52 204.19 645.52 310.59 645.52 257.39 738.63 204.19 831.73"/>
        <g class="cls-4">
          <polygon class="cls-5" points="1800.96 645.53 1800.95 645.53 1854.16 738.63 1907.37 831.74 1948.75 759.33 1960.57 738.63 2013.77 645.53 1907.37 645.53 1800.96 645.53"/>
          <polygon class="cls-6" points="1741.1 5.4 1694.55 86.88 1800.95 86.88 1907.36 86.88 1907.37 86.88 1854.16 -6.24 1800.95 -99.34 1747.75 -6.24 1741.1 5.4"/>
          <polygon class="cls-6" points="1694.55 86.87 1694.54 86.88 1694.55 86.88 1694.55 86.87"/>
          <polygon class="cls-5" points="1694.55 -99.34 1694.54 -99.34 1588.13 -99.34 1641.34 -6.24 1694.55 86.87 1694.55 86.88 1741.1 5.4 1747.75 -6.24 1800.95 -99.34 1800.95 -99.34 1694.55 -99.34"/>
          <polygon class="cls-5" points="1694.55 86.88 1694.54 86.88 1747.75 179.99 1800.95 273.09 1842.34 200.68 1854.16 179.99 1907.36 86.88 1800.95 86.88 1694.55 86.88"/>
          <polygon class="cls-8" points="1694.55 273.09 1800.95 273.09 1747.75 179.99 1694.54 86.88 1641.34 179.99 1588.13 273.09 1588.13 273.09 1588.13 273.09 1694.54 273.09 1694.55 273.09"/>
          <polygon class="cls-6" points="1694.55 459.31 1694.54 459.32 1694.55 459.32 1694.55 459.31"/>
          <polygon class="cls-13" points="1854.16 366.2 1800.95 273.09 1747.75 366.2 1741.1 377.84 1694.55 459.32 1800.95 459.32 1907.36 459.32 1907.37 459.32 1854.16 366.2"/>
          <polygon class="cls-5" points="1694.55 273.09 1694.54 273.09 1588.13 273.09 1641.34 366.2 1694.55 459.31 1694.55 459.32 1741.1 377.84 1747.75 366.2 1800.95 273.09 1800.95 273.09 1694.55 273.09"/>
          <polygon class="cls-5" points="1694.55 459.32 1694.54 459.32 1747.75 552.42 1800.95 645.53 1842.34 573.12 1854.16 552.42 1907.36 459.32 1800.95 459.32 1694.55 459.32"/>
          <polygon class="cls-6" points="1694.54 459.32 1641.34 552.42 1588.13 645.53 1588.13 645.53 1694.54 645.53 1800.95 645.53 1747.75 552.42 1694.54 459.32"/>
          <polygon class="cls-6" points="1694.55 1204.18 1694.54 1204.18 1747.74 1111.07 1800.95 1017.96 1842.34 1090.38 1854.16 1111.07 1907.36 1204.18 1800.95 1204.18 1694.55 1204.18"/>
          <polygon class="cls-8" points="1694.55 1017.96 1800.95 1017.96 1747.74 1111.07 1694.54 1204.18 1641.34 1111.07 1588.13 1017.96 1588.13 1017.96 1588.13 1017.96 1694.54 1017.96 1694.55 1017.96"/>
          <polygon class="cls-6" points="1694.55 831.75 1694.54 831.74 1694.55 831.74 1694.55 831.75"/>
          <polygon class="cls-6" points="1854.16 924.86 1800.95 1017.96 1747.75 924.86 1741.1 913.22 1694.55 831.74 1800.95 831.74 1907.36 831.74 1907.37 831.74 1854.16 924.86"/>
          <polygon class="cls-5" points="1694.55 1017.96 1694.54 1017.96 1588.13 1017.96 1641.34 924.86 1694.55 831.75 1694.55 831.74 1741.1 913.22 1747.75 924.86 1800.95 1017.96 1800.95 1017.96 1694.55 1017.96"/>
          <polygon class="cls-5" points="1694.55 831.74 1694.54 831.74 1747.74 738.63 1800.95 645.53 1842.34 717.94 1854.16 738.63 1907.36 831.74 1800.95 831.74 1694.55 831.74"/>
          <polygon class="cls-6" points="1694.54 831.74 1641.34 738.63 1588.13 645.53 1588.13 645.53 1694.54 645.53 1800.95 645.53 1747.74 738.63 1694.54 831.74"/>
          <polygon class="cls-5" points="1969.95 568.86 2013.76 645.54 1907.36 645.54 1800.94 645.54 1800.94 645.54 1854.15 552.43 1907.36 459.31 1960.56 552.43 1969.95 568.86"/>
          <polygon class="cls-6" points="2013.77 459.31 2120.18 459.31 2066.97 552.43 2013.77 645.53 2013.76 645.54 1969.95 568.86 1960.56 552.43 1907.36 459.31 1907.36 459.31 2013.76 459.31 2013.77 459.31"/>
          <polygon class="cls-5" points="2013.76 273.1 2013.77 273.1 1960.56 366.21 1907.36 459.31 1864.38 384.11 1854.15 366.21 1831.98 327.41 1800.94 273.1 1907.36 273.1 2013.76 273.1"/>
          <polygon class="cls-5" points="2013.77 273.1 2066.97 366.21 2120.18 459.31 2120.18 459.31 2120.18 459.31 2013.77 459.31 2013.76 459.31 1907.36 459.31 1960.56 366.21 2013.77 273.1"/>
          <polygon class="cls-5" points="1969.95 196.42 2013.76 273.1 1907.36 273.1 1800.94 273.1 1800.94 273.1 1854.15 179.99 1907.36 86.89 1960.56 179.99 1969.95 196.42"/>
          <polygon class="cls-5" points="2013.77 86.89 2120.18 86.89 2066.97 179.99 2013.77 273.09 2013.76 273.1 1969.95 196.42 1960.56 179.99 1907.36 86.89 1907.36 86.89 2013.76 86.89 2013.77 86.89"/>
          <polygon class="cls-5" points="2013.76 -99.34 2013.77 -99.34 1960.56 -6.22 1907.36 86.88 1856.57 -1.99 1854.15 -6.22 1847.5 -17.86 1800.94 -99.34 1907.36 -99.34 2013.76 -99.34"/>
          <polygon class="cls-6" points="2013.77 -99.34 2066.97 -6.22 2120.18 86.88 2120.18 86.89 2120.18 86.89 2013.77 86.89 2013.76 86.89 1907.36 86.89 1960.56 -6.22 2013.77 -99.34"/>
          <polygon class="cls-6" points="1907.37 1017.96 2013.77 1017.96 1960.57 1111.07 1907.36 1204.17 1907.36 1204.18 1863.55 1127.5 1854.16 1111.07 1800.95 1017.96 1800.95 1017.96 1907.36 1017.96 1907.37 1017.96"/>
          <polygon class="cls-6" points="1907.37 831.74 1960.57 924.86 2013.77 1017.96 2013.78 1017.96 2013.77 1017.96 1907.37 1017.96 1907.36 1017.96 1800.95 1017.96 1854.16 924.86 1907.37 831.74"/>
          <polygon class="cls-6" points="2073.64 1122.7 2120.19 1204.17 2013.79 1204.17 1907.37 1204.17 1907.37 1204.17 1960.58 1111.06 2013.79 1017.96 2066.99 1111.06 2073.64 1122.7"/>
          <polygon class="cls-6" points="2120.19 831.73 2120.2 831.73 2066.99 924.85 2013.79 1017.96 1963 929.08 1960.58 924.85 1953.93 913.21 1907.37 831.73 2013.79 831.73 2120.19 831.73"/>
        </g>
        <polygon class="cls-6" points="2073.64 750.26 2120.19 831.73 2013.79 831.73 1907.37 831.73 1907.37 831.73 1960.58 738.63 2013.79 645.52 2066.99 738.63 2073.64 750.26"/>
        <polygon class="cls-14" points="2013.79 771.2 2067 678.1 2078.82 657.4 2120.2 584.99 2120.21 584.99 2013.79 584.99 1907.38 584.99 1960.59 678.1 2013.79 771.2"/>
      </g>
      <g id="Color" class="cls-15">
        <polygon class="cls-6" points="1481.12 831.76 1481.12 831.75 1481.12 831.75 1481.12 831.76"/>
        <polygon class="cls-6" points="344.45 1084.41 310.6 1143.67 417 1143.67 523.41 1143.67 470.2 1050.56 417 957.46 363.8 1050.56 344.45 1084.41"/>
        <polygon class="cls-6" points="523.41 957.46 417 957.46 470.2 1050.56 523.41 1143.66 523.42 1143.67 569.96 1062.2 576.62 1050.56 629.82 957.46 629.82 957.46 523.42 957.46 523.41 957.46"/>
        <polygon class="cls-16" points="363.8 864.34 417 957.45 470.2 864.35 523.41 771.23 417 771.23 310.6 771.23 310.59 771.23 310.59 771.23 363.8 864.34"/>
        <polygon class="cls-16" points="523.41 771.23 470.2 864.35 417 957.45 416.99 957.46 417 957.46 523.41 957.46 523.42 957.46 629.82 957.46 576.62 864.35 523.41 771.23"/>
        <polygon class="cls-17" points="344.45 711.99 310.6 771.23 417 771.23 523.41 771.23 470.2 678.13 417 585.02 363.8 678.13 344.45 711.99"/>
        <polygon class="cls-17" points="523.41 771.23 523.42 771.23 569.96 689.76 576.62 678.13 629.82 585.02 523.42 585.02 417 585.02 470.2 678.13 523.41 771.23"/>
        <polygon class="cls-18" points="736.73 771.23 736.74 771.23 783.29 689.76 789.94 678.13 843.14 585.02 736.74 585.02 630.32 585.02 683.52 678.13 736.73 771.23"/>
        <polygon class="cls-6" points="949.07 1143.66 949.08 1143.66 895.87 1050.55 842.66 957.44 801.29 1029.86 789.47 1050.55 736.26 1143.66 842.66 1143.66 949.07 1143.66"/>
        <polygon class="cls-6" points="1161.89 1143.66 1161.89 1143.66 1161.9 1143.66 1108.69 1050.55 1055.49 957.44 1002.28 1050.55 949.08 1143.66 1055.49 1143.66 1161.89 1143.66"/>
        <polygon class="cls-6" points="1268.31 957.44 1215.1 1050.55 1161.9 1143.66 1268.31 1143.66 1374.71 1143.66 1374.72 1143.66 1374.72 1143.66 1321.51 1050.55 1268.31 957.44"/>
        <polygon class="cls-6" points="1408.58 1084.4 1374.72 1143.66 1481.13 1143.66 1587.54 1143.66 1534.33 1050.55 1481.13 957.44 1427.92 1050.55 1408.58 1084.4"/>
        <polygon class="cls-6" points="1587.54 957.44 1481.13 957.44 1534.33 1050.55 1587.54 1143.65 1587.54 1143.66 1634.09 1062.19 1640.74 1050.55 1693.95 957.44 1693.95 957.44 1587.54 957.44 1587.54 957.44"/>
        <polygon class="cls-6" points="1374.71 957.44 1268.31 957.44 1321.52 1050.55 1374.72 1143.66 1374.72 1143.66 1408.58 1084.4 1427.92 1050.55 1481.13 957.44 1481.12 957.44 1374.72 957.44 1374.71 957.44"/>
        <polygon class="cls-6" points="1161.89 957.44 1055.49 957.44 1108.69 1050.55 1161.9 1143.66 1215.1 1050.55 1268.31 957.44 1268.31 957.44 1268.31 957.44 1161.9 957.44 1161.89 957.44"/>
        <polygon class="cls-6" points="736.26 1143.66 789.47 1050.55 801.29 1029.86 842.66 957.44 842.67 957.44 842.66 957.44 736.26 957.44 736.25 957.44 629.85 957.44 683.05 1050.55 736.26 1143.66"/>
        <polygon class="cls-18" points="1427.92 864.33 1481.13 957.43 1534.33 864.34 1587.54 771.22 1481.13 771.22 1374.72 771.22 1374.72 771.22 1374.72 771.22 1427.92 864.33"/>
        <polygon class="cls-16" points="1215.1 864.33 1268.31 957.44 1317.97 870.54 1321.51 864.33 1328.16 852.7 1374.71 771.22 1268.31 771.22 1161.9 771.22 1161.89 771.22 1215.1 864.33"/>
        <polygon class="cls-17" points="1055.49 957.44 1108.69 864.33 1128.04 830.48 1161.89 771.22 1055.49 771.22 949.08 771.22 1002.28 864.33 1055.49 957.44"/>
        <polygon class="cls-7" points="949.08 771.23 949.08 771.22 949.07 771.22 949.08 771.23"/>
        <polygon class="cls-18" points="789.46 864.33 842.66 957.44 895.87 864.33 902.52 852.7 949.07 771.22 842.66 771.22 736.26 771.22 736.25 771.22 789.46 864.33"/>
        <polygon class="cls-17" points="736.26 957.44 842.66 957.44 789.46 864.34 736.25 771.23 736.25 771.22 691.56 849.44 683.05 864.34 629.85 957.44 629.85 957.44 736.25 957.44 736.26 957.44"/>
        <polygon class="cls-17" points="1161.89 957.44 1161.9 957.44 1268.31 957.44 1215.1 864.34 1161.89 771.22 1161.89 771.22 1128.04 830.48 1108.69 864.34 1055.49 957.44 1055.49 957.44 1161.89 957.44"/>
        <polygon class="cls-16" points="1374.71 771.22 1328.16 852.7 1321.51 864.34 1317.97 870.54 1268.31 957.44 1268.31 957.44 1268.31 957.44 1374.71 957.44 1374.72 957.44 1481.12 957.44 1427.92 864.34 1374.71 771.22"/>
        <polygon class="cls-7" points="1587.54 771.22 1534.33 864.34 1481.13 957.43 1481.12 957.44 1481.13 957.44 1587.54 957.44 1587.54 957.44 1693.95 957.44 1640.74 864.34 1587.54 771.22"/>
        <polygon class="cls-16" points="1161.89 771.22 1161.89 771.22 1161.9 771.22 1108.69 678.11 1055.49 585.01 1002.28 678.11 949.08 771.22 1055.49 771.22 1161.89 771.22"/>
        <polygon class="cls-16" points="1374.71 771.22 1374.72 771.22 1374.72 771.22 1321.51 678.11 1268.31 585.01 1215.1 678.11 1161.9 771.22 1268.31 771.22 1374.71 771.22"/>
        <polygon class="cls-7" points="1408.58 711.97 1374.72 771.22 1481.13 771.22 1587.54 771.22 1534.33 678.11 1481.13 585.01 1427.92 678.11 1408.58 711.97"/>
        <polygon class="cls-7" points="1587.54 771.22 1587.54 771.22 1634.09 689.75 1640.74 678.11 1693.95 585.01 1587.54 585.01 1481.13 585.01 1534.33 678.11 1587.54 771.22"/>
        <polygon class="cls-7" points="1374.72 771.22 1374.72 771.22 1408.58 711.97 1427.92 678.11 1481.13 585.01 1374.72 585.01 1268.31 585.01 1321.52 678.11 1374.72 771.22"/>
        <polygon class="cls-18" points="949.08 771.22 1002.28 678.11 1055.49 585.01 1055.49 585.01 949.08 585.01 842.67 585.01 895.87 678.11 949.08 771.22"/>
        <polygon class="cls-7" points="1587.53 398.79 1550.29 463.97 1534.33 491.9 1481.12 585.01 1587.53 585.01 1693.94 585.01 1693.94 585.01 1640.74 491.9 1587.53 398.79"/>
        <polygon class="cls-7" points="1656.68 277.77 1693.93 212.6 1693.93 212.59 1693.93 212.59 1587.52 212.59 1587.51 212.59 1481.11 212.59 1534.31 305.69 1587.52 398.81 1640.73 305.69 1656.68 277.77"/>
        <polygon class="cls-7" points="1587.51 26.38 1587.51 26.38 1546.14 98.8 1534.31 119.49 1481.11 212.59 1481.11 212.59 1587.51 212.59 1587.52 212.59 1693.93 212.59 1640.72 119.49 1587.51 26.38"/>
        <polygon class="cls-19" points="1587.52 26.38 1640.73 -66.73 1656.68 -94.67 1693.93 -159.84 1693.93 -159.84 1693.93 -159.84 1587.52 -159.84 1587.51 -159.84 1481.11 -159.84 1534.31 -66.73 1587.52 26.38"/>
        <polygon class="cls-7" points="736.24 398.81 698.99 463.98 683.04 491.92 629.83 585.02 736.24 585.02 842.65 585.02 842.65 585.02 789.45 491.92 736.24 398.81"/>
        <polygon class="cls-7" points="949.06 398.81 895.85 491.91 842.65 585.02 949.06 585.02 1055.47 585.02 1055.47 585.02 1055.47 585.02 1002.27 491.92 949.06 398.81"/>
        <polygon class="cls-17" points="1161.88 398.81 1108.67 491.91 1055.47 585.02 1161.88 585.02 1268.29 585.02 1268.29 585.02 1215.08 491.92 1161.88 398.81"/>
        <polygon class="cls-16" points="1374.7 398.8 1321.49 491.92 1296.94 534.89 1268.3 585.02 1374.7 585.02 1481.11 585.02 1427.9 491.92 1374.7 398.8"/>
        <polygon class="cls-20" points="1268.29 585.02 1268.3 585.02 1268.29 585.02 1268.29 585.02"/>
        <polygon class="cls-14" points="1481.11 585.02 1481.12 585.02 1481.11 585.02 1481.11 585.02"/>
        <polygon class="cls-16" points="1481.11 398.8 1374.7 398.8 1427.9 491.91 1481.11 585.02 1481.12 585.02 1524.93 508.35 1534.32 491.91 1587.52 398.8 1587.52 398.8 1481.12 398.8 1481.11 398.8"/>
        <polygon class="cls-16" points="1321.49 491.91 1374.7 398.8 1374.69 398.8 1268.3 398.8 1268.29 398.8 1161.88 398.8 1215.09 491.91 1268.29 585.02 1268.3 585.02 1296.94 534.89 1321.49 491.91"/>
        <polygon class="cls-7" points="1161.88 398.81 1161.88 398.8 1161.88 398.8 1055.47 398.8 1055.47 398.8 949.06 398.8 1002.27 491.91 1055.47 585.02 1108.67 491.91 1161.88 398.81"/>
        <polygon class="cls-7" points="949.06 398.81 949.06 398.8 949.06 398.8 842.65 398.8 842.65 398.8 736.24 398.8 789.45 491.91 842.65 585.02 895.85 491.91 949.06 398.81"/>
        <polygon class="cls-7" points="698.99 463.98 736.24 398.81 736.24 398.8 736.24 398.8 629.83 398.8 629.83 398.8 523.42 398.8 576.63 491.91 629.83 585.02 683.04 491.91 698.99 463.98"/>
        <polygon class="cls-18" points="1268.3 212.59 1268.29 212.59 1268.29 212.59 1321.49 305.69 1374.7 398.8 1427.9 305.7 1481.11 212.59 1374.7 212.59 1268.3 212.59"/>
        <polygon class="cls-18" points="1055.47 212.59 1055.47 212.59 1108.67 305.69 1161.88 398.8 1201.08 330.2 1215.08 305.7 1237.25 266.9 1268.29 212.59 1161.88 212.59 1055.47 212.59"/>
        <polygon class="cls-7" points="1026.82 262.73 1055.47 212.59 949.06 212.59 842.65 212.59 895.85 305.69 949.06 398.8 1002.26 305.69 1026.82 262.73"/>
        <polygon class="cls-7" points="798.83 289.26 842.65 212.59 736.24 212.59 629.83 212.59 629.83 212.59 683.03 305.69 736.24 398.8 789.44 305.69 798.83 289.26"/>
        <polygon class="cls-20" points="842.65 212.6 842.65 212.59 842.65 212.59 842.65 212.6"/>
        <polygon class="cls-7" points="629.83 212.59 629.83 212.59 588.45 285.01 576.62 305.7 523.42 398.8 523.42 398.8 629.83 398.8 629.83 398.8 736.24 398.8 683.03 305.7 629.83 212.59"/>
        <polygon class="cls-7" points="842.65 212.6 842.65 212.59 798.83 289.26 789.44 305.7 736.24 398.8 736.24 398.8 842.65 398.8 842.65 398.8 949.06 398.8 895.85 305.7 842.65 212.6"/>
        <polygon class="cls-7" points="1055.47 212.59 1055.47 212.59 1026.82 262.73 1002.26 305.7 949.06 398.8 949.06 398.8 1055.47 398.8 1055.47 398.8 1161.88 398.8 1108.67 305.7 1055.47 212.59"/>
        <polygon class="cls-18" points="1268.29 212.59 1237.25 266.9 1215.08 305.7 1201.08 330.2 1161.88 398.8 1161.88 398.8 1161.88 398.8 1268.29 398.8 1268.3 398.8 1374.69 398.8 1321.49 305.7 1268.29 212.59"/>
        <polygon class="cls-16" points="1481.11 212.59 1427.9 305.7 1374.7 398.8 1374.69 398.8 1374.7 398.8 1481.11 398.8 1481.12 398.8 1587.52 398.8 1534.32 305.7 1481.11 212.59"/>
        <polygon class="cls-20" points="736.24 26.37 698.99 91.55 683.04 119.48 629.83 212.59 736.24 212.59 842.65 212.59 842.65 212.59 789.45 119.48 736.24 26.37"/>
        <polygon class="cls-16" points="1002.27 119.48 949.06 26.37 895.85 119.48 842.65 212.59 949.06 212.59 1055.47 212.59 1055.47 212.59 1055.47 212.59 1002.27 119.48"/>
        <polygon class="cls-17" points="1161.88 26.37 1108.67 119.48 1055.47 212.59 1161.88 212.59 1268.29 212.59 1268.29 212.59 1215.08 119.48 1161.88 26.37"/>
        <polygon class="cls-17" points="1296.94 162.45 1268.3 212.59 1374.7 212.59 1481.11 212.59 1427.9 119.48 1374.7 26.37 1321.49 119.48 1296.94 162.45"/>
        <polygon class="cls-20" points="1481.12 212.59 1481.11 212.58 1481.11 212.59 1481.12 212.59"/>
        <polygon class="cls-17" points="1481.11 26.37 1374.7 26.37 1427.9 119.48 1481.11 212.58 1481.12 212.59 1524.93 135.91 1534.32 119.48 1587.52 26.37 1587.52 26.37 1481.12 26.37 1481.11 26.37"/>
        <polygon class="cls-17" points="1268.29 26.37 1161.88 26.37 1215.09 119.48 1268.29 212.59 1268.3 212.59 1296.94 162.45 1321.49 119.48 1374.7 26.37 1374.69 26.37 1268.3 26.37 1268.29 26.37"/>
        <polygon class="cls-17" points="1055.47 26.37 949.06 26.37 1002.27 119.48 1055.47 212.59 1108.67 119.48 1161.88 26.37 1161.88 26.37 1161.88 26.37 1055.47 26.37 1055.47 26.37"/>
        <polygon class="cls-21" points="949.06 26.37 949.06 26.37 949.06 26.37 842.65 26.37 842.65 26.37 736.24 26.37 789.45 119.48 842.65 212.59 895.85 119.48 949.06 26.37"/>
        <polygon class="cls-21" points="629.83 212.59 683.04 119.48 698.99 91.55 736.24 26.37 736.24 26.37 736.24 26.37 629.83 26.37 629.83 26.37 523.42 26.37 576.63 119.48 629.83 212.59"/>
        <polygon class="cls-17" points="1268.3 -159.85 1268.29 -159.85 1268.29 -159.85 1321.49 -66.74 1374.7 26.36 1427.9 -66.73 1481.11 -159.85 1374.7 -159.85 1268.3 -159.85"/>
        <polygon class="cls-17" points="1055.47 -159.85 1055.47 -159.85 1108.67 -66.74 1161.88 26.37 1211.54 -60.53 1215.08 -66.74 1221.73 -78.37 1268.29 -159.85 1161.88 -159.85 1055.47 -159.85"/>
        <polygon class="cls-20" points="949.06 26.37 1002.26 -66.74 1021.61 -100.59 1055.47 -159.85 949.06 -159.85 842.65 -159.85 895.85 -66.74 949.06 26.37"/>
        <polygon class="cls-16" points="796.09 -78.37 842.65 -159.85 736.24 -159.85 629.83 -159.85 629.83 -159.85 683.03 -66.74 736.24 26.37 789.44 -66.74 796.09 -78.37"/>
        <polygon class="cls-16" points="629.83 26.37 736.24 26.37 683.03 -66.73 629.83 -159.84 629.83 -159.85 585.14 -81.63 576.62 -66.73 523.42 26.37 523.42 26.37 629.83 26.37 629.83 26.37"/>
        <polygon class="cls-16" points="842.65 26.37 949.06 26.37 895.85 -66.73 842.65 -159.84 842.65 -159.85 796.09 -78.37 789.44 -66.73 736.24 26.37 736.24 26.37 842.65 26.37 842.65 26.37"/>
        <polygon class="cls-17" points="1055.47 -159.85 1055.47 -159.85 1021.61 -100.59 1002.26 -66.73 949.06 26.37 949.06 26.37 1055.47 26.37 1055.47 26.37 1161.88 26.37 1108.67 -66.73 1055.47 -159.85"/>
        <polygon class="cls-17" points="1268.29 -159.85 1221.73 -78.37 1215.08 -66.73 1211.54 -60.53 1161.88 26.37 1161.88 26.37 1161.88 26.37 1268.29 26.37 1268.3 26.37 1374.69 26.37 1321.49 -66.73 1268.29 -159.85"/>
        <polygon class="cls-17" points="1481.11 -159.85 1427.9 -66.73 1374.7 26.36 1374.69 26.37 1374.7 26.37 1481.11 26.37 1481.12 26.37 1587.52 26.37 1534.32 -66.73 1481.11 -159.85"/>
        <polygon class="cls-16" points="310.61 26.36 310.6 26.36 310.6 26.36 363.81 -66.74 417.01 -159.85 470.21 -66.75 523.42 26.36 417.01 26.36 310.61 26.36"/>
        <polygon class="cls-16" points="523.42 26.36 470.21 -66.75 417.01 -159.85 417.01 -159.86 417.01 -159.86 523.42 -159.86 523.43 -159.86 629.83 -159.86 576.63 -66.75 523.42 26.36"/>
        <polygon class="cls-16" points="344.46 85.62 310.61 26.36 417.01 26.36 523.42 26.36 470.21 119.47 417.01 212.58 363.81 119.47 344.46 85.62"/>
        <polygon class="cls-20" points="523.43 26.36 523.42 26.38 523.42 26.36 523.43 26.36"/>
        <polygon class="cls-21" points="523.42 212.58 417.01 212.58 470.21 119.47 523.42 26.38 523.43 26.36 569.98 107.83 576.63 119.47 629.83 212.58 629.83 212.58 523.43 212.58 523.42 212.58"/>
        <polygon class="cls-7" points="363.81 305.69 417.01 212.59 470.21 305.69 523.42 398.8 417.01 398.8 310.61 398.8 310.6 398.8 310.6 398.8 363.81 305.69"/>
        <polygon class="cls-7" points="523.42 398.8 470.21 305.69 417.01 212.59 417.01 212.58 417.01 212.58 523.42 212.58 523.43 212.58 629.83 212.58 576.63 305.69 523.42 398.8"/>
        <polygon class="cls-7" points="344.46 458.05 310.61 398.8 417.01 398.8 523.42 398.8 470.21 491.91 417.01 585.02 363.81 491.91 344.46 458.05"/>
        <polygon class="cls-7" points="523.42 398.8 523.43 398.8 569.98 480.27 576.63 491.91 629.83 585.02 523.43 585.02 417.01 585.02 470.21 491.91 523.42 398.8"/>
        <polygon class="cls-6" points="629.85 957.45 683.06 1050.55 694.88 1071.25 736.26 1143.66 736.27 1143.66 629.85 1143.66 523.45 1143.66 576.65 1050.55 629.85 957.45"/>
        <polygon class="cls-17" points="683.05 678.14 629.85 585.03 576.64 678.13 523.44 771.24 629.85 771.24 736.25 771.24 736.26 771.24 736.26 771.24 683.05 678.14"/>
        <polygon class="cls-17" points="702.4 830.49 736.25 771.24 629.85 771.24 523.44 771.24 576.64 864.35 629.85 957.46 683.05 864.35 702.4 830.49"/>
        <polygon class="cls-6" points="949.07 957.44 842.67 957.44 895.87 1050.55 949.08 1143.66 1002.28 1050.55 1055.49 957.44 1055.49 957.44 1055.49 957.44 949.08 957.44 949.07 957.44"/>
        <polygon class="cls-18" points="949.07 957.44 949.08 957.44 1055.49 957.44 1002.28 864.34 949.08 771.23 949.07 771.22 902.52 852.7 895.87 864.34 842.66 957.44 842.67 957.44 949.07 957.44"/>
        <polygon class="cls-18" points="949.07 771.22 949.08 771.22 895.87 678.11 842.66 585.01 801.29 657.42 789.47 678.11 736.26 771.22 842.66 771.22 949.07 771.22"/>
        <polygon class="cls-16" points="1161.9 771.22 1215.1 678.11 1268.31 585.01 1268.31 585.01 1161.9 585.01 1055.49 585.01 1108.69 678.11 1161.9 771.22"/>
        <polygon class="cls-6" points="204.19 831.74 204.19 831.73 204.19 831.73 204.19 831.74"/>
        <polygon class="cls-6" points="-8.62 957.43 -61.83 1050.53 -115.03 1143.64 -8.63 1143.64 97.78 1143.64 97.78 1143.64 97.78 1143.64 44.58 1050.53 -8.62 957.43"/>
        <polygon class="cls-7" points="131.65 1084.38 97.79 1143.64 204.19 1143.64 310.6 1143.64 257.4 1050.53 204.19 957.43 150.99 1050.53 131.65 1084.38"/>
        <polygon class="cls-7" points="310.6 957.43 204.19 957.43 257.4 1050.53 310.61 1143.63 310.61 1143.64 357.16 1062.17 363.81 1050.53 417.01 957.43 417.01 957.43 310.61 957.43 310.6 957.43"/>
        <polygon class="cls-7" points="97.78 957.43 -8.62 957.43 44.58 1050.53 97.79 1143.64 97.79 1143.64 131.65 1084.38 150.99 1050.53 204.19 957.43 204.19 957.43 97.79 957.43 97.78 957.43"/>
        <polygon class="cls-17" points="150.99 864.31 204.19 957.42 257.4 864.32 310.6 771.2 204.19 771.2 97.79 771.2 97.78 771.2 97.78 771.2 150.99 864.31"/>
        <polygon class="cls-7" points="-61.83 864.31 -8.63 957.43 41.03 870.52 44.58 864.31 51.23 852.68 97.78 771.2 -8.63 771.2 -115.03 771.2 -115.04 771.2 -61.83 864.31"/>
        <polygon class="cls-7" points="97.78 771.2 51.23 852.68 44.58 864.32 41.03 870.52 -8.63 957.43 -8.63 957.43 -8.62 957.43 97.78 957.43 97.79 957.43 204.19 957.43 150.99 864.32 97.78 771.2"/>
        <polygon class="cls-7" points="310.6 771.2 257.4 864.32 204.19 957.42 204.19 957.43 204.19 957.43 310.6 957.43 310.61 957.43 417.01 957.43 363.81 864.32 310.6 771.2"/>
        <polygon class="cls-17" points="97.78 771.2 97.78 771.2 97.78 771.2 44.58 678.1 -8.62 584.99 -61.83 678.1 -115.03 771.2 -8.63 771.2 97.78 771.2"/>
        <polygon class="cls-16" points="131.65 711.96 97.79 771.2 204.19 771.2 310.6 771.2 257.4 678.1 204.19 584.99 150.99 678.1 131.65 711.96"/>
        <polygon class="cls-16" points="310.61 771.2 310.61 771.2 357.16 689.73 363.81 678.1 417.01 584.99 310.61 584.99 204.19 584.99 257.4 678.1 310.61 771.2"/>
        <polygon class="cls-17" points="97.79 771.2 97.79 771.2 131.65 711.96 150.99 678.1 204.19 584.99 97.79 584.99 -8.62 584.99 44.58 678.1 97.79 771.2"/>
        <polygon class="cls-16" points="310.6 398.77 273.35 463.95 257.39 491.88 204.19 584.99 310.6 584.99 417 584.99 417.01 584.99 363.8 491.88 310.6 398.77"/>
        <polygon class="cls-7" points="379.75 277.75 416.99 212.58 417 212.57 416.99 212.57 310.58 212.57 310.58 212.57 204.18 212.57 257.38 305.68 310.58 398.79 363.79 305.68 379.75 277.75"/>
        <polygon class="cls-16" points="310.58 26.36 310.58 26.36 269.2 98.78 257.38 119.47 204.17 212.57 204.18 212.57 310.58 212.57 310.58 212.57 416.99 212.57 363.79 119.47 310.58 26.36"/>
        <polygon class="cls-16" points="310.58 26.36 363.79 -66.75 379.75 -94.68 416.99 -159.86 417 -159.86 416.99 -159.86 310.58 -159.86 310.58 -159.86 204.18 -159.86 257.38 -66.75 310.58 26.36"/>
        <polygon class="cls-16" points="97.77 398.78 44.56 491.9 20.01 534.87 -8.64 585.01 97.77 585.01 204.17 585.01 150.97 491.9 97.77 398.78"/>
        <polygon class="cls-14" points="204.17 585.01 204.18 585.01 204.18 585 204.17 585.01"/>
        <polygon class="cls-16" points="204.17 398.78 97.77 398.78 150.97 491.89 204.18 585 204.18 585.01 248 508.33 257.38 491.89 310.59 398.78 310.58 398.78 204.18 398.78 204.17 398.78"/>
        <polygon class="cls-18" points="44.56 491.89 97.77 398.78 97.76 398.78 -8.64 398.78 -8.65 398.78 -115.05 398.78 -61.85 491.89 -8.64 585 -8.64 585.01 20.01 534.87 44.56 491.89"/>
        <polygon class="cls-16" points="-8.64 212.57 -8.64 212.57 -8.65 212.57 44.56 305.68 97.77 398.78 150.97 305.69 204.17 212.57 97.77 212.57 -8.64 212.57"/>
        <polygon class="cls-17" points="-8.65 212.57 -39.68 266.88 -61.85 305.69 -75.85 330.18 -115.06 398.78 -115.06 398.78 -115.05 398.78 -8.65 398.78 -8.64 398.78 97.76 398.78 44.56 305.69 -8.65 212.57"/>
        <polygon class="cls-7" points="204.17 212.57 150.97 305.69 97.77 398.78 97.76 398.78 97.77 398.78 204.17 398.78 204.18 398.78 310.58 398.78 257.38 305.69 204.17 212.57"/>
        <polygon class="cls-18" points="20.01 162.43 -8.64 212.57 97.77 212.57 204.17 212.57 150.97 119.46 97.77 26.36 44.56 119.46 20.01 162.43"/>
        <polygon class="cls-20" points="204.18 212.57 204.18 212.56 204.17 212.57 204.18 212.57"/>
        <polygon class="cls-16" points="204.17 26.36 97.77 26.36 150.97 119.46 204.18 212.56 204.18 212.57 248 135.89 257.38 119.46 310.59 26.36 310.59 26.36 204.18 26.36 204.17 26.36"/>
        <polygon class="cls-16" points="-8.65 26.36 -115.05 26.36 -61.85 119.46 -8.64 212.57 -8.64 212.57 20.01 162.43 44.56 119.46 97.77 26.36 97.76 26.36 -8.64 26.36 -8.65 26.36"/>
        <polygon class="cls-16" points="-8.64 -159.87 -8.64 -159.87 -8.64 -159.87 44.56 -66.76 97.77 26.35 150.97 -66.75 204.17 -159.87 97.77 -159.87 -8.64 -159.87"/>
        <polygon class="cls-16" points="-8.65 -159.87 -55.2 -78.39 -61.85 -66.75 -65.39 -60.55 -115.06 26.36 -115.06 26.36 -115.05 26.36 -8.65 26.36 -8.64 26.36 97.76 26.36 44.56 -66.75 -8.65 -159.87"/>
        <polygon class="cls-16" points="204.17 -159.87 150.97 -66.75 97.77 26.35 97.76 26.36 97.77 26.36 204.17 26.36 204.18 26.36 310.59 26.36 257.38 -66.75 204.17 -159.87"/>
        <polygon class="cls-7" points="1621.99 1084.4 1588.13 1143.65 1694.53 1143.65 1800.94 1143.65 1747.74 1050.55 1694.53 957.44 1641.33 1050.55 1621.99 1084.4"/>
        <polygon class="cls-7" points="1800.94 957.44 1694.53 957.44 1747.74 1050.55 1800.95 1143.64 1800.95 1143.65 1847.5 1062.18 1854.15 1050.55 1907.36 957.44 1907.36 957.44 1800.95 957.44 1800.94 957.44"/>
        <polygon class="cls-18" points="1641.33 864.32 1694.53 957.43 1747.74 864.33 1800.94 771.22 1694.53 771.22 1588.13 771.22 1588.13 771.22 1588.13 771.22 1641.33 864.32"/>
        <polygon class="cls-18" points="1800.94 771.22 1747.74 864.33 1694.53 957.43 1694.53 957.44 1694.53 957.44 1800.94 957.44 1800.95 957.44 1907.36 957.44 1854.15 864.33 1800.94 771.22"/>
        <polygon class="cls-18" points="1621.99 711.97 1588.13 771.22 1694.53 771.22 1800.94 771.22 1747.74 678.11 1694.53 585 1641.33 678.11 1621.99 711.97"/>
        <polygon class="cls-18" points="1800.95 771.22 1800.95 771.22 1847.5 689.75 1854.15 678.11 1907.36 585 1800.95 585 1694.53 585 1747.74 678.11 1800.95 771.22"/>
        <polygon class="cls-17" points="2014.27 771.22 2014.27 771.22 2060.82 689.75 2067.47 678.11 2120.68 585 2014.27 585 1907.86 585 1961.06 678.11 2014.27 771.22"/>
        <polygon class="cls-6" points="2013.79 1143.64 2067 1050.53 2078.82 1029.84 2120.2 957.43 2120.21 957.43 2120.2 957.43 2013.79 957.43 2013.79 957.43 1907.38 957.43 1960.59 1050.53 2013.79 1143.64"/>
        <polygon class="cls-7" points="2013.79 957.43 2120.2 957.43 2067 864.32 2013.79 771.21 2013.79 771.2 1969.1 849.42 1960.59 864.32 1907.38 957.43 1907.38 957.43 2013.79 957.43 2013.79 957.43"/>
        <polygon class="cls-16" points="2013.77 398.79 1976.53 463.97 1960.57 491.9 1907.37 585.01 2013.77 585.01 2120.18 585.01 2120.19 585.01 2066.98 491.9 2013.77 398.79"/>
        <polygon class="cls-16" points="1976.53 463.97 2013.77 398.79 2013.78 398.78 2013.77 398.78 1907.37 398.78 1907.36 398.78 1800.96 398.78 1854.16 491.89 1907.37 585.01 1960.57 491.89 1976.53 463.97"/>
        <polygon class="cls-16" points="2076.37 289.25 2120.18 212.57 2013.77 212.57 1907.37 212.57 1907.36 212.57 1960.57 305.68 2013.77 398.78 2066.98 305.68 2076.37 289.25"/>
        <polygon class="cls-18" points="1907.36 212.57 1907.36 212.57 1865.98 284.99 1854.16 305.69 1800.95 398.78 1800.96 398.78 1907.36 398.78 1907.37 398.78 2013.77 398.78 1960.57 305.69 1907.36 212.57"/>
        <polygon class="cls-20" points="2013.77 26.36 1976.53 91.53 1960.57 119.46 1907.37 212.57 2013.77 212.57 2120.18 212.57 2120.19 212.57 2066.98 119.46 2013.77 26.36"/>
        <polygon class="cls-21" points="1907.37 212.57 1960.57 119.46 1976.53 91.53 2013.77 26.36 2013.78 26.36 2013.77 26.36 1907.37 26.36 1907.36 26.36 1800.96 26.36 1854.16 119.46 1907.37 212.57"/>
        <polygon class="cls-19" points="2073.63 -78.39 2120.18 -159.87 2013.77 -159.87 1907.37 -159.87 1907.36 -159.87 1960.57 -66.76 2013.77 26.36 2066.98 -66.76 2073.63 -78.39"/>
        <polygon class="cls-20" points="1907.37 26.36 2013.77 26.36 1960.57 -66.75 1907.36 -159.86 1907.36 -159.87 1862.67 -81.65 1854.16 -66.75 1800.95 26.36 1800.96 26.36 1907.36 26.36 1907.37 26.36"/>
        <polygon class="cls-19" points="1588.14 26.35 1588.14 26.35 1588.14 26.35 1641.34 -66.76 1694.55 -159.87 1747.75 -66.77 1800.95 26.35 1694.55 26.35 1588.14 26.35"/>
        <polygon class="cls-17" points="1800.95 26.35 1747.75 -66.77 1694.55 -159.87 1694.54 -159.88 1694.55 -159.88 1800.95 -159.88 1800.96 -159.88 1907.37 -159.88 1854.16 -66.77 1800.95 26.35"/>
        <polygon class="cls-20" points="1622 85.6 1588.14 26.35 1694.55 26.35 1800.95 26.35 1747.75 119.45 1694.55 212.56 1641.34 119.45 1622 85.6"/>
        <polygon class="cls-20" points="1800.96 26.35 1800.96 26.36 1800.95 26.35 1800.96 26.35"/>
        <polygon class="cls-21" points="1800.95 212.56 1694.55 212.56 1747.75 119.45 1800.96 26.36 1800.96 26.35 1847.51 107.82 1854.16 119.45 1907.37 212.56 1907.37 212.56 1800.96 212.56 1800.95 212.56"/>
        <polygon class="cls-16" points="1641.34 305.68 1694.55 212.57 1747.75 305.67 1800.95 398.78 1694.55 398.78 1588.14 398.78 1588.14 398.78 1588.14 398.78 1641.34 305.68"/>
        <polygon class="cls-16" points="1800.95 398.78 1747.75 305.67 1694.55 212.57 1694.54 212.56 1694.55 212.56 1800.95 212.56 1800.96 212.56 1907.37 212.56 1854.16 305.67 1800.95 398.78"/>
        <polygon class="cls-16" points="1622 458.03 1588.14 398.78 1694.55 398.78 1800.95 398.78 1747.75 491.89 1694.55 585 1641.34 491.89 1622 458.03"/>
        <polygon class="cls-18" points="1800.96 398.78 1800.96 398.78 1847.51 480.25 1854.16 491.89 1907.37 585 1800.96 585 1694.55 585 1747.75 491.89 1800.96 398.78"/>
        <polygon class="cls-6" points="1907.39 957.43 1960.6 1050.54 1972.42 1071.23 2013.8 1143.64 2013.8 1143.64 1907.39 1143.64 1800.98 1143.64 1854.18 1050.54 1907.39 957.43"/>
        <polygon class="cls-17" points="1960.59 678.12 1907.38 585.01 1854.18 678.11 1800.98 771.23 1907.38 771.23 2013.79 771.23 2013.79 771.23 2013.79 771.23 1960.59 678.12"/>
        <polygon class="cls-7" points="1979.93 830.47 2013.79 771.23 1907.38 771.23 1800.98 771.23 1854.18 864.33 1907.38 957.44 1960.59 864.33 1979.93 830.47"/>
      </g>
    </g>
    <g id="Text">
      <g id="Text_Group" data-name="Text Group">
        <text class="cls-22" transform="translate(456.24 306.51)"><tspan class="cls-23">W</tspan><tspan class="cls-24" x="39.51" y="0">e p</tspan><tspan class="cls-25" x="96.49" y="0">r</tspan><tspan class="cls-24" x="111.75" y="0">o</tspan><tspan class="cls-26" x="135.06" y="0">m</tspan><tspan class="cls-24" x="171.92" y="0">o</tspan><tspan class="cls-27" x="195.23" y="0">t</tspan><tspan class="cls-24" x="210.31" y="0">e </tspan><tspan class="cls-28" x="242.97" y="0">f</tspan><tspan class="cls-25" x="259.98" y="0">r</tspan><tspan class="cls-24" x="275.24" y="0">eedom. </tspan><tspan class="cls-29" x="424.58" y="0">F</tspan><tspan class="cls-30" x="446.38" y="0">r</tspan><tspan class="cls-31" x="459.96" y="0">eedom </tspan><tspan class="cls-31"><tspan x="0" y="42">of association, </tspan><tspan class="cls-32" x="255.43" y="42">f</tspan><tspan class="cls-33" x="270.09" y="42">r</tspan><tspan x="283.67" y="42">eedom of assembl</tspan><tspan class="cls-34" x="607.21" y="42">y</tspan><tspan x="624.99" y="42">, </tspan><tspan x="0" y="84">a</tspan><tspan class="cls-35" x="20.65" y="84">n</tspan><tspan x="44.41" y="84">d </tspan><tspan class="cls-36" x="77.31" y="84">f</tspan><tspan class="cls-37" x="91.98" y="84">r</tspan><tspan x="105.56" y="84">eedom of </tspan><tspan class="cls-38" x="282.8" y="84">e</tspan><tspan x="303.41" y="84">xp</tspan><tspan class="cls-37" x="345.83" y="84">r</tspan><tspan x="359.41" y="84">ession. Our </tspan><tspan class="cls-38" x="0" y="126">w</tspan><tspan x="30.24" y="126">o</tspan><tspan class="cls-39" x="52.19" y="126">r</tspan><tspan x="65.94" y="126">k suppo</tspan><tspan class="cls-40" x="206.22" y="126">r</tspan><tspan x="220.78" y="126">ts civil socie</tspan><tspan class="cls-41" x="426.68" y="126">t</tspan><tspan class="cls-34" x="440.54" y="126">y</tspan><tspan x="458.32" y="126">, civic </tspan><tspan class="cls-42" x="0" y="168">p</tspan><tspan x="23.63" y="168">a</tspan><tspan class="cls-40" x="44.28" y="168">r</tspan><tspan x="58.83" y="168">tici</tspan><tspan class="cls-43" x="111.58" y="168">p</tspan><tspan x="135.2" y="168">ation, a</tspan><tspan class="cls-44" x="262.36" y="168">n</tspan><tspan x="286.12" y="168">d philanth</tspan><tspan class="cls-37" x="467.52" y="168">r</tspan><tspan x="481.1" y="168">o</tspan><tspan class="cls-38" x="503.05" y="168">p</tspan><tspan x="526.25" y="168">y </tspan><tspan x="0" y="210">in </tspan><tspan class="cls-45" x="42.28" y="210">c</tspan><tspan x="61.67" y="210">ount</tspan><tspan class="cls-39" x="145.07" y="210">r</tspan><tspan x="158.83" y="210">ies a</tspan><tspan class="cls-37" x="236.32" y="210">r</tspan><tspan x="249.9" y="210">ou</tspan><tspan class="cls-35" x="295.4" y="210">n</tspan><tspan x="319.16" y="210">d t</tspan><tspan class="cls-35" x="366.27" y="210">h</tspan><tspan x="390.03" y="210">e </tspan><tspan class="cls-38" x="420.34" y="210">w</tspan><tspan x="450.58" y="210">o</tspan><tspan class="cls-39" x="472.53" y="210">r</tspan><tspan x="486.28" y="210">ld.</tspan></tspan></text>
        <g class="cls-46">
          <image width="3360" height="5240" transform="translate(159.13 7.29) scale(0.5)" xlink:href="../screencapture-staging-icnl-org-2018-10-07-18_01_47.png"/>
        </g>
        <text class="cls-47" transform="translate(1074.5 658.55)">69</text>
        <text class="cls-48" transform="translate(1072.41 697.73)"><tspan class="cls-49">C</tspan><tspan class="cls-50" x="13.14" y="0">SO Sustainabili</tspan><tspan x="152.96" y="0">t</tspan><tspan class="cls-50" x="160.41" y="0">y </tspan><tspan class="cls-50"><tspan x="0" y="19">I</tspan><tspan class="cls-51" x="5.76" y="19">n</tspan><tspan x="18.25" y="19">d</tspan><tspan class="cls-52" x="30.71" y="19">e</tspan><tspan class="cls-53" x="41.63" y="19">x </tspan><tspan class="cls-54" x="56.77" y="19">r</tspan><tspan x="64.12" y="19">epo</tspan><tspan class="cls-55" x="99.38" y="19">r</tspan><tspan class="cls-53" x="107.21" y="19">ts </tspan></tspan><tspan class="cls-53"><tspan x="0" y="38">p</tspan><tspan class="cls-54" x="12.46" y="38">r</tspan><tspan x="19.8" y="38">odu</tspan><tspan class="cls-56" x="56.23" y="38">c</tspan><tspan class="cls-50" x="66.55" y="38">ed</tspan></tspan></text>
        <text class="cls-57" transform="translate(1396.83 658.51)">9</text>
        <text class="cls-58" transform="translate(1394.74 697.68)"><tspan class="cls-59">C<tspan class="cls-60" x="12.8" y="0">ount</tspan><tspan class="cls-61" x="56.84" y="0">r</tspan><tspan class="cls-53" x="64.28" y="0">ies </tspan><tspan class="cls-56" x="94.9" y="0">c</tspan><tspan class="cls-62" x="105.21" y="0">ov</tspan><tspan class="cls-50" x="126.52" y="0">e</tspan><tspan class="cls-63" x="137.72" y="0">r</tspan><tspan class="cls-50" x="145.06" y="0">ed </tspan></tspan><tspan class="cls-50"><tspan x="0" y="19">in our Philanth</tspan><tspan class="cls-63" x="138.69" y="19">r</tspan><tspan class="cls-53" x="146.03" y="19">o</tspan><tspan class="cls-52" x="157.64" y="19">p</tspan><tspan x="169.83" y="19">y </tspan></tspan><tspan class="cls-64" x="0" y="38">L</tspan><tspan x="10.93" y="38">a</tspan><tspan class="cls-53" x="21.69" y="38">w Repo</tspan><tspan class="cls-55" x="91.6" y="38">r</tspan><tspan class="cls-53" x="99.43" y="38">ts se</tspan><tspan class="cls-61" x="141.68" y="38">r</tspan><tspan class="cls-50" x="149.11" y="38">ies</tspan></text>
        <text class="cls-47" transform="translate(750.24 658.51)">3,9<tspan class="cls-65" x="89.46" y="0">4</tspan><tspan x="128.28" y="0">7</tspan></text>
        <text class="cls-66" transform="translate(750.18 697.68)">Docu<tspan class="cls-64" x="49.48" y="0">m</tspan><tspan class="cls-50" x="68.74" y="0">ents in our </tspan><tspan x="0" y="19">onli</tspan><tspan class="cls-64" x="34.45" y="19">n</tspan><tspan x="46.94" y="19">e lib</tspan><tspan class="cls-56" x="86.02" y="19">r</tspan><tspan x="93.44" y="19">a</tspan><tspan class="cls-55" x="104.38" y="19">r</tspan><tspan class="cls-67" x="112.21" y="19">y</tspan><tspan class="cls-50" x="121.86" y="19">, </tspan><tspan class="cls-68" x="131.15" y="19">f</tspan><tspan class="cls-54" x="139.12" y="19">r</tspan><tspan x="146.46" y="19">om </tspan><tspan class="cls-52"><tspan x="0" y="38">ov</tspan><tspan class="cls-53" x="21.31" y="38">er </tspan><tspan class="cls-69" x="45.09" y="38">2</tspan><tspan class="cls-53" x="55.55" y="38">00 </tspan><tspan class="cls-70" x="84.94" y="38">c</tspan><tspan class="cls-53" x="95.26" y="38">ount</tspan><tspan class="cls-71" x="139.3" y="38">r</tspan><tspan class="cls-53" x="146.73" y="38">ies</tspan></tspan></text>
        <text class="cls-72" transform="translate(451.24 664.64)">64</text>
        <text class="cls-73" transform="translate(451.24 703.82)"><tspan class="cls-50">Bills anal</tspan><tspan x="83.16" y="0">y</tspan><tspan class="cls-56" x="93.22" y="0">z</tspan><tspan class="cls-50" x="102.63" y="0">ed in</tspan><tspan class="cls-53"><tspan x="0" y="19">our US </tspan><tspan class="cls-74" x="67.35" y="19">P</tspan><tspan class="cls-63" x="80.19" y="19">r</tspan><tspan x="87.53" y="19">o</tspan><tspan class="cls-75" x="99.14" y="19">t</tspan><tspan x="106.45" y="19">est</tspan></tspan><tspan class="cls-64" x="0" y="38">L</tspan><tspan x="10.93" y="38">a</tspan><tspan class="cls-53" x="21.69" y="38">w </tspan><tspan class="cls-76" x="43.07" y="38">T</tspan><tspan class="cls-56" x="53.59" y="38">r</tspan><tspan class="cls-64" x="61" y="38">a</tspan><tspan class="cls-61" x="72" y="38">c</tspan><tspan class="cls-77" x="82.33" y="38">k</tspan><tspan class="cls-50" x="93.2" y="38">er</tspan></text>
      </g>
    </g>
  </g>
</svg>
