<svg xmlns="http://www.w3.org/2000/svg" viewBox="0 0 2000 1216.02">
  <defs>
    <style>
      .cls-1 {
        isolation: isolate;
      }

      .cls-2 {
        opacity: 0.3;
      }

      .cls-23, .cls-3, .cls-32 {
        fill: #fff;
      }

      .cls-4 {
        fill: #8e8e8d;
      }

      .cls-5 {
        fill: #cecece;
      }

      .cls-6 {
        mix-blend-mode: multiply;
      }

      .cls-11, .cls-33, .cls-35, .cls-7 {
        fill: #efedf0;
      }

      .cls-34, .cls-8 {
        fill: #016f87;
      }

      .cls-9 {
        fill: #13b1d3;
      }

      .cls-10 {
        fill: #ffa454;
      }

      .cls-11, .cls-23, .cls-27 {
        font-size: 18px;
        font-family: Montserrat-Medium, Montserrat;
      }

      .cls-12 {
        letter-spacing: -0.01em;
      }

      .cls-13 {
        letter-spacing: 0.01em;
      }

      .cls-14 {
        letter-spacing: 0em;
      }

      .cls-15 {
        letter-spacing: 0.01em;
      }

      .cls-16 {
        letter-spacing: 0em;
      }

      .cls-17 {
        letter-spacing: 0em;
      }

      .cls-18 {
        letter-spacing: 0.01em;
      }

      .cls-19 {
        letter-spacing: 0em;
      }

      .cls-20 {
        letter-spacing: 0em;
      }

      .cls-21 {
        letter-spacing: 0.01em;
      }

      .cls-22 {
        letter-spacing: 0.02em;
      }

      .cls-24 {
        letter-spacing: 0.01em;
      }

      .cls-25 {
        letter-spacing: 0.01em;
      }

      .cls-26 {
        letter-spacing: 0em;
      }

      .cls-27 {
        fill: #1f497d;
      }

      .cls-28 {
        letter-spacing: -0.01em;
      }

      .cls-29 {
        letter-spacing: -0.01em;
      }

      .cls-30 {
        letter-spacing: 0em;
      }

      .cls-31 {
        letter-spacing: -0.01em;
      }

      .cls-32, .cls-33, .cls-34 {
        font-size: 60px;
        font-family: Montserrat-Bold, Montserrat;
      }

      .cls-32, .cls-33, .cls-34, .cls-36 {
        font-weight: 700;
      }

      .cls-35 {
        font-size: 35px;
        font-family: Montserrat-ExtraBold, Montserrat;
      }

      .cls-37 {
        letter-spacing: -0.05em;
      }

      .cls-38 {
        letter-spacing: -0.01em;
      }

      .cls-39 {
        letter-spacing: 0.01em;
      }

      .cls-40 {
        letter-spacing: -0.02em;
      }

      .cls-41 {
        letter-spacing: 0.08em;
      }

      .cls-42 {
        font-size: 30px;
        font-family: Vollkorn-Regular, Vollkorn;
      }

      .cls-43 {
        letter-spacing: -0.03em;
      }

      .cls-44 {
        letter-spacing: 0.1em;
      }

      .cls-45 {
        letter-spacing: -0.01em;
      }

      .cls-46 {
        letter-spacing: -0.01em;
      }

      .cls-47 {
        letter-spacing: -0.09em;
      }

      .cls-48 {
        letter-spacing: -0.02em;
      }

      #number1 {
      
      -moz-transform-origin: 451.12px 574.21px;
          -ms-transform-origin:  451.12px 574.21px;
          -o-transform-origin: 451.12px 574.21px;
          -webkit-transform-origin:  451.12px 574.21px;
          transform-origin: 451.12px 574.21px;
        -webkit-animation: fade-in 1s cubic-bezier(0.390, 0.575, 0.565, 1.000) 1 both;
                animation: fade-in 1s cubic-bezier(0.390, 0.575, 0.565, 1.000) 1 both;
      }

      #white1 {
          -moz-transform-origin: 585.83px 502.71px;
          -ms-transform-origin:  585.83px 502.71px;
          -o-transform-origin: 585.83px 502.71px;
          -webkit-transform-origin:  585.83px 502.71px;
          transform-origin: 585.83px 502.71px;
          -webkit-animation: slit-in-diagonal-1 0.3s ease-out 1.2s both;
          animation: slit-in-diagonal-2 0.3s ease-out 1.2s both;
      }

      #white2 {

      -moz-transform-origin: 649.13px 613.48px;
          -ms-transform-origin:  649.13px 613.48px;
          -o-transform-origin: 649.13px 613.48px;
          -webkit-transform-origin:  649.13px 613.48px;
          transform-origin: 649.13px 613.48px;
         -webkit-animation: slit-in-diagonal-1 0.3s ease-out 1.4s both;
          animation: slit-in-diagonal-1 0.3s ease-out 1.4s both;
      }



        #white3 {

      -moz-transform-origin: 717.26px 613.48px;
          -ms-transform-origin:  717.26px 613.48px;
          -o-transform-origin: 717.26px 613.48px;
          -webkit-transform-origin:  717.26px 613.48px;
          transform-origin: 717.26px 613.48px;
         -webkit-animation: slit-in-diagonal-1 0.3s ease-out 1.6s both;
          animation: slit-in-diagonal-1 0.3s ease-out 1.6s both;
      }

      #text1 {
         -moz-transform-origin: 585.98px 542.97px;
          -ms-transform-origin:  585.98px 542.97px;
          -o-transform-origin: 585.98px 542.97px;
          -webkit-transform-origin:  585.98px 542.97px;
          transform-origin: 585.98px 542.97px;
         -webkit-animation: slit-in-diagonal-1 0.3s ease-out 1.4s both;
          animation: slit-in-diagonal-1 0.3s ease-out 1.4s both;
        }

    #number2 {

      -moz-transform-origin: 839.98px 574.21px;
          -ms-transform-origin:  839.98px 574.21px;
          -o-transform-origin: 839.98px 574.21px;
          -webkit-transform-origin:  839.98px 574.21px;
          transform-origin: 839.98px 574.21px;
        -webkit-animation: fade-in 1s cubic-bezier(0.390, 0.575, 0.565, 1.000) 2s both;
                animation: fade-in 1s cubic-bezier(0.390, 0.575, 0.565, 1.000) 2s both;
      }


      #aqua1 {
          -moz-transform-origin: 975.29px 502.71px;
          -ms-transform-origin:  975.29px 502.71px;
          -o-transform-origin: 975.29px 502.71px;
          -webkit-transform-origin:  975.29px 502.71px;
          transform-origin: 975.29px 502.71px;
          -webkit-animation: slit-in-diagonal-1 0.3s ease-out 2.2s both;
          animation: slit-in-diagonal-2 0.3s ease-out 2.2s both;
      }

      #aqua2 {

      -moz-transform-origin: 1038.59px 613.48px;
          -ms-transform-origin:  1038.59px 613.48px;
          -o-transform-origin: 1038.59px 613.48px;
          -webkit-transform-origin:  1038.59px 613.48px;
          transform-origin: 1038.59px 613.48px;
         -webkit-animation: slit-in-diagonal-1 0.3s ease-out 2.4s both;
          animation: slit-in-diagonal-1 0.3s ease-out 2.4s both;
      }



        #aqua3 {

      -moz-transform-origin: 1170.03px 613.48px;
          -ms-transform-origin:  1170.03px 613.48px;
          -o-transform-origin: 1170.03px 613.48px;
          -webkit-transform-origin:  1170.03px 613.48px;
          transform-origin: 1170.03px 613.48px;
         -webkit-animation: slit-in-diagonal-1 0.3s ease-out 2.6s both;
          animation: slit-in-diagonal-1 0.3s ease-out 2.6s both;
      }

      #text2 {
         -moz-transform-origin: 973.98px 542.97px;
          -ms-transform-origin:  973.98px 542.97px;
          -o-transform-origin: 973.98px 542.97px;
          -webkit-transform-origin:  973.98px 542.97px;
          transform-origin: 973.98px 542.97px;
         -webkit-animation: slit-in-diagonal-1 0.3s ease-out 2.4s both;
          animation: slit-in-diagonal-1 0.3s ease-out 2.4s both;
        }


        #number3{

        -moz-transform-origin:         1247.38px 574.21px;
          -ms-transform-origin:          1247.38px 574.21px;
          -o-transform-origin:         1247.38px 574.21px;
          -webkit-transform-origin:          1247.38px 574.21px;
          transform-origin:         1247.38px 574.21px;
            -webkit-animation: fade-in 1s cubic-bezier(0.390, 0.575, 0.565, 1.000) 3s both;
                    animation: fade-in 1s cubic-bezier(0.390, 0.575, 0.565, 1.000) 3s both;
          }


              #orange1 {
          -moz-transform-origin: 1301.48px 502.71px;
          -ms-transform-origin:  1301.48px 502.71px;
          -o-transform-origin: 1301.48px 502.71px;
          -webkit-transform-origin:  1301.48px 502.71px;
          transform-origin: 1301.48px 502.71px;
          -webkit-animation: slit-in-diagonal-1 0.3s ease-out 3.2s both;
          animation: slit-in-diagonal-2 0.3s ease-out 3.2s both;
      }

      #orange2 {

      -moz-transform-origin: 1428.06px 613.48px;
          -ms-transform-origin:  1428.06px 613.48px;
          -o-transform-origin: 1428.06px 613.48px;
          -webkit-transform-origin:  1428.06px 613.48px;
          transform-origin: 1428.06px 613.48px;
         -webkit-animation: slit-in-diagonal-1 0.3s ease-out 3.4s both;
          animation: slit-in-diagonal-1 0.3s ease-out 3.4s both;
      }


        #orange3 {

      -moz-transform-origin: 1559.51px 613.48px;
          -ms-transform-origin:  1559.51px 613.48px;
          -o-transform-origin: 1559.51px 613.48px;
          -webkit-transform-origin:  1559.51px 613.48px;
          transform-origin: 1559.51px 613.48px;
         -webkit-animation: slit-in-diagonal-1 0.3s ease-out 3.6s both;
          animation: slit-in-diagonal-1 0.3s ease-out 3.6s both;
      }

      #text3 {
         -moz-transform-origin: 1365.98px 542.97px;
          -ms-transform-origin:  1365.98px 542.97px;
          -o-transform-origin: 1365.98px 542.97px;
          -webkit-transform-origin:  1365.98px 542.97px;
          transform-origin: 1365.98px 542.97px;
         -webkit-animation: slit-in-diagonal-1 0.3s ease-out 3.4s both;
          animation: slit-in-diagonal-1 0.3s ease-out 3.4s both;
        }


      /* ----------------------------------------------
       * Generated by Animista on 2018-10-11 19:36:25
       * w: http://animista.net, t: @cssanimista
       * ---------------------------------------------- */

      /**
       * ----------------------------------------
       * animation slit-in-diagonal-1
       * ----------------------------------------
       */
      @-webkit-keyframes slit-in-diagonal-1 {
        0% {
          -webkit-transform: translateZ(-800px) rotate3d(1, 1, 0, 90deg);
                  transform: translateZ(-800px) rotate3d(1, 1, 0, 90deg);
          -webkit-animation-timing-function: ease-in;
                  animation-timing-function: ease-in;
          opacity: 0;
        }
        54% {
          -webkit-transform: translateZ(-160px) rotate3d(1, 1, 0, 87deg);
                  transform: translateZ(-160px) rotate3d(1, 1, 0, 87deg);
          -webkit-animation-timing-function: ease-in-out;
                  animation-timing-function: ease-in-out;
          opacity: 1;
        }
        100% {
          -webkit-transform: translateZ(0) rotate3d(1, 1, 0, 0);
                  transform: translateZ(0) rotate3d(1, 1, 0, 0);
          -webkit-animation-timing-function: ease-out;
                  animation-timing-function: ease-out;
        }
      }
      @keyframes slit-in-diagonal-1 {
        0% {
          -webkit-transform: translateZ(-800px) rotate3d(1, 1, 0, 90deg);
                  transform: translateZ(-800px) rotate3d(1, 1, 0, 90deg);
          -webkit-animation-timing-function: ease-in;
                  animation-timing-function: ease-in;
          opacity: 0;
        }
        54% {
          -webkit-transform: translateZ(-160px) rotate3d(1, 1, 0, 87deg);
                  transform: translateZ(-160px) rotate3d(1, 1, 0, 87deg);
          -webkit-animation-timing-function: ease-in-out;
                  animation-timing-function: ease-in-out;
          opacity: 1;
        }
        100% {
          -webkit-transform: translateZ(0) rotate3d(1, 1, 0, 0);
                  transform: translateZ(0) rotate3d(1, 1, 0, 0);
          -webkit-animation-timing-function: ease-out;
                  animation-timing-function: ease-out;
        }
      }

       * ----------------------------------------
       * animation slit-in-diagonal-2
       * ----------------------------------------
       */
        @-webkit-keyframes slit-in-diagonal-2 {
          0% {
            -webkit-transform: translateZ(-800px) rotate3d(-1, 1, 0, -90deg);
                    transform: translateZ(-800px) rotate3d(-1, 1, 0, -90deg);
            -webkit-animation-timing-function: ease-in;
                    animation-timing-function: ease-in;
            opacity: 0;
          }
          54% {
            -webkit-transform: translateZ(-160px) rotate3d(-1, 1, 0, -87deg);
                    transform: translateZ(-160px) rotate3d(-1, 1, 0, -87deg);
            -webkit-animation-timing-function: ease-in-out;
                    animation-timing-function: ease-in-out;
            opacity: 1;
          }
          100% {
            -webkit-transform: translateZ(0) rotate3d(-1, 1, 0, 0);
                    transform: translateZ(0) rotate3d(-1, 1, 0, 0);
            -webkit-animation-timing-function: ease-out;
                    animation-timing-function: ease-out;
          }
        }
        @keyframes slit-in-diagonal-2 {
          0% {
            -webkit-transform: translateZ(-800px) rotate3d(-1, 1, 0, -90deg);
                    transform: translateZ(-800px) rotate3d(-1, 1, 0, -90deg);
            -webkit-animation-timing-function: ease-in;
                    animation-timing-function: ease-in;
            opacity: 0;
          }
          54% {
            -webkit-transform: translateZ(-160px) rotate3d(-1, 1, 0, -87deg);
                    transform: translateZ(-160px) rotate3d(-1, 1, 0, -87deg);
            -webkit-animation-timing-function: ease-in-out;
                    animation-timing-function: ease-in-out;
            opacity: 1;
          }
          100% {
            -webkit-transform: translateZ(0) rotate3d(-1, 1, 0, 0);
                    transform: translateZ(0) rotate3d(-1, 1, 0, 0);
            -webkit-animation-timing-function: ease-out;
                    animation-timing-function: ease-out;
          }
        }

/* ----------------------------------------------
 * Generated by Animista on 2018-10-11 20:33:43
 * w: http://animista.net, t: @cssanimista
 * ---------------------------------------------- */

      /**
       * ----------------------------------------
       * animation fade-in
       * ----------------------------------------
       */
      @-webkit-keyframes fade-in {
        0% {
          opacity: 0;
        }
        100% {
          opacity: 1;
        }
      }
      @keyframes fade-in {
        0% {
          opacity: 0;
        }
        100% {
          opacity: 1;
        }
      }

      




    </style>
  </defs>
  <title>Artboard 2a</title>
  <g class="cls-1">
      <g id="background">
      <g id="bw" opacity=".3">
        <path class="cls-3" d="M2046.35 1124.66l97.37-170.39 97.37 170.39 97.36 170.39H1948.98l97.37-170.39z"/>
        <path class="cls-4" d="M1754.25 954.27l97.37 170.39 97.36 170.39H1559.51l97.37-170.39 97.37-170.39z"/>
        <path class="cls-3" d="M1507.08 1203.29l52.43 91.76h-389.46l97.36-170.39 97.37-170.39 97.37 170.39 44.93 78.63z"/>
        <path class="cls-4" d="M1089.86 1154.72l80.17 140.33H780.57l97.37-170.39 97.37-170.39 97.37 170.39 17.18 30.06z"/>
        <path class="cls-4" d="M1170.05 954.27h194.73l-97.37 170.39-97.37 170.37-.01.02-80.17-140.33-17.18-30.06-97.37-170.39h194.74zM1559.52 954.27h194.72l-97.36 170.39-97.37 170.39-52.43-91.76-44.93-78.63-97.37-170.39H1559.52z"/>
        <path class="cls-5" d="M1948.99 954.27h194.72l-97.36 170.39-97.37 170.39-97.36-170.39-97.37-170.39h-.01H1948.99z"/>
        <path class="cls-3" d="M1170.03 613.47h.02l-97.37 170.41-97.37 170.37-92.94-162.63-4.42-7.74-12.18-21.3-85.2-149.11H1170.03zM1559.51 613.47l-97.36 170.41-97.37 170.37-97.37-170.37-97.36-170.41h389.46zM1948.98 613.47h.01l-97.37 170.41-97.37 170.39-90.88-159.04-6.49-11.35-12.17-21.3-85.19-149.11h389.46z"/>
        <path class="cls-5" d="M2143.72 954.27l-97.36-170.39-35.41-61.97-61.96-108.44h389.46l-97.36 170.41-97.37 170.39z"/>
        <path class="cls-5" d="M1948.99 613.47l61.96 108.44 35.41 61.97 97.36 170.39H1754.25l97.37-170.39 97.37-170.41z"/>
        <path class="cls-4" d="M1559.52 613.47l85.19 149.11 12.17 21.3 6.49 11.35 90.88 159.04h-389.46l97.36-170.39 97.37-170.41z"/>
        <path class="cls-3" d="M1170.05 613.47l97.36 170.41 97.37 170.37.01.02H975.31l97.37-170.39 97.37-170.41z"/>
        <path class="cls-5" d="M1948.99 613.47h-.01l97.37-170.39 97.37-170.39 97.37 170.39 97.36 170.39h-389.46z"/>
        <path class="cls-4" d="M1754.25 272.69l97.37 170.39 97.36 170.39H1559.51l97.37-170.39 97.37-170.39z"/>
        <path class="cls-3" d="M1497.55 505.05l61.96 108.42h-389.46l97.36-170.39 97.37-170.39 97.37 170.39 35.4 61.97zM1084.85 464.38l85.18 149.09H780.57l97.37-170.39 97.37-170.39 97.37 170.39 12.17 21.3z"/>
        <path class="cls-5" d="M1170.05 272.69h194.73l-97.37 170.39-97.37 170.39h-.01l-85.18-149.09-12.17-21.3-97.37-170.39h194.74z"/>
        <path class="cls-3" d="M1559.52 272.69h194.72l-97.36 170.39-97.37 170.39-61.96-108.42-35.4-61.97-97.37-170.39H1559.52z"/>
        <path class="cls-4" d="M1948.99 272.69h194.72l-97.36 170.39-97.37 170.39-97.36-170.39-97.37-170.39h-.01H1948.99z"/>
        <path class="cls-5" d="M1170.03-68.1h.02l-97.37 170.41-97.37 170.38-92.94-162.65-4.42-7.73-12.18-21.3-85.2-149.11H1170.03zM1462.15 102.31l-97.37 170.38-97.37-170.38-97.36-170.41h389.46l-97.36 170.41z"/>
        <path class="cls-3" d="M1851.62 102.31l-97.37 170.38-90.88-159.03-6.49-11.35-12.17-21.3-85.19-149.11H1948.99l-97.37 170.41z"/>
        <path class="cls-4" d="M2143.72 272.69l-97.36-170.38-35.41-61.97-61.96-108.44h389.46l-97.36 170.41-97.37 170.38z"/>
        <path class="cls-4" d="M1948.99 272.69H1754.25l97.37-170.38 97.37-170.41 61.96 108.44 35.41 61.97 97.36 170.38h-194.73z"/>
        <path class="cls-3" d="M1559.52-68.1l85.19 149.11 12.17 21.3 6.49 11.35 90.88 159.03h-389.46l97.36-170.38 97.37-170.41z"/>
        <path class="cls-5" d="M1170.05-68.1l97.36 170.41 97.37 170.38h.01-389.48l97.37-170.38 97.37-170.41zM196.35 954.26h.01l-97.38 170.41-97.36 170.39-90.88-159.04-6.49-11.35-12.17-21.3-85.19-149.11h389.46z"/>
        <path class="cls-3" d="M391.09 1295.06l-97.37-170.39-35.41-61.97-61.95-108.44h389.46l-97.37 170.41-97.36 170.39zM671.02 1103.37l-85.19-149.11h389.46l-97.37 170.41-97.36 170.39-97.37-170.39-12.17-21.3z"/>
        <path class="cls-3" d="M585.83 954.28l-.01-.02h.01v.02z"/>
        <path class="cls-4" d="M585.83 1295.06H391.09l97.36-170.39 97.38-170.39v-.02l85.19 149.11 12.17 21.3 97.37 170.39H585.83z"/>
        <path class="cls-3" d="M196.36 954.26l61.95 108.44 35.41 61.97 97.37 170.39H1.62l97.37-170.39 97.37-170.41z"/>
        <path class="cls-4" d="M-193.11 954.26l85.19 149.11 12.17 21.3 6.49 11.35 90.88 159.04h-389.46l97.35-170.39 97.38-170.41zM585.83 954.26h-.01l97.36-170.39 97.38-170.39L856.29 746l21.63 37.87 97.37 170.39H585.83z"/>
        <path class="cls-3" d="M196.36 954.26h-.01l97.36-170.39 97.38-170.39 97.36 170.39 97.37 170.39H196.36z"/>
        <path class="cls-4" d="M1.62 613.48l97.36 170.39 97.37 170.39H-193.12l97.37-170.39L1.62 613.48z"/>
        <path class="cls-3" d="M-193.11 613.48H1.61l-97.37 170.39-97.36 170.39-61.97-108.42-35.4-61.97-97.36-170.39H-193.11z"/>
        <path class="cls-5" d="M196.36 613.48h194.72l-97.37 170.39-97.36 170.39-97.37-170.39L1.62 613.48h-.01H196.36z"/>
        <path class="cls-3" d="M585.83 613.48h194.72l-97.37 170.39-97.36 170.39-97.37-170.39-97.36-170.39h-.01H585.83z"/>
        <path class="cls-5" d="M98.98 443.09L1.62 613.48l-90.88-159.04-6.49-11.35-12.17-21.3-85.19-149.1H196.36l-97.38 170.4z"/>
        <path class="cls-5" d="M391.09 613.48l-97.37-170.39-35.41-61.96-61.95-108.44h389.46l-97.37 170.4-97.36 170.39z"/>
        <path class="cls-3" d="M585.83 272.7l-.01-.01h.01v.01z"/>
        <path class="cls-3" d="M877.92 443.09l-97.36 170.39-97.37-170.39-12.17-21.3-85.19-149.1h389.46l-97.37 170.4z"/>
        <path class="cls-3" d="M585.83 613.48H391.09l97.36-170.39 97.38-170.39v-.01l85.19 149.1 12.17 21.3 97.37 170.39H585.83z"/>
        <path class="cls-4" d="M196.36 613.48H1.62l97.37-170.39 97.37-170.4 61.95 108.44 35.41 61.96 97.37 170.39H196.36z"/>
        <path class="cls-3" d="M-193.11 272.69l85.19 149.1 12.17 21.3 6.49 11.35L1.62 613.48h-389.46l97.35-170.39 97.38-170.4z"/>
        <path class="cls-5" d="M585.83 272.69h-.01l97.36-170.39 97.38-170.39 75.73 132.52 21.63 37.87 97.37 170.39H585.83zM196.36 272.69h-.01l97.36-170.39 97.38-170.39 97.36 170.39 97.37 170.39H196.36zM-193.11 272.69h-.01l97.37-170.39L1.62-68.09 98.98 102.3l97.37 170.39h-389.46z"/>
        <path class="cls-4" d="M-193.12 272.69l-61.97-108.43-35.4-61.96-97.36-170.39H1.61L-95.76 102.3l-97.36 170.39zM196.35 272.69L98.98 102.3 1.62-68.09h-.01 389.47L293.71 102.3l-97.36 170.39z"/>
        <path class="cls-5" d="M585.82 272.69L488.45 102.3 391.09-68.09h-.01 389.47L683.18 102.3l-97.36 170.39z"/>
      </g>
      <g id="color" style="mix-blend-mode:multiply">
        <path class="cls-7" d="M1754.24 1184.29h-.01l97.37 170.38 97.37 170.39 71.75-125.55 25.62-44.82 40.56-71.01 56.8-99.39h-389.46zM1701.8 1276.04l52.43-91.75H1364.77l97.36 170.38 97.38 170.39 97.36-170.39 44.93-78.63zM1284.58 1324.61l80.18-140.32H975.29l97.37 170.38 97.37 170.39 97.36-170.39 17.19-30.06z"/>
        <path class="cls-8" d="M1364.77 1184.3v-.01h-.01l.01.01z"/>
        <path class="cls-7" d="M975.29 1184.29l-75.72 132.53-21.64 37.87-97.37 170.37H1170.03l-97.37-170.37-97.37-170.4zM1364.77 1184.3l-.01-.01-80.18 140.32-17.19 30.08-97.36 170.37h389.48l-97.38-170.37-97.36-170.39zM1754.23 1184.29l-52.43 91.75-44.93 78.65-97.36 170.37h389.46l-97.37-170.37-97.37-170.4z"/>
        <path class="cls-7" d="M2143.7 1184.29l-56.8 99.39-40.56 71.01-25.62 44.82-71.75 125.55H2338.43l-97.36-170.37-97.37-170.4zM1170.03 843.5l-68.16 119.28-29.2 51.11-97.37 170.4H1364.77l-97.37-170.4-97.37-170.39zM1656.87 1013.89l-97.36-170.39-97.38 170.39-97.36 170.4h389.47l-97.37-170.4z"/>
        <path class="cls-7" d="M1948.97 843.5l-97.37 170.39-97.36 170.4H2143.71l-97.37-170.4-97.37-170.39z"/>
        <path class="cls-8" d="M2143.7 843.5h-194.72l97.36 170.39 97.37 170.4h.01l52.42-91.76 44.93-78.64 97.37-170.39H2143.7z"/>
        <path class="cls-7" d="M1754.23 843.5h-194.72l97.36 170.39 97.37 170.4 97.36-170.4 97.37-170.39h.01H1754.23zM1559.51 843.5h-389.47l97.36 170.39 97.37 170.4 97.36-170.4 97.38-170.39z"/>
        <path class="cls-7" d="M975.3 1184.29l97.37-170.4 29.2-51.11 68.16-119.28h.01H780.57l97.36 170.39 97.37 170.4zM975.3 843.5h194.73l-97.37-170.38-97.37-170.39v-.02l-81.78 143.14-15.58 27.27-97.37 170.38H975.3zM196.36 1184.28L99 1354.67 1.63 1525.06H391.1l-97.37-170.39-97.37-170.39zM443.53 1433.31l-52.42 91.75h389.45l-97.36-170.39-97.37-170.39-97.36 170.39-44.94 78.64z"/>
        <path class="cls-7" d="M780.56 1184.28H585.83l97.37 170.39 97.37 170.38.01.01 80.18-140.32 17.18-30.07 97.36-170.39H780.56zM391.09 1184.28H196.37l97.37 170.39 97.36 170.39h.01l52.42-91.75 44.94-78.64 97.36-170.39H391.09zM1.62 1184.28H-193.1l97.37 170.39 97.36 170.39L99 1354.67l97.36-170.39h.01H1.62zM391.11 843.49h-.01l97.37 170.39 97.36 170.39 97.37-170.38 97.36-170.4H391.11zM1.63 843.49h-.01L99 1013.88l97.36 170.4 90.88-159.03 6.49-11.37 12.17-21.28 85.19-149.11H1.63z"/>
        <path class="cls-8" d="M-193.1 1184.28l97.36-170.4 35.41-61.95L1.62 843.49H-387.84l97.36 170.39 97.38 170.4z"/>
        <path class="cls-7" d="M1.62 843.49l-61.95 108.44-35.41 61.96-97.36 170.39h389.46L99 1013.89 1.62 843.49zM391.09 843.49L305.9 992.6l-12.17 21.29-6.49 11.36-90.88 159.03h389.47l-97.36-170.39-97.38-170.4zM780.56 843.49l-97.36 170.4-97.37 170.38v.01H975.3l-97.36-170.39-97.38-170.4z"/>
        <path class="cls-9" d="M453.07 735.05l-61.96 108.44h389.45L683.2 673.1l-97.37-170.39-97.36 170.39-35.4 61.95z"/>
        <path class="cls-8" d="M780.58 843.49l-.01-.02-.01.02h.02z"/>
        <path class="cls-7" d="M391.09 502.71H196.37l97.37 170.39 97.37 170.39 61.96-108.44 35.4-61.95 97.36-170.39H391.09z"/>
        <path class="cls-8" d="M1.62 502.71H196.36L99 332.32 1.62 161.91l-61.95 108.45-35.41 61.96-97.36 170.39H1.62z"/>
        <path class="cls-7" d="M1.62 161.91h.01L-95.73-8.47l-97.37-170.39-97.37 170.39-97.37 170.38H1.62z"/>
        <path class="cls-10" d="M975.3 502.71h-.01l97.37 170.39 97.37 170.4 97.36-170.4 12.18-21.28 85.19-149.11H975.3z"/>
        <path class="cls-8" d="M1364.77-178.85l-.01-.01H975.29l97.37 170.39 97.37 170.4 97.36-170.4 12.18-21.29-12.18 21.3-97.36 170.39h389.48L1462.13-8.46l-97.36-170.39z"/>
        <path class="cls-10" d="M-193.1 502.71l-97.37 170.39-97.37 170.39H1.63L-95.73 673.1l-97.37-170.39zM196.37 502.71L99 673.1 1.63 843.49H391.1L293.73 673.1l-97.36-170.39zM-60.33 270.36L1.62 161.91H-387.84l97.36 170.39 97.38 170.41 97.36-170.41 35.41-61.94z"/>
        <g>
          <path class="cls-8" d="M1.6300000000000239 502.71H-193.1l97.37 170.39L1.63 843.49 99 673.1l97.37-170.39h389.46L683.2 673.1l97.37 170.37 85.2-149.07 12.17-21.3 97.36-170.39h389.46l-85.19 149.11-12.17 21.3-97.4 170.39h1168.4l-194.7-340.8 97.36 170.39 97.37 170.39 97.36-170.37 97.37-170.41h-389.44l194.72-340.79-194.72-340.78h-778.95L1072.66-8.46l-97.37-170.39-97.36-170.4-97.38-170.39-68.15 119.27-29.2 51.12-97.38 170.39H196.36l52.4-91.73 44.94-78.65 97.37-170.39H1.6L99-349.24l97.36 170.38H-193.1L-95.73-8.47 1.63 161.91m1848 507.68l2 3.51 2.13 3.72zM-387.85 502.71h-194.72l97.37 170.39-97.38-170.39h-389.46l97.37 170.39 97.36 170.39 97.37 170.39 97.36 170.4 97.37-170.4 12.17-21.28-12.17 21.29-97.37 170.39h.01l97.37 170.39 97.36 170.39H1.63l-97.36-170.39-97.37-170.39-97.38-170.39-97.36-170.39v-.01l97.37-170.39 97.37-170.39h-194.75z"/>
        </g>
      </g>
    </g>
    <g id="animated">
      <g id="orange3">
        <polygon class="cls-10" points="1496.21 502.71 1497.55 505.05 1559.51 613.47 1622.81 502.71 1559.51 502.71 1496.21 502.71"/>
      </g>
      <g id="orange2">
        <polygon class="cls-10" points="1496.21 502.71 1364.77 502.71 1428.06 613.47 1559.51 613.47 1497.55 505.05 1496.21 502.71"/>
      </g>
      <g id="orange1">
        <polygon class="cls-10" points="1364.76 502.71 1301.48 613.47 1364.78 613.47 1428.05 613.47 1364.77 502.73 1364.76 502.71"/>
      </g>
      <polygon class="cls-10" points="1233.34 502.71 1170.05 613.47 1301.48 613.47 1364.76 502.71 1233.34 502.71"/>
      <g id="aqua3">
        <polygon class="cls-9" points="1106.75 502.71 1170.03 613.47 1170.04 613.47 1233.34 502.71 1170.03 502.71 1106.75 502.71"/>
      </g>
      <g id="aqua2">
        <polygon class="cls-9" points="975.3 502.71 975.3 502.72 1038.59 613.47 1170.03 613.47 1106.75 502.71 975.3 502.71"/>
      </g>
      <g id="aqua1">
        <polygon class="cls-9" points="912.01 613.47 975.31 613.47 1038.58 613.47 975.29 502.73 912.01 613.47"/>
      </g>
      <polygon id="aquastart" class="cls-9" points="975.3 502.71 843.86 502.71 780.57 613.48 912.01 613.48 975.31 502.71 975.3 502.71"/>
      <polygon id="white3" class="cls-7" points="780.56 502.71 717.26 502.71 780.56 613.48 843.85 502.71 780.58 502.71 780.56 502.71"/>
      <polygon id="white1" class="cls-7" points="522.53 613.48 585.82 613.48 585.83 613.48 649.13 613.48 585.83 502.71 522.53 613.48"/>
      <polygon id="white2" class="cls-7" points="585.83 502.71 649.13 613.48 780.55 613.48 780.56 613.48 717.26 502.71 585.83 502.71"/>
      <polygon id="white_start" data-name="white start" class="cls-7" points="585.82 502.71 454.38 502.71 391.09 613.48 522.53 613.48 585.83 502.71 585.82 502.71"/>
      <g id="text3">"
      <text class="cls-11" transform="translate(1365.98 542.97)"><tspan class="cls-12">Countries covered </tspan><tspan class="cls-18"><tspan x="0" y="19">in our Philanthropy </tspan></tspan><tspan class="cls-21" x="0" y="38">Law Reports series</tspan></text></g>
      <g id="text2"><text class="cls-23" transform="translate(973.98 542.97)"><tspan class="cls-24">C</tspan><tspan class="cls-18" x="13.14" y="0">SO Sustainabili</tspan><tspan x="152.96" y="0">t</tspan><tspan class="cls-18" x="160.41" y="0">y </tspan><tspan class="cls-18"><tspan x="0" y="19">I</tspan><tspan class="cls-25" x="5.76" y="19">n</tspan><tspan x="18.25" y="19">d</tspan><tspan class="cls-20" x="30.71" y="19">e</tspan><tspan class="cls-15" x="41.63" y="19">x </tspan><tspan class="cls-26" x="56.77" y="19">r</tspan><tspan x="64.12" y="19">epo</tspan><tspan class="cls-22" x="99.38" y="19">r</tspan><tspan class="cls-15" x="107.21" y="19">ts </tspan></tspan><tspan class="cls-15"><tspan x="0" y="38">p</tspan><tspan class="cls-26" x="12.46" y="38">r</tspan><tspan x="19.8" y="38">odu</tspan><tspan class="cls-16" x="56.23" y="38">c</tspan><tspan class="cls-18" x="66.55" y="38">ed</tspan></tspan></text></g>
      <g id="text1">
      <text class="cls-27" transform="translate(585.98 542.97)"><tspan class="cls-18">Bills anal</tspan><tspan x="83.16" y="0">y</tspan><tspan class="cls-16" x="93.22" y="0">z</tspan><tspan class="cls-18" x="102.63" y="0">ed in</tspan><tspan class="cls-15"><tspan x="0" y="19">our US </tspan><tspan class="cls-28" x="67.35" y="19">P</tspan><tspan class="cls-19" x="80.19" y="19">r</tspan><tspan x="87.53" y="19">o</tspan><tspan class="cls-29" x="99.14" y="19">t</tspan><tspan x="106.45" y="19">est</tspan></tspan><tspan class="cls-21" x="0" y="38">L</tspan><tspan x="10.93" y="38">a</tspan><tspan class="cls-15" x="21.69" y="38">w </tspan><tspan class="cls-30" x="43.07" y="38">T</tspan><tspan class="cls-16" x="53.59" y="38">r</tspan><tspan class="cls-21" x="61" y="38">a</tspan><tspan class="cls-14" x="72" y="38">c</tspan><tspan class="cls-31" x="82.33" y="38">k</tspan><tspan class="cls-18" x="93.2" y="38">er</tspan></text>
      </g>
    </g>
    <g id="Text">
      <g id="number1"><text class="cls-34" transform="translate(451.12 574.21)">64</text></g>
      <g id="number2"><text class="cls-32" transform="translate(839.98 574.21)">69</text></g>
      <g id="number3"><text class="cls-33" transform="translate(1247.38 574.21)">9</text></g>
      <text class="cls-35" transform="translate(453.98 196.09)"><tspan class="cls-36"><tspan class="cls-37">W</tspan><tspan x="39.51" y="0">e p</tspan><tspan class="cls-38" x="96.49" y="0">r</tspan><tspan x="111.75" y="0">o</tspan><tspan class="cls-39" x="135.06" y="0">m</tspan><tspan x="171.92" y="0">o</tspan><tspan class="cls-40" x="195.23" y="0">t</tspan><tspan x="210.31" y="0">e </tspan><tspan class="cls-41" x="242.97" y="0">f</tspan><tspan class="cls-38" x="259.98" y="0">r</tspan><tspan x="275.24" y="0">eedom. </tspan></tspan><tspan class="cls-42"><tspan class="cls-43" x="0" y="48">F</tspan><tspan x="15.93" y="48">reedom o</tspan><tspan class="cls-44" x="138.33" y="48">f</tspan><tspan x="151.59" y="48" xml:space="preserve"> associ</tspan><tspan class="cls-45" x="236.61" y="48">a</tspan><tspan x="251.1" y="48">tion, freedom o</tspan><tspan class="cls-44" x="450.95" y="48">f</tspan><tspan x="464.21" y="48" xml:space="preserve"> assem</tspan><tspan x="551.6" y="48">-</tspan><tspan class="cls-46" x="0" y="84">b</tspan><tspan x="16.11" y="84">l</tspan><tspan class="cls-47" x="25.08" y="84">y</tspan><tspan x="38.61" y="84">, and freedom o</tspan><tspan class="cls-44" x="240.81" y="84">f</tspan><tspan x="254.07" y="84" xml:space="preserve"> expression. Our</tspan><tspan class="cls-43" x="466.97" y="84"> </tspan><tspan class="cls-46" x="472.07" y="84">w</tspan><tspan x="494.99" y="84">ork </tspan><tspan x="0" y="120">supports civil societ</tspan><tspan class="cls-47" x="260.31" y="120">y</tspan><tspan x="273.84" y="120">, civic particip</tspan><tspan class="cls-48" x="458.21" y="120">a</tspan><tspan x="472.7" y="120">tion, </tspan><tspan x="0" y="156">and </tspan><tspan class="cls-46" x="55.77" y="156">p</tspan><tspan x="72.66" y="156">hilanthro</tspan><tspan class="cls-46" x="198.33" y="156">p</tspan><tspan class="cls-43" x="215.22" y="156">y</tspan><tspan x="230.55" y="156" xml:space="preserve"> in countries around the </tspan><tspan class="cls-46" x="0" y="192">w</tspan><tspan x="22.92" y="192">orld.</tspan></tspan></text>
    </g>
  </g>
</svg>
