
<svg xmlns="http://www.w3.org/2000/svg" xmlns:xlink="http://www.w3.org/1999/xlink" viewBox="0 0 2000.27 1134.18">
  <defs>
    <style>
      .cls-12,.cls-4{opacity:.3}.cls-11,.cls-5{fill:#8e8e8d}.cls-12,.cls-14,.cls-16,.cls-17,.cls-18,.cls-19,.cls-20,.cls-21,.cls-5,.cls-6,.cls-7,.cls-8{mix-blend-mode:multiply}.cls-47,.cls-6{fill:#fff}.cls-7{fill:#efedf0}.cls-8{fill:#cfcfce}.cls-12{fill:#333}.cls-14{fill:#efedef}.cls-16{fill:#016f87}.cls-17{fill:#f9a357}.cls-18{fill:#13b1d3}.cls-19{fill:#16b1d3}.cls-20{fill:#056f87}.cls-21{fill:#036f87}.cls-24,.cls-25,.cls-47{font-weight:700}.cls-25{letter-spacing:-.01em}.cls-31{font-family:Montserrat-Regular,Montserrat}.cls-37{letter-spacing:-.01em}.cls-34{letter-spacing:-.03em}.cls-35{letter-spacing:0}.cls-38,.cls-39{letter-spacing:-.01em}.cls-40{letter-spacing:.01em}.cls-47{font-size:60px;font-family:Montserrat-Bold,Montserrat}.cls-50{letter-spacing:.01em}.cls-52{letter-spacing:0}.cls-53{letter-spacing:.01em}.cls-54{letter-spacing:0}.cls-55{letter-spacing:.02em}.cls-56,.cls-61,.cls-63{letter-spacing:0}.cls-64{letter-spacing:.01em}#Color polygon{transform:rotateY(180deg)}







    </style>
    
    <clipPath id="clip-path">
      <path fill="none" d="M414.13 30.41h322.6v87h-322.6z"/>
    </clipPath>
  </defs>
  <g style="isolation:isolate">
    <g id="Tiles">
      <g id="Gray" opacity=".3">
        <g class="cls-4">
          <path class="cls-5" d="M523.42 645.55l53.2 93.1 53.21 93.11 41.38-72.41 11.82-20.7 53.21-93.1H523.42z"/>
          <path class="cls-6" d="M463.56 5.42L417.01 86.9h212.82L576.62-6.22l-53.2-93.11-53.2 93.11-6.66 11.64zM417.01 86.89v.01-.01z"/>
          <path class="cls-5" d="M417.01-99.33H310.6l53.2 93.11 53.21 93.11v.01l46.55-81.48 6.66-11.64 53.2-93.11H417.01zM417.01 86.9l53.2 93.1 53.21 93.11 41.38-72.41 11.82-20.7 53.21-93.1H417.01z"/>
          <path class="cls-7" d="M417.01 273.11h106.4L470.21 180l-53.2-93.1L363.8 180l-53.2 93.11h-.01 106.42z"/>
          <path class="cls-6" d="M417.01 459.33v.01-.01zM576.62 366.22l-53.2-93.11-53.2 93.11-6.66 11.64-46.55 81.48h212.82l-53.21-93.12z"/>
          <path class="cls-7" d="M417.01 273.11H310.6l53.2 93.11 53.21 93.11v.01l46.55-81.48 6.66-11.64 53.2-93.11H417.01z"/>
          <path class="cls-6" d="M417.01 459.34l53.2 93.1 53.21 93.11 41.38-72.41 11.82-20.7 53.21-93.1H417.01z"/>
          <path class="cls-8" d="M417.01 459.34l-53.21 93.1-53.2 93.11h-.01 212.82l-53.2-93.11-53.2-93.1z"/>
          <path class="cls-6" d="M417.01 1204.19H417l53.21-93.1 53.21-93.11 41.38 72.41 11.82 20.7 53.21 93.1H417.01z"/>
          <path class="cls-6" d="M417.01 1017.98h106.4l-53.2 93.11-53.21 93.1-53.2-93.1-53.2-93.11h-.01H417.01zM417.01 831.77l-.01-.01h.01v.01z"/>
          <path class="cls-8" d="M576.62 924.87l-53.2 93.11-53.21-93.11-6.65-11.63-46.55-81.48h212.82l-53.21 93.11z"/>
          <path class="cls-7" d="M417.01 1017.98H310.6l53.2-93.11 53.21-93.1v-.01l46.55 81.48 6.65 11.63 53.21 93.11H417.01zM417.01 831.76H417l53.21-93.11 53.21-93.11 41.38 72.42 11.82 20.69 53.21 93.11H417.01z"/>
          <path class="cls-7" d="M417 831.76l-53.2-93.11-53.2-93.11h-.01 212.82l-53.2 93.11L417 831.76z"/>
          <path class="cls-6" d="M1650.12 382.66l43.81 76.68h-212.82l53.21-93.11 53.2-93.12 53.21 93.12 9.39 16.43z"/>
          <path class="cls-8" d="M1693.94 459.34h-.01v-.01l.01.01z"/>
          <path class="cls-5" d="M1587.52 459.34h106.41l-53.2 93.11-53.21 93.1v.01l-43.81-76.68-9.39-16.43-53.21-93.11h106.41zM1693.93 86.9h.01l-53.21 93.11-53.21 93.1-42.97-75.2-10.23-17.9-22.17-38.8-31.04-54.31h212.82zM1693.93 86.9v-.01l.01.01h-.01zM1650.12 10.22l43.81 76.68h-212.82l53.21-93.11 53.2-93.1 53.21 93.1 9.39 16.43z"/>
          <path class="cls-8" d="M1481.1 459.34l37.25 65.17 15.96 27.94 53.2 93.1h-212.82l53.2-93.1 53.21-93.11z"/>
          <path class="cls-6" d="M1268.28 459.34l53.21 93.11 53.2 93.1h-212.82l53.2-93.1 53.21-93.11z"/>
          <path class="cls-5" d="M1055.46 459.34l53.21 93.11 53.2 93.1H949.05l53.21-93.1 53.2-93.11z"/>
          <path class="cls-7" d="M842.64 459.33l53.21 93.12 24.55 42.97 28.65 50.13H736.23l53.21-93.1 53.2-93.12zM692.42 568.88l43.81 76.67H523.41l53.2-93.1 53.21-93.12 53.21 93.12 9.39 16.43z"/>
          <path class="cls-8" d="M736.23 645.55v-.01.01z"/>
          <path class="cls-6" d="M736.23 459.33h106.41l-53.2 93.12-53.21 93.09v.01l-43.81-76.67-9.39-16.43-53.21-93.12h106.41z"/>
          <path class="cls-7" d="M895.85 552.45l-53.21-93.12h212.82l-53.21 93.12-53.2 93.1-28.65-50.13-24.55-42.97z"/>
          <path class="cls-6" d="M1055.46 459.34v-.01h212.82l-53.21 93.12-53.2 93.1-53.2-93.1-53.21-93.11zM1268.28 459.34v-.01h212.82l-53.21 93.12-53.2 93.1-53.2-93.1-53.21-93.11zM736.23 273.12l-53.2 93.11-53.21 93.1-42.97-75.2-10.23-17.9-22.17-38.8-31.04-54.31h212.82z"/>
          <path class="cls-6" d="M949.05 273.12l-53.2 93.11-53.21 93.1-53.2-93.1-53.21-93.11h212.82z"/>
          <path class="cls-8" d="M1161.87 273.12h.01l-53.21 93.11-53.21 93.1-39.2-68.6-14-24.5-22.17-38.8-31.04-54.31h212.82zM1190.52 323.25l-28.64-50.13h212.81l-53.2 93.11-53.21 93.1-53.2-93.1-24.56-42.98z"/>
          <path class="cls-5" d="M1418.51 349.8l-43.82-76.68H1587.52l-53.21 93.11-53.21 93.1-53.2-93.1-9.39-16.43zM1374.69 273.13v-.01.01z"/>
          <path class="cls-5" d="M1374.69 273.13v-.01l43.82 76.68 9.39 16.43 53.2 93.1h-212.82l53.21-93.1 53.2-93.1z"/>
          <path class="cls-8" d="M1161.88 273.12l28.64 50.13 24.56 42.98 53.2 93.1h-212.82l53.21-93.1 53.21-93.11zM949.05 273.12l31.04 54.31 22.17 38.8 14 24.5 39.2 68.6H842.65l53.2-93.1 53.2-93.11z"/>
          <path class="cls-6" d="M736.23 273.12l53.21 93.11 53.2 93.1h.01H629.82l53.21-93.1 53.2-93.11z"/>
          <path class="cls-5" d="M1481.1 86.9l37.25 65.18 15.96 27.93 53.2 93.11h-212.82l53.2-93.11 53.21-93.11zM1215.07 180.01l53.21-93.11 53.21 93.11 53.2 93.11h-212.82l53.2-93.11z"/>
          <path class="cls-8" d="M1055.46 86.9l53.21 93.11 53.2 93.11H949.05l53.21-93.11 53.2-93.11z"/>
          <path class="cls-7" d="M920.4 222.98l28.65 50.14H736.23l53.21-93.11 53.2-93.11 53.21 93.11 24.55 42.97z"/>
          <path class="cls-5" d="M736.23 273.12v-.01.01z"/>
          <path class="cls-7" d="M692.42 196.44l43.81 76.68H523.41l53.2-93.11 53.21-93.11 53.21 93.11 9.39 16.43z"/>
          <path class="cls-7" d="M736.23 86.9h106.41l-53.2 93.11-53.21 93.1v.01l-43.81-76.68-9.39-16.43-53.21-93.11h106.41zM949.05 86.9h106.41l-53.21 93.11-53.2 93.11-28.65-50.14-24.55-42.97-53.21-93.11H949.05z"/>
          <path class="cls-6" d="M1161.88 86.9h106.4l-53.21 93.11-53.2 93.11-53.2-93.11-53.21-93.11h106.42z"/>
          <path class="cls-6" d="M1268.28 86.9h212.82l-53.21 93.11-53.2 93.11-53.2-93.11-53.21-93.11z"/>
          <path class="cls-5" d="M736.23-99.32L683.03-6.2l-53.21 93.09-50.78-88.87-2.42-4.22-6.65-11.64-46.56-81.48h212.82z"/>
          <path class="cls-6" d="M949.05-99.32L895.85-6.2l-53.21 93.09-53.2-93.09-53.21-93.12h212.82zM1161.87-99.32h.01L1108.67-6.2l-53.21 93.1L1005.8 0l-3.54-6.2-6.65-11.64-46.56-81.48h212.82z"/>
          <path class="cls-8" d="M1268.28 86.9l-53.2-93.1-19.35-33.86-33.85-59.26h212.81l-53.2 93.12-53.21 93.1z"/>
          <path class="cls-6" d="M1421.25-17.84l-46.56-81.48H1587.52L1534.31-6.2l-53.21 93.1-53.2-93.1-6.65-11.64z"/>
          <path class="cls-5" d="M1374.69 86.9h-106.41l53.21-93.1 53.2-93.11v-.01l46.56 81.48 6.65 11.64 53.2 93.1h-106.41z"/>
          <path class="cls-6" d="M1161.88-99.32l33.85 59.26 19.35 33.86 53.2 93.1h-212.82l53.21-93.1 53.21-93.12z"/>
          <path class="cls-5" d="M949.05-99.32l46.56 81.48 6.65 11.64 3.54 6.2 49.66 86.9H842.65l53.2-93.1 53.2-93.12z"/>
          <path class="cls-6" d="M736.23-99.32L789.44-6.2l53.2 93.09.01.01H629.82l53.21-93.1 53.2-93.12z"/>
          <path style="mix-blend-mode:multiply" fill="#f1f0f0" d="M629.83 1017.98h106.41l-53.21 93.11-53.2 93.1h-.01l-43.81-76.67-9.39-16.43-53.2-93.11H629.83z"/>
          <path class="cls-8" d="M629.83 831.76l53.2 93.11 53.21 93.1v.01H523.42l53.2-93.11 53.21-93.11z"/>
          <path class="cls-6" d="M1481.12 1204.19l53.2-93.11 53.21-93.11 41.38 72.42 11.82 20.69 53.21 93.11h-212.82z"/>
          <path class="cls-6" d="M1268.3 1204.19l53.2-93.11 53.21-93.11 53.2 93.11 53.21 93.11H1268.3z"/>
          <path class="cls-6" d="M1161.89 1017.97l53.2 93.11 53.21 93.11h-212.82l53.21-93.11 53.2-93.11zM1021.62 1144.94l33.86 59.25H842.66l53.21-93.11 53.2-93.11 53.2 93.11 19.35 33.86zM796.1 1122.72l46.55 81.47H629.84l53.2-93.11 53.21-93.11 53.2 93.11 6.65 11.64z"/>
          <path class="cls-6" d="M842.66 1017.97h106.41l-53.2 93.11-53.21 93.11h-.01l-46.55-81.47-6.65-11.64-53.2-93.11H842.66zM1055.48 1017.97h106.41l-53.21 93.11-53.2 93.11-33.86-59.25-19.35-33.86-53.2-93.11h106.41z"/>
          <path class="cls-6" d="M1268.3 1017.97h106.41l-53.21 93.11-53.2 93.11-53.21-93.11-53.2-93.11h106.41z"/>
          <path class="cls-6" d="M1481.12 1017.97h106.41l-53.21 93.11-53.2 93.11-53.21-93.11-53.2-93.11h106.41z"/>
          <path class="cls-8" d="M842.65 831.75h.01l-53.21 93.12-53.2 93.1-50.79-88.88-2.42-4.22-6.65-11.64-46.55-81.48h212.81z"/>
          <path class="cls-8" d="M789.43 924.87l-53.2 93.1-53.21-93.1-53.2-93.12h212.81l-53.2 93.12z"/>
          <path class="cls-6" d="M1215.09 924.87l-53.2 93.1-49.66-86.9-3.54-6.2-6.65-11.64-46.56-81.48h212.82l-53.21 93.12z"/>
          <path fill="#efedf0" d="M1374.71 1017.97l-53.2-93.1-19.35-33.86-33.86-59.26h212.82l-53.21 93.12-53.2 93.1z"/>
          <path class="cls-7" d="M1481.12 1017.97h-106.41l53.2-93.1 53.21-93.11v-.01l46.56 81.48 6.65 11.64 53.2 93.1h-106.41z"/>
          <path class="cls-5" d="M1021.62 772.5l33.86 59.25H842.66l53.21-93.11 53.2-93.1 53.2 93.1 19.35 33.86z"/>
          <path class="cls-7" d="M808.77 772.5l33.86 59.25H629.82l53.2-93.11 53.21-93.1 53.2 93.1 19.34 33.86z"/>
        </g>
        <path class="cls-7" d="M1268.3 1017.97h-106.41l53.21-93.1 53.2-93.12 33.86 59.26 19.35 33.86 53.2 93.1H1268.3zM1481.12 831.75l53.2-93.11 53.21-93.1 41.38 72.41 11.82 20.69 53.21 93.11h-212.82z"/>
        <path class="cls-7" d="M1268.3 831.75l53.2-93.11 53.21-93.1 53.2 93.1 53.21 93.11H1268.3zM842.66 831.75h-.01l-46.55-81.47-6.65-11.64-53.2-93.1h212.82l-53.2 93.1-53.21 93.11zM1055.48 831.75l-33.86-59.25-19.35-33.86-53.2-93.1h212.82l-53.21 93.1-53.2 93.11z"/>
        <path class="cls-11" d="M1640.73 924.87l-53.2 93.1-53.2-93.1-6.65-11.64-46.56-81.48h212.82l-53.21 93.12z"/>
        <path class="cls-6" d="M1055.48 831.75l46.56 81.48 6.65 11.64 3.54 6.2 49.66 86.9H949.07l53.2-93.1 53.21-93.12zM842.66 831.75l53.21 93.12 53.2 93.1H736.25l53.2-93.1 53.21-93.12zM1055.48 831.75l53.21-93.11 53.2-93.1 53.2 93.1 53.21 93.11h-212.82zM796.1 750.28l46.55 81.47H629.84l53.2-93.11 53.21-93.1 53.2 93.1 6.65 11.64z"/>
        <path class="cls-7" d="M1268.3 831.75l-53.21-93.11-53.2-93.1h212.82l-53.21 93.1-53.2 93.11z"/>
        <path class="cls-6" d="M1481.12 831.75l-53.21-93.11-53.2-93.1h212.82l-53.21 93.1-53.2 93.11z"/>
        <g class="cls-4">
          <path class="cls-6" d="M373.19 382.64l43.8 76.68H204.18l53.2-93.11 53.21-93.11 53.2 93.11 9.4 16.43z"/>
          <path class="cls-8" d="M417 459.32h-.01l.01-.01v.01z"/>
          <path class="cls-5" d="M310.59 459.32H417l-53.21 93.11-53.2 93.1-.01.01-43.81-76.68-9.39-16.43-53.2-93.11H310.59zM416.99 86.88h.01l-53.21 93.11-53.2 93.11-42.97-75.21-10.23-17.9-22.17-38.8-31.04-54.31h212.81zM416.99 86.88l.01-.01v.01h-.01z"/>
          <path class="cls-5" d="M373.19 10.2l43.8 76.68H204.18l53.2-93.11 53.21-93.1 53.2 93.1 9.4 16.43zM204.17 459.32l37.24 65.18 15.96 27.93 53.21 93.11H97.76l53.2-93.11 53.21-93.11z"/>
          <path class="cls-6" d="M-8.65 459.32l53.2 93.11 53.21 93.11h-212.82l53.2-93.11 53.21-93.11z"/>
          <path class="cls-5" d="M-8.65 459.32v-.01h212.81l-53.2 93.12-53.2 93.11-53.21-93.11-53.2-93.11z"/>
          <path class="cls-6" d="M-86.41 323.24l-28.65-50.14H97.76l-53.21 93.11-53.2 93.1-53.2-93.1-24.56-42.97z"/>
          <path class="cls-12" d="M141.57 349.78L97.76 273.1h212.82l-53.21 93.11-53.2 93.1-53.2-93.1-9.4-16.43z"/>
          <path class="cls-5" d="M97.76 273.11v-.01.01zM97.76 273.11v-.01l43.81 76.68 9.4 16.43 53.2 93.1H-8.65l53.2-93.1 53.21-93.1zM204.17 86.89l37.24 65.17 15.96 27.93 53.21 93.11H97.76l53.2-93.11 53.21-93.1zM-61.86 179.99l53.21-93.1 53.2 93.1 53.21 93.11h-212.82l53.2-93.11z"/>
          <path class="cls-6" d="M-8.65 86.89h212.81l-53.2 93.1-53.2 93.11-53.21-93.11-53.2-93.1z"/>
          <path class="cls-8" d="M-8.65 86.89l-53.2-93.11-19.35-33.86-33.86-59.26H97.76L44.55-6.22l-53.2 93.11z"/>
          <path class="cls-6" d="M144.31-17.86L97.76-99.34h212.82L257.37-6.22l-53.2 93.11-53.2-93.11-6.66-11.64z"/>
          <path class="cls-5" d="M97.76 86.89H-8.65l53.2-93.11 53.21-93.11v-.01l46.55 81.48 6.66 11.64 53.2 93.11H97.76zM204.19 1204.17l53.2-93.11 53.21-93.1 41.38 72.41 11.82 20.69 53.2 93.11H204.19z"/>
          <path class="cls-8" d="M-8.63 1204.17h-.01l53.21-93.11 53.21-93.1 53.2 93.1 53.21 93.11H-8.63zM-8.63 1017.96h106.4l-53.2 93.1-53.21 93.11-53.2-93.11-53.2-93.1h-.01H-8.63z"/>
          <path class="cls-8" d="M204.19 1017.96h106.4l-53.2 93.1-53.2 93.11-53.21-93.11-53.2-93.1h-.01 106.42z"/>
          <path class="cls-11" d="M97.78 1017.96l-53.21-93.11-19.35-33.86-33.85-59.26h212.82l-53.21 93.12-53.2 93.11z"/>
          <path class="cls-5" d="M204.19 1017.96H97.78l53.2-93.11 53.21-93.11v-.01l46.55 81.48 6.65 11.64 53.21 93.11H204.19z"/>
        </g>
        <path class="cls-5" d="M-8.63 1017.96H-115.04l53.2-93.11 53.21-93.12 33.85 59.26 19.35 33.86 53.21 93.11H-8.63z"/>
        <path class="cls-6" d="M362.83 831.73l53.2-93.1 53.21-93.11 41.38 72.41 11.83 20.7 53.2 93.1H362.83z"/>
        <path class="cls-5" d="M-8.63 831.73h-.01l53.21-93.1 53.21-93.11 53.2 93.11 53.21 93.1H-8.63z"/>
        <path class="cls-12" d="M363.8 924.85l-53.2 93.11-53.21-93.11-6.65-11.64-46.55-81.48h212.82l-53.21 93.12z"/>
        <path class="cls-6" d="M-8.64 831.73l-53.2-93.1-53.2-93.11h-.01H97.77l-53.2 93.11-53.21 93.1z"/>
        <path class="cls-6" d="M204.19 831.73l-53.21-93.1-53.2-93.11h-.01 212.82l-53.2 93.11-53.2 93.1z"/>
        <g class="cls-4">
          <path class="cls-5" d="M1800.96 645.53h-.01l53.21 93.1 53.21 93.11 41.38-72.41 11.82-20.7 53.2-93.1h-212.81z"/>
          <path class="cls-6" d="M1741.1 5.4l-46.55 81.48h212.82l-53.21-93.12-53.21-93.1-53.2 93.1-6.65 11.64zM1694.55 86.87l-.01.01h.01v-.01z"/>
          <path class="cls-5" d="M1694.55-99.34h-106.42l53.21 93.1 53.21 93.11v.01L1741.1 5.4l6.65-11.64 53.2-93.1h-106.4zM1694.55 86.88h-.01l53.21 93.11 53.2 93.1 41.39-72.41 11.82-20.69 53.2-93.11h-212.81z"/>
          <path class="cls-8" d="M1694.55 273.09h106.4l-53.2-93.1-53.21-93.11-53.2 93.11-53.21 93.1h106.42z"/>
          <path class="cls-6" d="M1694.55 459.31l-.01.01h.01v-.01z"/>
          <path fill="#606161" d="M1854.16 366.2l-53.21-93.11-53.2 93.11-6.65 11.64-46.55 81.48h212.82l-53.21-93.12z"/>
          <path class="cls-5" d="M1694.55 273.09h-106.42l53.21 93.11 53.21 93.11v.01l46.55-81.48 6.65-11.64 53.2-93.11h-106.4z"/>
          <path class="cls-5" d="M1694.55 459.32h-.01l53.21 93.1 53.2 93.11 41.39-72.41 11.82-20.7 53.2-93.1h-212.81z"/>
          <path class="cls-6" d="M1694.54 459.32l-53.2 93.1-53.21 93.11h212.82l-53.2-93.11-53.21-93.1zM1694.55 1204.18h-.01l53.2-93.11 53.21-93.11 41.39 72.42 11.82 20.69 53.2 93.11h-212.81z"/>
          <path class="cls-8" d="M1694.55 1017.96h106.4l-53.21 93.11-53.2 93.11-53.2-93.11-53.21-93.11h106.42z"/>
          <path class="cls-6" d="M1694.55 831.75l-.01-.01h.01v.01zM1854.16 924.86l-53.21 93.1-53.2-93.1-6.65-11.64-46.55-81.48h212.82l-53.21 93.12z"/>
          <path class="cls-5" d="M1694.55 1017.96h-106.42l53.21-93.1 53.21-93.11v-.01l46.55 81.48 6.65 11.64 53.2 93.1h-106.4zM1694.55 831.74h-.01l53.2-93.11 53.21-93.1 41.39 72.41 11.82 20.69 53.2 93.11h-212.81z"/>
          <path class="cls-6" d="M1694.54 831.74l-53.2-93.11-53.21-93.1h212.82l-53.21 93.1-53.2 93.11z"/>
          <path class="cls-5" d="M1969.95 568.86l43.81 76.68h-212.82l53.21-93.11 53.21-93.12 53.2 93.12 9.39 16.43z"/>
          <path class="cls-6" d="M2013.77 459.31h106.41l-53.21 93.12-53.2 93.1-.01.01-43.81-76.68-9.39-16.43-53.2-93.12H2013.77z"/>
          <path class="cls-5" d="M2013.76 273.1h.01l-53.21 93.11-53.2 93.1-42.98-75.2-10.23-17.9-22.17-38.8-31.04-54.31h212.82z"/>
          <path class="cls-5" d="M2013.77 273.1l53.2 93.11 53.21 93.1h-212.82l53.2-93.1 53.21-93.11zM1969.95 196.42l43.81 76.68h-212.82l53.21-93.11 53.21-93.1 53.2 93.1 9.39 16.43z"/>
          <path class="cls-5" d="M2013.77 86.89h106.41l-53.21 93.1-53.2 93.1-.01.01-43.81-76.68-9.39-16.43-53.2-93.1H2013.77zM2013.76-99.34h.01l-53.21 93.12-53.2 93.1-50.79-88.87-2.42-4.23-6.65-11.64-46.56-81.48h212.82z"/>
          <path class="cls-6" d="M2013.77-99.34l53.2 93.12 53.21 93.1v.01h-212.82l53.2-93.11 53.21-93.12zM1907.37 1017.96h106.4l-53.2 93.11-53.21 93.1v.01l-43.81-76.68-9.39-16.43-53.21-93.11h106.42z"/>
          <path class="cls-6" d="M1907.37 831.74l53.2 93.12 53.2 93.1h.01-212.83l53.21-93.1 53.21-93.12zM2073.64 1122.7l46.55 81.47h-212.82l53.21-93.11 53.21-93.1 53.2 93.1 6.65 11.64zM2120.19 831.73h.01l-53.21 93.12-53.2 93.11-50.79-88.88-2.42-4.23-6.65-11.64-46.56-81.48h212.82z"/>
        </g>
        <path class="cls-6" d="M2073.64 750.26l46.55 81.47h-212.82l53.21-93.1 53.21-93.11 53.2 93.11 6.65 11.63z"/>
        <path class="cls-14" d="M2013.79 771.2l53.21-93.1 11.82-20.7 41.38-72.41h.01H1907.38l53.21 93.11 53.2 93.1z"/>
      </g>
      <g id="Color" style="mix-blend-mode:multiply">
        <path class="cls-6" d="M1481.12 831.76v-.01.01zM344.45 1084.41l-33.85 59.26h212.81l-53.21-93.11-53.2-93.1-53.2 93.1-19.35 33.85z"/>
        <path class="cls-6" d="M523.41 957.46H417l53.2 93.1 53.21 93.1.01.01 46.54-81.47 6.66-11.64 53.2-93.1H523.41z"/>
        <path class="cls-16" d="M363.8 864.34l53.2 93.11 53.2-93.1 53.21-93.12H310.59l53.21 93.11z"/>
        <path class="cls-16" d="M523.41 771.23l-53.21 93.12-53.2 93.1-.01.01h212.83l-53.2-93.11-53.21-93.12z"/>
        <path class="cls-17" d="M344.45 711.99l-33.85 59.24h212.81l-53.21-93.1-53.2-93.11-53.2 93.11-19.35 33.86z"/>
        <path class="cls-17" d="M523.41 771.23h.01l46.54-81.47 6.66-11.63 53.2-93.11H417l53.2 93.11 53.21 93.1z"/>
        <path class="cls-18" d="M736.73 771.23h.01l46.55-81.47 6.65-11.63 53.2-93.11H630.32l53.2 93.11 53.21 93.1z"/>
        <path class="cls-6" d="M949.07 1143.66h.01l-53.21-93.11-53.21-93.11-41.37 72.42-11.82 20.69-53.21 93.11h212.81z"/>
        <path class="cls-6" d="M1161.89 1143.66h.01l-53.21-93.11-53.2-93.11-53.21 93.11-53.2 93.11h212.81z"/>
        <path class="cls-6" d="M1268.31 957.44l-53.21 93.11-53.2 93.11h212.82l-53.21-93.11-53.2-93.11zM1408.58 1084.4l-33.86 59.26h212.82l-53.21-93.11-53.2-93.11-53.21 93.11-19.34 33.85z"/>
        <path class="cls-6" d="M1587.54 957.44h-106.41l53.2 93.11 53.21 93.1v.01l46.55-81.47 6.65-11.64 53.21-93.11h-106.41zM1374.71 957.44h-106.4l53.21 93.11 53.2 93.11 33.86-59.26 19.34-33.85 53.21-93.11H1374.71z"/>
        <path class="cls-6" d="M1161.89 957.44h-106.4l53.2 93.11 53.21 93.11 53.2-93.11 53.21-93.11h-106.42zM736.26 1143.66l53.21-93.11 11.82-20.69 41.37-72.42h.01H629.85l53.2 93.11 53.21 93.11z"/>
        <path class="cls-18" d="M1427.92 864.33l53.21 93.1 53.2-93.09 53.21-93.12h-212.82l53.2 93.11z"/>
        <path class="cls-16" d="M1215.1 864.33l53.21 93.11 49.66-86.9 3.54-6.21 6.65-11.63 46.55-81.48h-212.82l53.21 93.11z"/>
        <path class="cls-17" d="M1055.49 957.44l53.2-93.11 19.35-33.85 33.85-59.26H949.08l53.2 93.11 53.21 93.11z"/>
        <path class="cls-7" d="M949.08 771.23v-.01h-.01l.01.01z"/>
        <path class="cls-18" d="M789.46 864.33l53.2 93.11 53.21-93.11 6.65-11.63 46.55-81.48H736.25l53.21 93.11z"/>
        <path class="cls-17" d="M736.26 957.44h106.4l-53.2-93.1-53.21-93.11v-.01l-44.69 78.22-8.51 14.9-53.2 93.1H736.26zM1161.89 957.44h106.42l-53.21-93.1-53.21-93.12-33.85 59.26-19.35 33.86-53.2 93.1h106.4z"/>
        <path class="cls-16" d="M1374.71 771.22l-46.55 81.48-6.65 11.64-3.54 6.2-49.66 86.9h212.81l-53.2-93.1-53.21-93.12z"/>
        <path class="cls-7" d="M1587.54 771.22l-53.21 93.12-53.2 93.09-.01.01H1693.95l-53.21-93.1-53.2-93.12z"/>
        <path class="cls-16" d="M1161.89 771.22h.01l-53.21-93.11-53.2-93.1-53.21 93.1-53.2 93.11h212.81z"/>
        <path class="cls-16" d="M1374.71 771.22h.01l-53.21-93.11-53.2-93.1-53.21 93.1-53.2 93.11h212.81z"/>
        <path class="cls-7" d="M1408.58 711.97l-33.86 59.25h212.82l-53.21-93.11-53.2-93.1-53.21 93.1-19.34 33.86z"/>
        <path class="cls-7" d="M1587.54 771.22l46.55-81.47 6.65-11.64 53.21-93.1h-212.82l53.2 93.1 53.21 93.11zM1374.72 771.22l33.86-59.25 19.34-33.86 53.21-93.1h-212.82l53.21 93.1 53.2 93.11z"/>
        <path class="cls-18" d="M949.08 771.22l53.2-93.11 53.21-93.1H842.67l53.2 93.1 53.21 93.11z"/>
        <path class="cls-7" d="M1587.53 398.79l-37.24 65.18-15.96 27.93-53.21 93.11h212.82l-53.2-93.11-53.21-93.11z"/>
        <path class="cls-7" d="M1656.68 277.77l37.25-65.17v-.01h-212.82l53.2 93.1 53.21 93.12 53.21-93.12 15.95-27.92zM1587.51 26.38l-41.37 72.42-11.83 20.69-53.2 93.1h212.82l-53.21-93.1-53.21-93.11z"/>
        <path class="cls-19" d="M1587.52 26.38l53.21-93.11 15.95-27.94 37.25-65.17h-212.82l53.2 93.11 53.21 93.11z"/>
        <path class="cls-7" d="M736.24 398.81l-37.25 65.17-15.95 27.94-53.21 93.1h212.82l-53.2-93.1-53.21-93.11zM949.06 398.81l-53.21 93.1-53.2 93.11h212.82l-53.2-93.1-53.21-93.11z"/>
        <path class="cls-17" d="M1161.88 398.81l-53.21 93.1-53.2 93.11h212.82l-53.21-93.1-53.2-93.11z"/>
        <path class="cls-16" d="M1374.7 398.8l-53.21 93.12-24.55 42.97-28.64 50.13h212.81l-53.21-93.1-53.2-93.12z"/>
        <path class="cls-20" d="M1268.29 585.02h.01-.01z"/>
        <path class="cls-14" d="M1481.11 585.02h.01-.01z"/>
        <path class="cls-16" d="M1481.11 398.8H1374.7l53.2 93.11 53.21 93.11h.01l43.81-76.67 9.39-16.44 53.2-93.11H1481.11zM1321.49 491.91l53.21-93.11h-212.82l53.21 93.11 53.2 93.11h.01l28.64-50.13 24.55-42.98z"/>
        <path class="cls-7" d="M1161.88 398.81v-.01H949.06l53.21 93.11 53.2 93.11 53.2-93.11 53.21-93.1zM949.06 398.81v-.01H736.24l53.21 93.11 53.2 93.11 53.2-93.11 53.21-93.1zM698.99 463.98l37.25-65.17v-.01H523.42l53.21 93.11 53.2 93.11 53.21-93.11 15.95-27.93z"/>
        <path class="cls-18" d="M1268.3 212.59h-.01l53.2 93.1 53.21 93.11 53.2-93.1 53.21-93.11H1268.3z"/>
        <path class="cls-18" d="M1055.47 212.59l53.2 93.1 53.21 93.11 39.2-68.6 14-24.5 22.17-38.8 31.04-54.31h-212.82z"/>
        <path class="cls-7" d="M1026.82 262.73l28.65-50.14H842.65l53.2 93.1 53.21 93.11 53.2-93.11 24.56-42.96z"/>
        <path class="cls-7" d="M798.83 289.26l43.82-76.67H629.83l53.2 93.1 53.21 93.11 53.2-93.11 9.39-16.43z"/>
        <path class="cls-20" d="M842.65 212.6v-.01.01z"/>
        <path class="cls-7" d="M629.83 212.59l-41.38 72.42-11.83 20.69-53.2 93.1h212.82l-53.21-93.1-53.2-93.11z"/>
        <path class="cls-7" d="M842.65 212.6v-.01l-43.82 76.67-9.39 16.44-53.2 93.1h212.82l-53.21-93.1-53.2-93.1zM1055.47 212.59l-28.65 50.14-24.56 42.97-53.2 93.1h212.82l-53.21-93.1-53.2-93.11z"/>
        <path class="cls-18" d="M1268.29 212.59l-31.04 54.31-22.17 38.8-14 24.5-39.2 68.6h212.81l-53.2-93.1-53.2-93.11z"/>
        <path class="cls-16" d="M1481.11 212.59l-53.21 93.11-53.2 93.1h-.01 212.83l-53.2-93.1-53.21-93.11z"/>
        <path class="cls-20" d="M736.24 26.37l-37.25 65.18-15.95 27.93-53.21 93.11h212.82l-53.2-93.11-53.21-93.11z"/>
        <path class="cls-16" d="M1002.27 119.48l-53.21-93.11-53.21 93.11-53.2 93.11h212.82l-53.2-93.11z"/>
        <path class="cls-17" d="M1161.88 26.37l-53.21 93.11-53.2 93.11h212.82l-53.21-93.11-53.2-93.11zM1296.94 162.45l-28.64 50.14h212.81l-53.21-93.11-53.2-93.11-53.21 93.11-24.55 42.97z"/>
        <path class="cls-20" d="M1481.12 212.59l-.01-.01v.01h.01z"/>
        <path class="cls-17" d="M1481.11 26.37H1374.7l53.2 93.11 53.21 93.1.01.01 43.81-76.68 9.39-16.43 53.2-93.11H1481.11zM1268.29 26.37h-106.41l53.21 93.11 53.2 93.11h.01l28.64-50.14 24.55-42.97 53.21-93.11H1268.29z"/>
        <path class="cls-17" d="M1055.47 26.37H949.06l53.21 93.11 53.2 93.11 53.2-93.11 53.21-93.11h-106.41z"/>
        <path class="cls-21" d="M949.06 26.37H736.24l53.21 93.11 53.2 93.11 53.2-93.11 53.21-93.11z"/>
        <path class="cls-21" d="M629.83 212.59l53.21-93.11 15.95-27.93 37.25-65.18H523.42l53.21 93.11 53.2 93.11z"/>
        <path class="cls-17" d="M1268.3-159.85h-.01l53.2 93.11 53.21 93.1 53.2-93.09 53.21-93.12H1268.3z"/>
        <path class="cls-17" d="M1055.47-159.85l53.2 93.11 53.21 93.11 49.66-86.9 3.54-6.21 6.65-11.63 46.56-81.48h-212.82z"/>
        <path class="cls-20" d="M949.06 26.37l53.2-93.11 19.35-33.85 33.86-59.26H842.65l53.2 93.11 53.21 93.11z"/>
        <path class="cls-16" d="M796.09-78.37l46.56-81.48H629.83l53.2 93.11 53.21 93.11 53.2-93.11 6.65-11.63z"/>
        <path class="cls-16" d="M629.83 26.37h106.41l-53.21-93.1-53.2-93.11v-.01l-44.69 78.22-8.52 14.9-53.2 93.1h106.41z"/>
        <path class="cls-16" d="M842.65 26.37h106.41l-53.21-93.1-53.2-93.11v-.01l-46.56 81.48-6.65 11.64-53.2 93.1h106.41z"/>
        <path class="cls-17" d="M1055.47-159.85l-33.86 59.26-19.35 33.86-53.2 93.1h212.82l-53.21-93.1-53.2-93.12zM1268.29-159.85l-46.56 81.48-6.65 11.64-3.54 6.2-49.66 86.9h212.81l-53.2-93.1-53.2-93.12zM1481.11-159.85l-53.21 93.12-53.2 93.09-.01.01h212.83l-53.2-93.1-53.21-93.12z"/>
        <path class="cls-16" d="M310.61 26.36h-.01l53.21-93.1 53.2-93.11 53.2 93.1 53.21 93.11H310.61z"/>
        <path class="cls-16" d="M523.42 26.36l-53.21-93.11-53.2-93.1v-.01h212.82l-53.2 93.11-53.21 93.11z"/>
        <path class="cls-16" d="M344.46 85.62l-33.85-59.26h212.81l-53.21 93.11-53.2 93.11-53.2-93.11-19.35-33.85z"/>
        <path class="cls-20" d="M523.43 26.36l-.01.02v-.02h.01z"/>
        <path class="cls-21" d="M523.42 212.58H417.01l53.2-93.11 53.21-93.09.01-.02 46.55 81.47 6.65 11.64 53.2 93.11H523.42z"/>
        <path class="cls-7" d="M363.81 305.69l53.2-93.1 53.2 93.1 53.21 93.11H310.6l53.21-93.11z"/>
        <path class="cls-7" d="M523.42 398.8l-53.21-93.11-53.2-93.1v-.01h212.82l-53.2 93.11-53.21 93.11zM344.46 458.05l-33.85-59.25h212.81l-53.21 93.11-53.2 93.11-53.2-93.11-19.35-33.86z"/>
        <path class="cls-7" d="M523.42 398.8h.01l46.55 81.47 6.65 11.64 53.2 93.11H417.01l53.2-93.11 53.21-93.11z"/>
        <path class="cls-6" d="M629.85 957.45l53.21 93.1 11.82 20.7 41.38 72.41h.01-212.82l53.2-93.11 53.2-93.1z"/>
        <path class="cls-17" d="M683.05 678.14l-53.2-93.11-53.21 93.1-53.2 93.11h212.82l-53.21-93.1zM702.4 830.49l33.85-59.25H523.44l53.2 93.11 53.21 93.11 53.2-93.11 19.35-33.86z"/>
        <path class="cls-6" d="M949.07 957.44h-106.4l53.2 93.11 53.21 93.11 53.2-93.11 53.21-93.11H949.07z"/>
        <path class="cls-18" d="M949.07 957.44h106.42l-53.21-93.1-53.2-93.11-.01-.01-46.55 81.48-6.65 11.64-53.21 93.1H949.07zM949.07 771.22h.01l-53.21-93.11-53.21-93.1-41.37 72.41-11.82 20.69-53.21 93.11h212.81z"/>
        <path class="cls-16" d="M1161.9 771.22l53.2-93.11 53.21-93.1h-212.82l53.2 93.1 53.21 93.11z"/>
        <path class="cls-6" d="M204.19 831.74v-.01.01zM-8.62 957.43l-53.21 93.1-53.2 93.11H97.78l-53.2-93.11-53.2-93.1z"/>
        <path class="cls-7" d="M131.65 1084.38l-33.86 59.26H310.6l-53.2-93.11-53.21-93.1-53.2 93.1-19.34 33.85z"/>
        <path class="cls-7" d="M310.6 957.43H204.19l53.21 93.1 53.21 93.1v.01l46.55-81.47 6.65-11.64 53.2-93.1H310.6zM97.78 957.43H-8.62l53.2 93.1 53.21 93.11 33.86-59.26 19.34-33.85 53.2-93.1H97.78z"/>
        <path class="cls-17" d="M150.99 864.31l53.2 93.11 53.21-93.1 53.2-93.12H97.78l53.21 93.11z"/>
        <path class="cls-7" d="M-61.83 864.31l53.2 93.12 49.66-86.91 3.55-6.21 6.65-11.63 46.55-81.48h-212.82l53.21 93.11z"/>
        <path class="cls-7" d="M97.78 771.2l-46.55 81.48-6.65 11.64-3.55 6.2-49.66 86.91H204.19l-53.2-93.11-53.21-93.12zM310.6 771.2l-53.2 93.12-53.21 93.1v.01h212.82l-53.2-93.11-53.21-93.12z"/>
        <path class="cls-17" d="M97.78 771.2l-53.2-93.1-53.2-93.11-53.21 93.11-53.2 93.1H97.78z"/>
        <path class="cls-16" d="M131.65 711.96L97.79 771.2H310.6l-53.2-93.1-53.21-93.11-53.2 93.11-19.34 33.86z"/>
        <path class="cls-16" d="M310.61 771.2l46.55-81.47 6.65-11.63 53.2-93.11H204.19l53.21 93.11 53.21 93.1z"/>
        <path class="cls-17" d="M97.79 771.2l33.86-59.24 19.34-33.86 53.2-93.11H-8.62l53.2 93.11 53.21 93.1z"/>
        <path class="cls-16" d="M310.6 398.77l-37.25 65.18-15.96 27.93-53.2 93.11h212.82l-53.21-93.11-53.2-93.11z"/>
        <path class="cls-7" d="M379.75 277.75l37.24-65.17.01-.01H204.18l53.2 93.11 53.2 93.11 53.21-93.11 15.96-27.93z"/>
        <path class="cls-16" d="M310.58 26.36L269.2 98.78l-11.82 20.69-53.21 93.1h212.82l-53.2-93.1-53.21-93.11zM310.58 26.36l53.21-93.11 15.96-27.93 37.24-65.18h.01-212.82l53.2 93.11 53.2 93.11zM97.77 398.78L44.56 491.9l-24.55 42.97-28.65 50.14h212.81l-53.2-93.11-53.2-93.12z"/>
        <path class="cls-14" d="M204.17 585.01h.01V585l-.01.01z"/>
        <path class="cls-16" d="M204.17 398.78H97.77l53.2 93.11L204.18 585v.01L248 508.33l9.38-16.44 53.21-93.11H204.17z"/>
        <path class="cls-18" d="M44.56 491.89l53.21-93.11H-115.05l53.2 93.11L-8.64 585v.01l28.65-50.14 24.55-42.98z"/>
        <path class="cls-16" d="M-8.64 212.57h-.01l53.21 93.11 53.21 93.1 53.2-93.09 53.2-93.12H-8.64z"/>
        <path class="cls-17" d="M-8.65 212.57l-31.03 54.31-22.17 38.81-14 24.49-39.21 68.6H97.76l-53.2-93.09-53.21-93.12z"/>
        <path class="cls-7" d="M204.17 212.57l-53.2 93.12-53.2 93.09h-.01H310.58l-53.2-93.09-53.21-93.12z"/>
        <path class="cls-18" d="M20.01 162.43l-28.65 50.14h212.81l-53.2-93.11-53.2-93.1-53.21 93.1-24.55 42.97z"/>
        <path class="cls-20" d="M204.18 212.57v-.01l-.01.01h.01z"/>
        <path class="cls-16" d="M204.17 26.36H97.77l53.2 93.1 53.21 93.1v.01L248 135.89l9.38-16.43 53.21-93.1H204.17zM-8.65 26.36h-106.4l53.2 93.1 53.21 93.11 28.65-50.14 24.55-42.97 53.21-93.1H-8.65zM-8.64-159.87l53.2 93.11 53.21 93.11 53.2-93.1 53.2-93.12H-8.64z"/>
        <path class="cls-16" d="M-8.65-159.87L-55.2-78.39l-6.65 11.64-3.54 6.2-49.67 86.91H97.76l-53.2-93.11-53.21-93.12z"/>
        <path class="cls-16" d="M204.17-159.87l-53.2 93.12-53.2 93.1-.01.01h212.83l-53.21-93.11-53.21-93.12z"/>
        <path class="cls-7" d="M1621.99 1084.4l-33.86 59.25h212.81l-53.2-93.1-53.21-93.11-53.2 93.11-19.34 33.85zM1800.94 957.44h-106.41l53.21 93.11 53.21 93.09v.01l46.55-81.47 6.65-11.63 53.21-93.11h-106.42z"/>
        <path class="cls-18" d="M1641.33 864.32l53.2 93.11 53.21-93.1 53.2-93.11h-212.81l53.2 93.1z"/>
        <path class="cls-18" d="M1800.94 771.22l-53.2 93.11-53.21 93.1v.01H1907.36l-53.21-93.11-53.21-93.11zM1621.99 711.97l-33.86 59.25h212.81l-53.2-93.11-53.21-93.11-53.2 93.11-19.34 33.86z"/>
        <path class="cls-18" d="M1800.95 771.22l46.55-81.47 6.65-11.64 53.21-93.11H1694.53l53.21 93.11 53.21 93.11z"/>
        <path class="cls-17" d="M2014.27 771.22l46.55-81.47 6.65-11.64 53.21-93.11h-212.82l53.2 93.11 53.21 93.11z"/>
        <path class="cls-6" d="M2013.79 1143.64l53.21-93.11 11.82-20.69 41.38-72.41h.01H1907.38l53.21 93.1 53.2 93.11z"/>
        <path class="cls-7" d="M2013.79 957.43h106.41l-53.2-93.11-53.21-93.11v-.01l-44.69 78.22-8.51 14.9-53.21 93.11h106.41z"/>
        <path class="cls-16" d="M2013.77 398.79l-37.24 65.18-15.96 27.93-53.2 93.11h212.82l-53.21-93.11-53.21-93.11z"/>
        <path class="cls-16" d="M1976.53 463.97l37.24-65.18.01-.01H1800.96l53.2 93.11 53.21 93.12 53.2-93.12 15.96-27.92zM2076.37 289.25l43.81-76.68h-212.82l53.21 93.11 53.2 93.1 53.21-93.1 9.39-16.43z"/>
        <path class="cls-18" d="M1907.36 212.57l-41.38 72.42-11.82 20.7-53.21 93.09H2013.77l-53.2-93.09-53.21-93.12z"/>
        <path class="cls-20" d="M2013.77 26.36l-37.24 65.17-15.96 27.93-53.2 93.11h212.82l-53.21-93.11-53.21-93.1z"/>
        <path class="cls-21" d="M1907.37 212.57l53.2-93.11 15.96-27.93 37.24-65.17h.01H1800.96l53.2 93.1 53.21 93.11z"/>
        <path class="cls-19" d="M2073.63-78.39l46.55-81.48h-212.82l53.21 93.11 53.2 93.12 53.21-93.12 6.65-11.63z"/>
        <path class="cls-20" d="M1907.37 26.36h106.4l-53.2-93.11-53.21-93.11v-.01l-44.69 78.22-8.51 14.9-53.21 93.11H1907.37z"/>
        <path class="cls-19" d="M1588.14 26.35l53.2-93.11 53.21-93.11 53.2 93.1 53.2 93.12h-212.81z"/>
        <path class="cls-17" d="M1800.95 26.35l-53.2-93.12-53.2-93.1-.01-.01h212.83l-53.21 93.11-53.21 93.12z"/>
        <path class="cls-20" d="M1622 85.6l-33.86-59.25h212.81l-53.2 93.1-53.2 93.11-53.21-93.11L1622 85.6zM1800.96 26.35v.01l-.01-.01h.01z"/>
        <path class="cls-21" d="M1800.95 212.56h-106.4l53.2-93.11 53.21-93.09v-.01l46.55 81.47 6.65 11.63 53.21 93.11h-106.42z"/>
        <path class="cls-16" d="M1641.34 305.68l53.21-93.11 53.2 93.1 53.2 93.11h-212.81l53.2-93.1z"/>
        <path class="cls-16" d="M1800.95 398.78l-53.2-93.11-53.2-93.1-.01-.01h212.83l-53.21 93.11-53.21 93.11zM1622 458.03l-33.86-59.25h212.81l-53.2 93.11-53.2 93.11-53.21-93.11-19.34-33.86z"/>
        <path class="cls-18" d="M1800.96 398.78l46.55 81.47 6.65 11.64 53.21 93.11h-212.82l53.2-93.11 53.21-93.11z"/>
        <path class="cls-6" d="M1907.39 957.43l53.21 93.11 11.82 20.69 41.38 72.41h-212.82l53.2-93.1 53.21-93.11z"/>
        <path class="cls-17" d="M1960.59 678.12l-53.21-93.11-53.2 93.1-53.2 93.12h212.81l-53.2-93.11z"/>
        <path class="cls-7" d="M1979.93 830.47l33.86-59.24h-212.81l53.2 93.1 53.2 93.11 53.21-93.11 19.34-33.86z"/>
           <animateTransform attributeName="transform"
        type="scale"
        from="0 1"
        to="1 1"
        begin="0s"
        dur="2s"
        repeatCount="0"
      />
      </g>
    </g>
    <g id="Text">
      <g id="Text_Group" data-name="Text Group">
        <text transform="translate(456.24 306.51)" style="mix-blend-mode:multiply" fill="#1e4a7e" font-size="35" font-family="Montserrat-ExtraBold,Montserrat">
          <tspan letter-spacing="-.05em" font-weight="700">W</tspan><tspan class="cls-24" x="39.51" y="0">e p</tspan><tspan class="cls-25" x="96.49" y="0">r</tspan><tspan class="cls-24" x="111.75" y="0">o</tspan><tspan x="135.06" y="0" letter-spacing=".01em" font-weight="700">m</tspan><tspan class="cls-24" x="171.92" y="0">o</tspan><tspan x="195.23" y="0" letter-spacing="-.02em" font-weight="700">t</tspan><tspan class="cls-24" x="210.31" y="0">e </tspan><tspan x="242.97" y="0" letter-spacing=".08em" font-weight="700">f</tspan><tspan class="cls-25" x="259.98" y="0">r</tspan><tspan class="cls-24" x="275.24" y="0">eedom. </tspan><tspan x="424.58" y="0" letter-spacing="-.01em" font-family="Montserrat-Regular,Montserrat">F</tspan><tspan x="446.38" y="0" letter-spacing="-.01em" font-family="Montserrat-Regular,Montserrat">r</tspan><tspan class="cls-31" x="459.96" y="0">eedom </tspan><tspan class="cls-31"><tspan x="0" y="42">of association, </tspan><tspan x="255.43" y="42" letter-spacing=".08em">f</tspan><tspan x="270.09" y="42" letter-spacing="-.01em">r</tspan><tspan x="283.67" y="42">eedom of assembl</tspan><tspan class="cls-34" x="607.21" y="42">y</tspan><tspan x="624.99" y="42">, </tspan><tspan x="0" y="84">a</tspan><tspan class="cls-35" x="20.65" y="84">n</tspan><tspan x="44.41" y="84">d </tspan><tspan x="77.31" y="84" letter-spacing=".08em">f</tspan><tspan class="cls-37" x="91.98" y="84">r</tspan><tspan x="105.56" y="84">eedom of </tspan><tspan class="cls-38" x="282.8" y="84">e</tspan><tspan x="303.41" y="84">xp</tspan><tspan class="cls-37" x="345.83" y="84">r</tspan><tspan x="359.41" y="84">ession. Our </tspan><tspan class="cls-38" x="0" y="126">w</tspan><tspan x="30.24" y="126">o</tspan><tspan class="cls-39" x="52.19" y="126">r</tspan><tspan x="65.94" y="126">k suppo</tspan><tspan class="cls-40" x="206.22" y="126">r</tspan><tspan x="220.78" y="126">ts civil socie</tspan><tspan x="426.68" y="126" letter-spacing="-.01em">t</tspan><tspan class="cls-34" x="440.54" y="126">y</tspan><tspan x="458.32" y="126">, civic </tspan><tspan x="0" y="168" letter-spacing="0">p</tspan><tspan x="23.63" y="168">a</tspan><tspan class="cls-40" x="44.28" y="168">r</tspan><tspan x="58.83" y="168">tici</tspan><tspan x="111.58" y="168" letter-spacing="0">p</tspan><tspan x="135.2" y="168">ation, a</tspan><tspan x="262.36" y="168" letter-spacing="0">n</tspan><tspan x="286.12" y="168">d philanth</tspan><tspan class="cls-37" x="467.52" y="168">r</tspan><tspan x="481.1" y="168">o</tspan><tspan class="cls-38" x="503.05" y="168">p</tspan><tspan x="526.25" y="168">y </tspan><tspan x="0" y="210">in </tspan><tspan x="42.28" y="210" letter-spacing="-.01em">c</tspan><tspan x="61.67" y="210">ount</tspan><tspan class="cls-39" x="145.07" y="210">r</tspan><tspan x="158.83" y="210">ies a</tspan><tspan class="cls-37" x="236.32" y="210">r</tspan><tspan x="249.9" y="210">ou</tspan><tspan class="cls-35" x="295.4" y="210">n</tspan><tspan x="319.16" y="210">d t</tspan><tspan class="cls-35" x="366.27" y="210">h</tspan><tspan x="390.03" y="210">e </tspan><tspan class="cls-38" x="420.34" y="210">w</tspan><tspan x="450.58" y="210">o</tspan><tspan class="cls-39" x="472.53" y="210">r</tspan><tspan x="486.28" y="210">ld.</tspan></tspan>
        </text>
        <g clip-path="url(#clip-path)">
          <image width="3360" height="5240" transform="matrix(.5 0 0 .5 159.13 7.29)" xlink:href="../screencapture-staging-icnl-org-2018-10-07-18_01_47.png"/>
        </g>
        <text class="cls-47" transform="translate(1074.5 658.55)">
          69
        </text>
        <text transform="translate(1072.41 697.73)" font-size="18" font-family="Montserrat-Medium,Montserrat" fill="#fff">
          <tspan letter-spacing=".01em">C</tspan><tspan class="cls-50" x="13.14" y="0">SO Sustainabili</tspan><tspan x="152.96" y="0">t</tspan><tspan class="cls-50" x="160.41" y="0">y </tspan><tspan class="cls-50"><tspan x="0" y="19">I</tspan><tspan x="5.76" y="19" letter-spacing=".01em">n</tspan><tspan x="18.25" y="19">d</tspan><tspan class="cls-52" x="30.71" y="19">e</tspan><tspan class="cls-53" x="41.63" y="19">x </tspan><tspan class="cls-54" x="56.77" y="19">r</tspan><tspan x="64.12" y="19">epo</tspan><tspan class="cls-55" x="99.38" y="19">r</tspan><tspan class="cls-53" x="107.21" y="19">ts </tspan></tspan><tspan class="cls-53"><tspan x="0" y="38">p</tspan><tspan class="cls-54" x="12.46" y="38">r</tspan><tspan x="19.8" y="38">odu</tspan><tspan class="cls-56" x="56.23" y="38">c</tspan><tspan class="cls-50" x="66.55" y="38">ed</tspan></tspan>
        </text>
        <text transform="translate(1396.83 658.51)" font-size="60" font-family="Montserrat-Bold,Montserrat" font-weight="700" fill="#1e4a7e">
          9
        </text>
        <text transform="translate(1394.74 697.68)" font-size="18" font-family="Montserrat-Medium,Montserrat" fill="#1e4a7e">
          <tspan letter-spacing="-.01em">C<tspan x="12.8" y="0" letter-spacing=".01em">ount</tspan><tspan class="cls-61" x="56.84" y="0">r</tspan><tspan class="cls-53" x="64.28" y="0">ies </tspan><tspan class="cls-56" x="94.9" y="0">c</tspan><tspan x="105.21" y="0" letter-spacing="0">ov</tspan><tspan class="cls-50" x="126.52" y="0">e</tspan><tspan class="cls-63" x="137.72" y="0">r</tspan><tspan class="cls-50" x="145.06" y="0">ed </tspan></tspan><tspan class="cls-50"><tspan x="0" y="19">in our Philanth</tspan><tspan class="cls-63" x="138.69" y="19">r</tspan><tspan class="cls-53" x="146.03" y="19">o</tspan><tspan class="cls-52" x="157.64" y="19">p</tspan><tspan x="169.83" y="19">y </tspan></tspan><tspan class="cls-64" x="0" y="38">L</tspan><tspan x="10.93" y="38">a</tspan><tspan class="cls-53" x="21.69" y="38">w Repo</tspan><tspan class="cls-55" x="91.6" y="38">r</tspan><tspan class="cls-53" x="99.43" y="38">ts se</tspan><tspan class="cls-61" x="141.68" y="38">r</tspan><tspan class="cls-50" x="149.11" y="38">ies</tspan>
        </text>
        <text class="cls-47" transform="translate(750.24 658.51)">
          3,9<tspan x="89.46" y="0" letter-spacing="-.04em">4</tspan><tspan x="128.28" y="0">7</tspan>
        </text>
        <text transform="translate(750.18 697.68)" letter-spacing=".01em" font-size="18" font-family="Montserrat-Medium,Montserrat" fill="#fff">
          Docu<tspan class="cls-64" x="49.48" y="0">m</tspan><tspan class="cls-50" x="68.74" y="0">ents in our </tspan><tspan x="0" y="19">onli</tspan><tspan class="cls-64" x="34.45" y="19">n</tspan><tspan x="46.94" y="19">e lib</tspan><tspan class="cls-56" x="86.02" y="19">r</tspan><tspan x="93.44" y="19">a</tspan><tspan class="cls-55" x="104.38" y="19">r</tspan><tspan x="112.21" y="19" letter-spacing="-.02em">y</tspan><tspan class="cls-50" x="121.86" y="19">, </tspan><tspan x="131.15" y="19" letter-spacing=".09em">f</tspan><tspan class="cls-54" x="139.12" y="19">r</tspan><tspan x="146.46" y="19">om </tspan><tspan class="cls-52"><tspan x="0" y="38">ov</tspan><tspan class="cls-53" x="21.31" y="38">er </tspan><tspan x="45.09" y="38">2</tspan><tspan class="cls-53" x="55.55" y="38">00 </tspan><tspan x="84.94" y="38" letter-spacing="0">c</tspan><tspan class="cls-53" x="95.26" y="38">ount</tspan><tspan x="139.3" y="38" letter-spacing="0">r</tspan><tspan class="cls-53" x="146.73" y="38">ies</tspan></tspan>
        </text>
        <text transform="translate(451.24 664.64)" font-size="60" font-family="Montserrat-Bold,Montserrat" font-weight="700" fill="#efedf0">
          64
        </text>
        <text transform="translate(451.24 703.82)" font-size="18" font-family="Montserrat-Medium,Montserrat" fill="#efedf0">
          <tspan class="cls-50">Bills anal</tspan><tspan x="83.16" y="0">y</tspan><tspan class="cls-56" x="93.22" y="0">z</tspan><tspan class="cls-50" x="102.63" y="0">ed in</tspan><tspan class="cls-53"><tspan x="0" y="19">our US </tspan><tspan x="67.35" y="19" letter-spacing="-.01em">P</tspan><tspan class="cls-63" x="80.19" y="19">r</tspan><tspan x="87.53" y="19">o</tspan><tspan x="99.14" y="19" letter-spacing="-.01em">t</tspan><tspan x="106.45" y="19">est</tspan></tspan><tspan class="cls-64" x="0" y="38">L</tspan><tspan x="10.93" y="38">a</tspan><tspan class="cls-53" x="21.69" y="38">w </tspan><tspan x="43.07" y="38" letter-spacing="0">T</tspan><tspan class="cls-56" x="53.59" y="38">r</tspan><tspan class="cls-64" x="61" y="38">a</tspan><tspan class="cls-61" x="72" y="38">c</tspan><tspan x="82.33" y="38" letter-spacing="-.01em">k</tspan><tspan class="cls-50" x="93.2" y="38">er</tspan>
        </text>
      </g>
    </g>
  </g>

</svg>