<svg xmlns="http://www.w3.org/2000/svg" xmlns:xlink="http://www.w3.org/1999/xlink" viewBox="0 0 2000.27 1134.18">
  <defs>
    <style>
      .cls-1 {
        fill: none;
      }

      .cls-2 {
        isolation: isolate;
      }

      .cls-11, .cls-3 {
        opacity: 0.3;
      }

      .cls-4 {
        opacity: 0.3;
      }

      .cls-10, .cls-5, .cls-61, .cls-62 {
        fill: #efedf0;
      }

      .cls-11, .cls-12, .cls-13, .cls-14, .cls-15, .cls-16, .cls-17, .cls-18, .cls-5, .cls-6, .cls-7, .cls-8, .cls-9 {
        mix-blend-mode: multiply;
      }

      .cls-6 {
        fill: #8e8e8d;
      }

      .cls-36, .cls-37, .cls-55, .cls-7 {
        fill: #fff;
      }

      .cls-8 {
        fill: #cfcfce;
      }

      .cls-9 {
        fill: #f1f0f0;
      }

      .cls-11 {
        fill: #333;
      }

      .cls-13 {
        fill: #016f87;
      }

      .cls-14 {
        fill: #f9a357;
      }

      .cls-15 {
        fill: #13b1d3;
      }

      .cls-16 {
        fill: #056f87;
      }

      .cls-17 {
        fill: #efedef;
      }

      .cls-18 {
        font-size: 32px;
        font-family: Montserrat-ExtraBold, Montserrat;
      }

      .cls-18, .cls-46, .cls-47 {
        fill: #1e4a7e;
      }

      .cls-19, .cls-36, .cls-46, .cls-61 {
        font-weight: 700;
      }

      .cls-20 {
        letter-spacing: -0.05em;
      }

      .cls-21 {
        letter-spacing: -0.01em;
      }

      .cls-22 {
        letter-spacing: 0.01em;
      }

      .cls-23 {
        letter-spacing: -0.02em;
      }

      .cls-24 {
        letter-spacing: 0.08em;
      }

      .cls-25 {
        font-family: Montserrat-Regular, Montserrat;
      }

      .cls-26 {
        letter-spacing: -0.01em;
      }

      .cls-27 {
        letter-spacing: -0.01em;
      }

      .cls-28 {
        letter-spacing: -0.03em;
      }

      .cls-29 {
        letter-spacing: 0em;
      }

      .cls-30 {
        letter-spacing: -0.01em;
      }

      .cls-31 {
        letter-spacing: -0.01em;
      }

      .cls-32 {
        letter-spacing: 0.01em;
      }

      .cls-33 {
        letter-spacing: 0em;
      }

      .cls-34 {
        letter-spacing: -0.01em;
      }

      .cls-35 {
        clip-path: url(#clip-path);
      }

      .cls-36, .cls-46, .cls-61 {
        font-size: 60px;
        font-family: Montserrat-Bold, Montserrat;
      }

      .cls-37, .cls-47, .cls-55, .cls-62 {
        font-size: 18px;
        font-family: Montserrat-Medium, Montserrat;
      }

      .cls-38 {
        letter-spacing: 0.01em;
      }

      .cls-39 {
        letter-spacing: 0.01em;
      }

      .cls-40 {
        letter-spacing: 0.01em;
      }

      .cls-41 {
        letter-spacing: 0em;
      }

      .cls-42, .cls-55 {
        letter-spacing: 0.01em;
      }

      .cls-43 {
        letter-spacing: 0em;
      }

      .cls-44 {
        letter-spacing: 0.02em;
      }

      .cls-45 {
        letter-spacing: 0em;
      }

      .cls-48 {
        letter-spacing: -0.01em;
      }

      .cls-49 {
        letter-spacing: 0.01em;
      }

      .cls-50 {
        letter-spacing: 0em;
      }

      .cls-51 {
        letter-spacing: 0em;
      }

      .cls-52 {
        letter-spacing: 0em;
      }

      .cls-53 {
        letter-spacing: 0.01em;
      }

      .cls-54 {
        letter-spacing: -0.04em;
      }

      .cls-56 {
        letter-spacing: -0.02em;
      }

      .cls-57 {
        letter-spacing: 0.09em;
      }

      .cls-58 {
        letter-spacing: 0.01em;
      }

      .cls-59 {
        letter-spacing: 0em;
      }

      .cls-60 {
        letter-spacing: 0em;
      }

      .cls-63 {
        letter-spacing: -0.01em;
      }

      .cls-64 {
        letter-spacing: -0.01em;
      }

      .cls-65 {
        letter-spacing: 0em;
      }

      .cls-66 {
        letter-spacing: -0.01em;
      }
    </style>
    <clipPath id="clip-path">
      <rect class="cls-1" x="414.13" y="30.41" width="322.6" height="87"/>
    </clipPath>
  </defs>
  <title>Artboard 157</title>
  <g class="cls-2">
    <g id="Tiles">
      <g id="Gray" class="cls-3">
        <g class="cls-4">
          <polygon class="cls-5" points="251.48 558.92 251.47 558.92 331.2 698.44 410.93 837.96 472.94 729.45 490.65 698.44 570.37 558.92 410.93 558.92 251.48 558.92"/>
          <polygon class="cls-6" points="92.03 -278.17 92.03 -278.17 171.75 -138.66 251.48 0.86 313.49 -107.65 331.2 -138.66 410.92 -278.17 251.48 -278.17 92.03 -278.17"/>
          <polygon class="cls-5" points="92.03 0.86 251.47 0.86 171.75 -138.66 92.03 -278.17 12.3 -138.66 -67.42 0.86 -67.43 0.86 -67.42 0.86 92.03 0.86 92.03 0.86"/>
          <polygon class="cls-7" points="92.03 279.89 92.03 279.9 92.03 279.9 92.03 279.89"/>
          <polygon class="cls-8" points="331.2 140.37 251.48 0.86 171.75 140.37 161.79 157.81 92.03 279.9 251.48 279.9 410.92 279.9 410.93 279.9 331.2 140.37"/>
          <polygon class="cls-5" points="92.03 0.86 92.03 0.86 -67.42 0.86 12.3 140.37 92.03 279.89 92.03 279.9 161.79 157.81 171.75 140.37 251.48 0.86 251.47 0.86 92.03 0.86"/>
          <polygon class="cls-7" points="92.03 279.9 92.03 279.9 171.75 419.42 251.48 558.93 313.49 450.42 331.2 419.42 410.92 279.9 251.48 279.9 92.03 279.9"/>
          <polygon class="cls-8" points="92.03 279.9 12.3 419.42 -67.42 558.93 -67.43 558.93 92.03 558.93 251.47 558.93 171.75 419.42 92.03 279.9"/>
          <polygon class="cls-7" points="92.03 1396.03 92.02 1396.03 171.75 1256.51 251.47 1117 313.48 1225.51 331.2 1256.51 410.92 1396.03 251.47 1396.03 92.03 1396.03"/>
          <polygon class="cls-7" points="92.03 1117 251.47 1117 171.75 1256.51 92.02 1396.03 12.3 1256.51 -67.42 1117 -67.43 1117 -67.42 1117 92.02 1117 92.03 1117"/>
          <polygon class="cls-7" points="92.03 837.97 92.02 837.95 92.03 837.95 92.03 837.97"/>
          <polygon class="cls-6" points="331.2 977.48 251.47 1117 171.75 977.48 161.79 960.04 92.03 837.95 251.47 837.95 410.92 837.95 410.93 837.95 331.2 977.48"/>
          <polygon class="cls-5" points="92.03 1117 92.02 1117 -67.42 1117 12.3 977.48 92.03 837.97 92.03 837.95 161.79 960.04 171.75 977.48 251.47 1117 251.47 1117 92.03 1117"/>
          <polygon class="cls-6" points="92.03 837.95 92.02 837.95 171.75 698.44 251.47 558.92 313.48 667.43 331.2 698.44 410.92 837.95 251.47 837.95 92.03 837.95"/>
          <polygon class="cls-5" points="92.02 837.95 12.3 698.44 -67.42 558.92 -67.43 558.92 92.02 558.92 251.47 558.92 171.75 698.44 92.02 837.95"/>
          <polygon class="cls-7" points="1939.77 165 2005.41 279.9 1845.97 279.9 1686.52 279.9 1686.52 279.9 1766.24 140.38 1845.97 0.86 1925.7 140.38 1939.77 165"/>
          <polygon class="cls-6" points="1845.97 279.9 2005.42 279.9 1925.7 419.43 1845.97 558.93 1845.96 558.94 1780.32 444.05 1766.24 419.43 1686.52 279.9 1686.52 279.9 1845.96 279.9 1845.97 279.9"/>
          <polygon class="cls-6" points="2005.41 -278.17 2005.43 -278.17 1925.7 -138.66 1845.97 0.86 1781.58 -111.83 1766.25 -138.66 1733.03 -196.79 1686.52 -278.17 1845.97 -278.17 2005.41 -278.17"/>
          <polygon class="cls-8" points="1686.51 279.91 1742.32 377.56 1766.23 419.42 1845.95 558.94 1686.51 558.94 1527.06 558.94 1527.06 558.94 1606.78 419.42 1686.51 279.91"/>
          <polygon class="cls-7" points="1367.61 279.91 1447.33 419.42 1527.06 558.94 1367.61 558.94 1208.16 558.94 1208.16 558.94 1208.16 558.94 1287.88 419.42 1367.61 279.91"/>
          <polygon class="cls-5" points="1048.71 279.91 1128.43 419.42 1208.16 558.94 1048.71 558.94 889.27 558.94 889.26 558.94 968.99 419.42 1048.71 279.91"/>
          <polygon class="cls-5" points="729.81 279.89 809.54 419.42 846.33 483.81 889.26 558.94 729.81 558.94 570.37 558.94 650.09 419.42 729.81 279.89"/>
          <polygon class="cls-5" points="504.71 444.04 570.35 558.94 410.92 558.94 251.46 558.94 251.46 558.94 331.19 419.42 410.92 279.89 490.64 419.42 504.71 444.04"/>
          <polygon class="cls-8" points="570.37 558.94 570.35 558.94 570.36 558.92 570.37 558.94"/>
          <polygon class="cls-7" points="570.37 279.89 729.81 279.89 650.09 419.42 570.36 558.92 570.35 558.94 504.71 444.04 490.64 419.42 410.92 279.89 410.92 279.89 570.35 279.89 570.37 279.89"/>
          <polygon class="cls-5" points="809.54 419.42 729.81 279.89 729.82 279.89 889.26 279.89 889.27 279.89 1048.7 279.89 968.98 419.42 889.26 558.94 889.26 558.94 846.33 483.81 809.54 419.42"/>
          <polygon class="cls-7" points="1048.71 279.91 1048.7 279.89 1048.71 279.89 1208.16 279.89 1208.16 279.89 1367.6 279.89 1287.88 419.42 1208.16 558.94 1128.43 419.42 1048.71 279.91"/>
          <polygon class="cls-7" points="1367.61 279.91 1367.6 279.89 1367.61 279.89 1527.06 279.89 1527.06 279.89 1686.5 279.89 1606.78 419.42 1527.06 558.94 1447.33 419.42 1367.61 279.91"/>
          <polygon class="cls-7" points="570.35 0.86 570.37 0.86 490.64 140.38 410.92 279.89 346.52 167.21 331.19 140.38 297.97 82.25 251.46 0.86 410.92 0.86 570.35 0.86"/>
          <polygon class="cls-7" points="889.26 0.86 889.26 0.86 889.27 0.86 809.54 140.38 729.81 279.89 650.09 140.38 570.37 0.86 729.81 0.86 889.26 0.86"/>
          <polygon class="cls-8" points="1208.16 0.86 1208.16 0.86 1128.43 140.38 1048.71 279.89 989.97 177.09 968.99 140.38 935.77 82.25 889.27 0.86 1048.71 0.86 1208.16 0.86"/>
          <polygon class="cls-8" points="1251.09 75.99 1208.16 0.86 1367.61 0.86 1527.06 0.86 1447.33 140.38 1367.61 279.89 1287.89 140.38 1251.09 75.99"/>
          <polygon class="cls-6" points="1592.72 115.76 1527.06 0.86 1686.51 0.86 1845.95 0.86 1845.96 0.86 1766.23 140.38 1686.51 279.89 1606.79 140.38 1592.72 115.76"/>
          <polygon class="cls-6" points="1527.06 0.88 1527.06 0.86 1527.06 0.86 1527.06 0.88"/>
          <polygon class="cls-6" points="1527.06 0.88 1527.06 0.86 1592.72 115.76 1606.79 140.38 1686.51 279.89 1686.5 279.89 1527.06 279.89 1527.06 279.89 1367.61 279.89 1447.33 140.38 1527.06 0.88"/>
          <polygon class="cls-8" points="1208.16 0.86 1208.16 0.86 1251.09 75.99 1287.89 140.38 1367.61 279.89 1367.6 279.89 1208.16 279.89 1208.16 279.89 1048.71 279.89 1128.44 140.38 1208.16 0.86"/>
          <polygon class="cls-8" points="889.27 0.86 935.77 82.25 968.99 140.38 989.97 177.09 1048.71 279.89 1048.71 279.89 1048.7 279.89 889.27 279.89 889.26 279.89 729.82 279.89 809.54 140.38 889.27 0.86"/>
          <polygon class="cls-7" points="570.37 0.86 650.09 140.38 729.81 279.89 729.82 279.89 729.81 279.89 570.37 279.89 570.35 279.89 410.92 279.89 490.64 140.38 570.37 0.86"/>
          <polygon class="cls-6" points="1686.51 -278.17 1742.32 -180.51 1766.23 -138.65 1845.95 0.86 1686.51 0.86 1527.06 0.86 1527.06 0.86 1606.78 -138.65 1686.51 -278.17"/>
          <polygon class="cls-6" points="1287.88 -138.65 1367.61 -278.17 1447.33 -138.65 1527.06 0.86 1367.61 0.86 1208.16 0.86 1208.16 0.86 1208.16 0.86 1287.88 -138.65"/>
          <polygon class="cls-8" points="1048.71 -278.17 1128.43 -138.65 1208.16 0.86 1048.71 0.86 889.27 0.86 889.26 0.86 968.99 -138.65 1048.71 -278.17"/>
          <polygon class="cls-5" points="846.33 -74.26 889.26 0.86 729.81 0.86 570.37 0.86 650.09 -138.65 729.81 -278.17 809.54 -138.65 846.33 -74.26"/>
          <polygon class="cls-6" points="570.35 0.86 570.36 0.85 570.37 0.86 570.35 0.86"/>
          <polygon class="cls-5" points="504.71 -114.03 570.35 0.86 410.92 0.86 251.46 0.86 251.46 0.86 331.19 -138.65 410.92 -278.17 490.64 -138.65 504.71 -114.03"/>
          <polygon class="cls-5" points="570.37 -278.17 729.81 -278.17 650.09 -138.65 570.36 0.85 570.35 0.86 504.71 -114.03 490.64 -138.65 410.92 -278.17 410.92 -278.17 570.35 -278.17 570.37 -278.17"/>
          <polygon class="cls-5" points="889.27 -278.17 1048.7 -278.17 968.98 -138.65 889.26 0.86 889.26 0.86 846.33 -74.26 809.54 -138.65 729.81 -278.17 729.82 -278.17 889.26 -278.17 889.27 -278.17"/>
          <polygon class="cls-7" points="1208.16 -278.17 1367.6 -278.17 1287.88 -138.65 1208.16 0.86 1128.43 -138.65 1048.71 -278.17 1048.7 -278.17 1048.71 -278.17 1208.16 -278.17 1208.16 -278.17"/>
          <polygon class="cls-7" points="1367.61 -278.17 1367.6 -278.17 1367.61 -278.17 1527.06 -278.17 1527.06 -278.17 1686.5 -278.17 1606.78 -138.65 1527.06 0.86 1447.33 -138.65 1367.61 -278.17"/>
          <polygon class="cls-9" points="410.93 1117 570.37 1117 490.65 1256.51 410.92 1396.01 410.91 1396.03 345.27 1281.13 331.2 1256.51 251.47 1117 251.47 1117 410.91 1117 410.93 1117"/>
          <polygon class="cls-8" points="410.93 837.95 490.65 977.48 570.37 1116.98 570.38 1117 570.37 1117 410.93 1117 410.91 1117 251.47 1117 331.2 977.48 410.93 837.95"/>
          <polygon class="cls-5" points="729.84 837.95 809.57 977.48 889.29 1116.98 889.3 1117 889.29 1117 729.84 1117 729.83 1117 570.39 1117 650.11 977.48 729.84 837.95"/>
          <polygon class="cls-8" points="1058.56 837.95 1138.28 977.48 1218.01 1116.98 1218.01 1117 1218.01 1117 1058.56 1117 1058.55 1117 899.11 1117 978.83 977.48 1058.56 837.95"/>
          <polygon class="cls-7" points="1686.54 1396.02 1686.53 1396.02 1766.26 1256.5 1845.98 1116.98 1907.99 1225.49 1925.71 1256.5 2005.43 1396.02 1845.98 1396.02 1686.54 1396.02"/>
          <polygon class="cls-7" points="1367.64 1396.02 1367.64 1396.02 1367.63 1396.02 1447.36 1256.5 1527.09 1116.98 1606.81 1256.5 1686.53 1396.02 1527.09 1396.02 1367.64 1396.02"/>
          <polygon class="cls-7" points="1208.19 1116.98 1287.91 1256.5 1367.63 1396.02 1208.19 1396.02 1048.74 1396.02 1048.73 1396.02 1048.73 1396.02 1128.46 1256.5 1208.19 1116.98"/>
          <polygon class="cls-7" points="998 1307.24 1048.73 1396.02 889.29 1396.02 729.84 1396.02 809.57 1256.5 889.29 1116.98 969.01 1256.5 998 1307.24"/>
          <polygon class="cls-7" points="660.08 1273.94 729.83 1396.02 570.39 1396.02 410.94 1396.02 410.94 1396.02 490.66 1256.5 570.39 1116.98 650.11 1256.5 660.08 1273.94"/>
          <polygon class="cls-7" points="729.84 1116.98 889.29 1116.98 809.57 1256.5 729.84 1396.02 729.83 1396.02 660.08 1273.94 650.11 1256.5 570.39 1116.98 570.39 1116.98 729.83 1116.98 729.84 1116.98"/>
          <polygon class="cls-7" points="1048.74 1116.98 1208.18 1116.98 1128.46 1256.5 1048.73 1396.02 1048.73 1396.02 998 1307.24 969.01 1256.5 889.29 1116.98 889.3 1116.98 1048.73 1116.98 1048.74 1116.98"/>
          <polygon class="cls-7" points="1367.64 1116.98 1527.08 1116.98 1447.36 1256.5 1367.63 1396.02 1287.91 1256.5 1208.19 1116.98 1208.18 1116.98 1208.19 1116.98 1367.63 1116.98 1367.64 1116.98"/>
          <polygon class="cls-7" points="1686.54 1116.98 1845.98 1116.98 1766.26 1256.5 1686.53 1396.02 1606.81 1256.5 1527.09 1116.98 1527.08 1116.98 1527.09 1116.98 1686.53 1116.98 1686.54 1116.98"/>
          <polygon class="cls-8" points="729.83 837.94 729.84 837.94 650.11 977.47 570.39 1116.98 494.29 983.8 490.67 977.47 480.7 960.03 410.94 837.94 570.39 837.94 729.83 837.94"/>
          <polygon class="cls-8" points="650.08 977.47 570.35 1116.98 490.63 977.47 410.91 837.94 570.35 837.94 729.8 837.94 729.8 837.94 729.8 837.94 650.08 977.47"/>
          <polygon class="cls-7" points="1287.91 977.47 1208.19 1116.98 1133.78 986.76 1128.46 977.47 1118.5 960.03 1048.74 837.94 1208.19 837.94 1367.63 837.94 1367.64 837.94 1287.91 977.47"/>
          <polygon class="cls-7" points="968.98 977.47 889.26 1116.98 814.84 986.76 809.53 977.47 799.57 960.03 729.81 837.94 889.26 837.94 1048.7 837.94 1048.71 837.94 968.98 977.47"/>
          <polygon class="cls-10" points="1527.09 1116.98 1447.36 977.47 1418.37 926.73 1367.64 837.94 1527.09 837.94 1686.53 837.94 1606.81 977.47 1527.09 1116.98"/>
          <polygon class="cls-5" points="1686.54 1116.98 1686.53 1116.98 1527.09 1116.98 1606.81 977.47 1686.54 837.95 1686.54 837.94 1756.3 960.03 1766.26 977.47 1845.98 1116.98 1845.98 1116.98 1686.54 1116.98"/>
          <polygon class="cls-5" points="998 749.16 1048.73 837.94 889.29 837.94 729.84 837.94 809.57 698.43 889.29 558.91 969.01 698.43 998 749.16"/>
          <polygon class="cls-5" points="679.06 749.16 729.8 837.94 570.35 837.94 410.91 837.94 490.63 698.43 570.35 558.91 650.08 698.43 679.06 749.16"/>
        </g>
        <polygon class="cls-5" points="1367.64 1116.98 1367.63 1116.98 1208.19 1116.98 1287.92 977.47 1367.64 837.94 1367.64 837.94 1418.37 926.73 1447.36 977.47 1527.09 1116.98 1527.08 1116.98 1367.64 1116.98"/>
        <polygon class="cls-5" points="1686.54 837.94 1686.53 837.94 1766.26 698.43 1845.98 558.91 1907.99 667.42 1925.71 698.43 2005.43 837.94 1845.98 837.94 1686.54 837.94"/>
        <polygon class="cls-5" points="1367.64 837.94 1367.64 837.94 1367.63 837.94 1447.36 698.43 1527.09 558.91 1606.81 698.43 1686.53 837.94 1527.09 837.94 1367.64 837.94"/>
        <polygon class="cls-5" points="729.84 837.94 729.83 837.94 660.08 715.87 650.11 698.43 570.39 558.91 729.83 558.91 889.29 558.91 809.57 698.43 729.84 837.94"/>
        <polygon class="cls-5" points="1048.73 837.94 1048.73 837.94 998 749.16 969.01 698.43 889.29 558.91 1048.73 558.91 1208.18 558.91 1128.46 698.43 1048.73 837.94"/>
        <polygon class="cls-7" points="1048.74 837.94 1118.5 960.03 1128.46 977.47 1133.78 986.76 1208.19 1116.98 1208.19 1116.98 1208.18 1116.98 1048.74 1116.98 1048.73 1116.98 889.3 1116.98 969.01 977.47 1048.74 837.94"/>
        <polygon class="cls-7" points="729.84 837.94 809.57 977.47 889.29 1116.98 889.3 1116.98 889.29 1116.98 729.84 1116.98 729.83 1116.98 570.39 1116.98 650.11 977.47 729.84 837.94"/>
        <polygon class="cls-7" points="1048.74 837.94 1048.73 837.94 1048.73 837.94 1128.46 698.43 1208.19 558.91 1287.91 698.43 1367.63 837.94 1208.19 837.94 1048.74 837.94"/>
        <polygon class="cls-7" points="660.08 715.87 729.83 837.94 570.39 837.94 410.94 837.94 410.94 837.94 490.66 698.43 570.39 558.91 650.11 698.43 660.08 715.87"/>
        <polygon class="cls-5" points="1367.63 837.94 1287.91 698.43 1208.19 558.91 1208.18 558.91 1367.63 558.91 1527.08 558.91 1447.36 698.43 1367.63 837.94"/>
        <polygon class="cls-7" points="1686.53 837.94 1606.81 698.43 1527.09 558.91 1527.08 558.91 1686.53 558.91 1845.98 558.91 1766.26 698.43 1686.53 837.94"/>
        <g class="cls-4">
          <polygon class="cls-7" points="26.36 164.98 92 279.87 -67.43 279.87 -226.89 279.87 -226.89 279.87 -147.16 140.36 -67.43 0.83 12.29 140.36 26.36 164.98"/>
          <polygon class="cls-8" points="92.02 279.87 92 279.87 92.01 279.86 92.02 279.87"/>
          <polygon class="cls-6" points="-67.43 279.87 92.01 279.87 12.29 419.4 -67.44 558.9 -67.45 558.92 -133.09 444.02 -147.16 419.4 -226.89 279.87 -226.89 279.87 -67.45 279.87 -67.43 279.87"/>
          <polygon class="cls-6" points="92 -278.2 92.02 -278.2 12.29 -138.69 -67.43 0.83 -131.83 -111.86 -147.16 -138.69 -180.38 -196.82 -226.89 -278.2 -67.43 -278.2 92 -278.2"/>
          <polygon class="cls-6" points="-226.87 1395.99 -226.88 1395.99 -147.15 1256.47 -67.42 1116.96 -5.42 1225.46 12.3 1256.47 92.02 1395.99 -67.42 1395.99 -226.87 1395.99"/>
        </g>
        <polygon class="cls-7" points="10.85 837.91 10.84 837.91 90.56 698.4 170.29 558.88 232.3 667.39 250.02 698.4 329.74 837.91 170.29 837.91 10.85 837.91"/>
        <polygon class="cls-11" points="12.3 977.44 -67.42 1116.96 -147.15 977.44 -157.11 960 -226.87 837.91 -67.42 837.91 92.02 837.91 92.03 837.91 12.3 977.44"/>
        <g class="cls-4">
          <polygon class="cls-8" points="2006.34 0.83 2165.78 0.83 2086.06 -138.69 2006.34 -278.2 1926.61 -138.69 1846.89 0.83 1846.88 0.83 1846.89 0.83 2006.34 0.83 2006.34 0.83"/>
          <polygon class="cls-6" points="2006.34 0.83 2006.34 0.83 1846.89 0.83 1926.61 140.34 2006.34 279.86 2006.34 279.87 2076.1 157.78 2086.07 140.34 2165.79 0.83 2165.78 0.83 2006.34 0.83"/>
          <polygon class="cls-7" points="2006.34 279.87 1926.61 419.39 1846.89 558.9 1846.88 558.9 2006.34 558.9 2165.78 558.9 2086.06 419.39 2006.34 279.87"/>
          <polygon class="cls-7" points="2006.34 1116.97 2006.33 1116.97 1846.89 1116.97 1926.61 977.46 2006.34 837.94 2006.34 837.93 2076.1 960.02 2086.06 977.46 2165.79 1116.97 2165.78 1116.97 2006.34 1116.97"/>
          <polygon class="cls-7" points="2006.33 837.93 1926.61 698.41 1846.89 558.9 1846.88 558.9 2006.33 558.9 2165.78 558.9 2086.06 698.41 2006.33 837.93"/>
        </g>
      </g>
      <g id="Color" class="cls-12">
        <polygon class="cls-7" points="1686.54 837.95 1686.53 837.94 1686.54 837.94 1686.54 837.95"/>
        <polygon class="cls-7" points="-16.7 1216.55 -67.43 1305.34 92.01 1305.34 251.46 1305.34 171.74 1165.82 92.01 1026.31 12.29 1165.82 -16.7 1216.55"/>
        <polygon class="cls-7" points="251.46 1026.31 92.01 1026.31 171.74 1165.82 251.47 1305.32 251.47 1305.34 321.22 1183.26 331.19 1165.82 410.91 1026.31 410.91 1026.31 251.47 1026.31 251.46 1026.31"/>
        <polygon class="cls-5" points="12.29 886.78 92.01 1026.29 171.74 886.79 251.46 747.26 92.01 747.26 -67.43 747.26 -67.43 747.26 -67.43 747.26 12.29 886.78"/>
        <polygon class="cls-13" points="251.46 747.26 171.74 886.79 92.01 1026.29 92.01 1026.31 92.01 1026.31 251.46 1026.31 251.47 1026.31 410.91 1026.31 331.19 886.79 251.46 747.26"/>
        <polygon class="cls-14" points="-16.7 658.49 -67.43 747.26 92.01 747.26 251.46 747.26 171.74 607.75 92.01 468.23 12.29 607.75 -16.7 658.49"/>
        <polygon class="cls-14" points="251.47 747.26 251.47 747.26 321.22 625.18 331.19 607.75 410.91 468.23 251.47 468.23 92.01 468.23 171.74 607.75 251.47 747.26"/>
        <polygon class="cls-5" points="570.11 747.26 570.12 747.26 639.87 625.18 649.84 607.75 729.56 468.23 570.12 468.23 410.66 468.23 490.38 607.75 570.11 747.26"/>
        <polygon class="cls-7" points="889.29 1305.32 889.3 1305.32 809.58 1165.8 729.85 1026.29 667.85 1134.79 650.13 1165.8 570.4 1305.32 729.85 1305.32 889.29 1305.32"/>
        <polygon class="cls-7" points="1208.19 1305.32 1208.19 1305.32 1208.2 1305.32 1128.48 1165.8 1048.75 1026.29 969.02 1165.8 889.3 1305.32 1048.75 1305.32 1208.19 1305.32"/>
        <polygon class="cls-7" points="1367.65 1026.29 1287.92 1165.8 1208.2 1305.32 1367.65 1305.32 1527.09 1305.32 1527.1 1305.32 1527.1 1305.32 1447.37 1165.8 1367.65 1026.29"/>
        <polygon class="cls-7" points="1577.84 1216.53 1527.11 1305.32 1686.54 1305.32 1845.99 1305.32 1766.27 1165.8 1686.54 1026.29 1606.82 1165.8 1577.84 1216.53"/>
        <polygon class="cls-7" points="1845.99 1026.29 1686.54 1026.29 1766.27 1165.8 1846 1305.3 1846 1305.32 1915.75 1183.24 1925.72 1165.8 2005.44 1026.29 2005.44 1026.29 1846 1026.29 1845.99 1026.29"/>
        <polygon class="cls-7" points="1527.09 1026.29 1367.65 1026.29 1447.38 1165.8 1527.11 1305.32 1527.11 1305.32 1577.84 1216.53 1606.82 1165.8 1686.54 1026.29 1686.54 1026.29 1527.11 1026.29 1527.09 1026.29"/>
        <polygon class="cls-7" points="1208.19 1026.29 1048.75 1026.29 1128.48 1165.8 1208.2 1305.32 1287.92 1165.8 1367.65 1026.29 1367.65 1026.29 1367.65 1026.29 1208.2 1026.29 1208.19 1026.29"/>
        <polygon class="cls-7" points="570.4 1305.32 650.13 1165.8 667.85 1134.79 729.85 1026.29 729.86 1026.29 729.85 1026.29 570.4 1026.29 570.4 1026.29 410.96 1026.29 490.68 1165.8 570.4 1305.32"/>
        <polygon class="cls-15" points="1606.82 886.76 1686.54 1026.27 1766.27 886.77 1845.99 747.24 1686.54 747.24 1527.11 747.24 1527.1 747.24 1527.1 747.24 1606.82 886.76"/>
        <polygon class="cls-5" points="1287.92 886.76 1367.65 1026.29 1442.06 896.07 1447.37 886.76 1457.34 869.33 1527.09 747.24 1367.65 747.24 1208.2 747.24 1208.19 747.24 1287.92 886.76"/>
        <polygon class="cls-14" points="1048.75 1026.29 1128.47 886.76 1157.46 836.03 1208.19 747.24 1048.75 747.24 889.3 747.24 969.02 886.76 1048.75 1026.29"/>
        <polygon class="cls-5" points="889.3 747.25 889.3 747.24 889.29 747.24 889.3 747.25"/>
        <polygon class="cls-15" points="650.13 886.76 729.85 1026.29 809.57 886.76 819.54 869.33 889.29 747.24 729.85 747.24 570.4 747.24 570.4 747.24 650.13 886.76"/>
        <polygon class="cls-5" points="570.4 1026.29 729.85 1026.29 650.13 886.77 570.4 747.25 570.4 747.24 503.43 864.44 490.67 886.77 410.95 1026.29 410.96 1026.29 570.4 1026.29 570.4 1026.29"/>
        <polygon class="cls-14" points="1208.19 1026.29 1208.2 1026.29 1367.65 1026.29 1287.92 886.77 1208.19 747.24 1208.19 747.24 1157.46 836.03 1128.47 886.77 1048.75 1026.29 1048.75 1026.29 1208.19 1026.29"/>
        <polygon class="cls-5" points="1527.09 747.24 1457.34 869.33 1447.37 886.77 1442.06 896.07 1367.65 1026.29 1367.65 1026.29 1367.65 1026.29 1527.09 1026.29 1527.11 1026.29 1686.54 1026.29 1606.82 886.77 1527.09 747.24"/>
        <polygon class="cls-14" points="1845.99 747.24 1766.27 886.77 1686.54 1026.27 1686.54 1026.29 1686.54 1026.29 1845.99 1026.29 1846 1026.29 2005.44 1026.29 1925.72 886.77 1845.99 747.24"/>
        <polygon class="cls-14" points="1208.19 747.24 1208.19 747.24 1208.2 747.24 1128.48 607.73 1048.75 468.21 969.02 607.73 889.3 747.24 1048.75 747.24 1208.19 747.24"/>
        <polygon class="cls-5" points="1527.09 747.24 1527.1 747.24 1527.1 747.24 1447.37 607.73 1367.65 468.21 1287.92 607.73 1208.2 747.24 1367.65 747.24 1527.09 747.24"/>
        <polygon class="cls-15" points="1577.84 658.46 1527.11 747.24 1686.54 747.24 1845.99 747.24 1766.27 607.73 1686.54 468.21 1606.82 607.73 1577.84 658.46"/>
        <polygon class="cls-15" points="1846 747.24 1846 747.24 1915.75 625.16 1925.72 607.73 2005.44 468.21 1846 468.21 1686.54 468.21 1766.27 607.73 1846 747.24"/>
        <polygon class="cls-5" points="1527.11 747.24 1527.11 747.24 1577.84 658.46 1606.82 607.73 1686.54 468.21 1527.11 468.21 1367.65 468.21 1447.38 607.73 1527.11 747.24"/>
        <polygon class="cls-5" points="889.3 747.24 969.02 607.73 1048.75 468.21 1048.75 468.21 889.3 468.21 729.86 468.21 809.58 607.73 889.3 747.24"/>
        <polygon class="cls-15" points="1845.98 189.18 1790.17 286.84 1766.27 328.7 1686.54 468.21 1845.98 468.21 2005.43 468.21 2005.43 468.21 1925.71 328.7 1845.98 189.18"/>
        <polygon class="cls-13" points="1949.6 7.83 2005.41 -89.82 2005.42 -89.84 2005.41 -89.84 1845.96 -89.84 1845.96 -89.84 1686.52 -89.84 1766.24 49.68 1845.96 189.21 1925.69 49.68 1949.6 7.83"/>
        <polygon class="cls-5" points="570.37 189.21 514.57 286.87 490.66 328.72 410.93 468.24 570.37 468.24 729.82 468.24 729.83 468.24 650.1 328.72 570.37 189.21"/>
        <polygon class="cls-5" points="889.28 189.21 809.55 328.71 729.83 468.24 889.28 468.24 1048.72 468.24 1048.72 468.24 1048.72 468.24 969 328.72 889.28 189.21"/>
        <polygon class="cls-15" points="1208.17 189.21 1128.45 328.71 1048.72 468.24 1208.17 468.24 1367.62 468.24 1367.62 468.24 1287.89 328.72 1208.17 189.21"/>
        <polygon class="cls-13" points="1527.07 189.19 1447.35 328.72 1410.55 393.11 1367.63 468.24 1527.07 468.24 1686.52 468.24 1606.79 328.72 1527.07 189.19"/>
        <polygon class="cls-16" points="1367.62 468.24 1367.63 468.24 1367.62 468.23 1367.62 468.24"/>
        <polygon class="cls-17" points="1686.52 468.24 1686.53 468.24 1686.52 468.23 1686.52 468.24"/>
        <polygon class="cls-15" points="1686.52 189.19 1527.07 189.19 1606.79 328.71 1686.52 468.23 1686.53 468.24 1752.18 353.34 1766.24 328.71 1845.97 189.19 1845.96 189.19 1686.53 189.19 1686.52 189.19"/>
        <polygon class="cls-13" points="1447.35 328.71 1527.07 189.19 1527.06 189.19 1367.63 189.19 1367.62 189.19 1208.18 189.19 1287.9 328.71 1367.62 468.23 1367.63 468.24 1410.55 393.11 1447.35 328.71"/>
        <polygon class="cls-15" points="1208.17 189.21 1208.18 189.19 1208.17 189.19 1048.72 189.19 1048.72 189.19 889.28 189.19 969 328.71 1048.72 468.24 1128.45 328.71 1208.17 189.21"/>
        <polygon class="cls-5" points="889.28 189.21 889.28 189.19 889.28 189.19 729.83 189.19 729.82 189.19 570.38 189.19 650.1 328.71 729.83 468.24 809.55 328.71 889.28 189.21"/>
        <polygon class="cls-5" points="514.57 286.87 570.37 189.21 570.38 189.19 570.37 189.19 410.93 189.19 410.92 189.19 251.48 189.19 331.2 328.71 410.93 468.24 490.66 328.71 514.57 286.87"/>
        <polygon class="cls-13" points="1367.63 -89.84 1367.62 -89.84 1367.62 -89.84 1447.35 49.68 1527.07 189.19 1606.79 49.69 1686.52 -89.84 1527.07 -89.84 1367.63 -89.84"/>
        <polygon class="cls-15" points="1048.72 -89.84 1048.72 -89.84 1128.45 49.68 1208.17 189.19 1266.92 86.39 1287.89 49.69 1321.11 -8.45 1367.62 -89.84 1208.17 -89.84 1048.72 -89.84"/>
        <polygon class="cls-13" points="1005.79 -14.71 1048.72 -89.84 889.28 -89.84 729.83 -89.84 809.54 49.68 889.28 189.19 969 49.68 1005.79 -14.71"/>
        <polygon class="cls-13" points="664.17 25.06 729.82 -89.84 570.37 -89.84 410.93 -89.84 410.92 -89.84 490.65 49.68 570.37 189.19 650.1 49.68 664.17 25.06"/>
        <polygon class="cls-13" points="410.92 -89.84 410.92 -89.84 348.92 18.68 331.2 49.69 251.47 189.19 251.48 189.19 410.92 189.19 410.93 189.19 570.37 189.19 490.65 49.69 410.92 -89.84"/>
        <polygon class="cls-13" points="729.83 -89.82 729.82 -89.84 664.17 25.06 650.1 49.69 570.37 189.19 570.38 189.19 729.82 189.19 729.83 189.19 889.28 189.19 809.54 49.69 729.83 -89.82"/>
        <polygon class="cls-15" points="1048.72 -89.84 1048.72 -89.84 1005.79 -14.71 969 49.69 889.28 189.19 889.28 189.19 1048.72 189.19 1048.72 189.19 1208.17 189.19 1128.45 49.69 1048.72 -89.84"/>
        <polygon class="cls-13" points="1367.62 -89.84 1321.11 -8.45 1287.89 49.69 1266.92 86.39 1208.17 189.19 1208.17 189.19 1208.18 189.19 1367.62 189.19 1367.63 189.19 1527.06 189.19 1447.35 49.69 1367.62 -89.84"/>
        <polygon class="cls-13" points="1686.52 -89.84 1606.79 49.69 1527.07 189.19 1527.06 189.19 1527.07 189.19 1686.52 189.19 1686.53 189.19 1845.96 189.19 1766.24 49.69 1686.52 -89.84"/>
        <polygon class="cls-15" points="12.31 49.68 92.03 -89.84 171.75 49.67 251.48 189.19 92.03 189.19 -67.41 189.19 -67.42 189.19 -67.42 189.19 12.31 49.68"/>
        <polygon class="cls-13" points="251.48 189.19 171.75 49.67 92.03 -89.84 92.02 -89.85 92.03 -89.85 251.48 -89.85 251.49 -89.85 410.93 -89.85 331.21 49.67 251.48 189.19"/>
        <polygon class="cls-13" points="-16.68 277.97 -67.41 189.19 92.03 189.19 251.48 189.19 171.75 328.71 92.03 468.23 12.31 328.71 -16.68 277.97"/>
        <polygon class="cls-15" points="251.48 189.19 251.49 189.19 321.24 311.27 331.21 328.71 410.93 468.23 251.49 468.23 92.03 468.23 171.75 328.71 251.48 189.19"/>
        <polygon class="cls-7" points="410.96 1026.29 490.69 1165.81 508.41 1196.82 570.41 1305.32 570.41 1305.32 410.96 1305.32 251.52 1305.32 331.24 1165.81 410.96 1026.29"/>
        <polygon class="cls-5" points="490.68 607.76 410.96 468.25 331.23 607.75 251.51 747.28 410.96 747.28 570.39 747.28 570.4 747.28 570.4 747.28 490.68 607.76"/>
        <polygon class="cls-14" points="519.66 836.05 570.39 747.28 410.96 747.28 251.51 747.28 331.23 886.79 410.96 1026.31 490.68 886.79 519.66 836.05"/>
        <polygon class="cls-7" points="889.29 1026.29 729.86 1026.29 809.58 1165.8 889.3 1305.32 969.02 1165.8 1048.75 1026.29 1048.75 1026.29 1048.75 1026.29 889.3 1026.29 889.29 1026.29"/>
        <polygon class="cls-15" points="889.29 1026.29 889.3 1026.29 1048.75 1026.29 969.02 886.77 889.3 747.25 889.29 747.24 819.54 869.33 809.57 886.77 729.85 1026.29 729.86 1026.29 889.29 1026.29"/>
        <polygon class="cls-5" points="889.29 747.24 889.3 747.24 809.58 607.73 729.85 468.21 667.85 576.72 650.13 607.73 570.4 747.24 729.85 747.24 889.29 747.24"/>
        <polygon class="cls-14" points="1208.2 747.24 1287.92 607.73 1367.65 468.21 1367.65 468.21 1208.2 468.21 1048.75 468.21 1128.48 607.73 1208.2 747.24"/>
        <polygon class="cls-5" points="-67.42 1026.26 -226.86 1026.26 -147.14 1165.77 -67.41 1305.28 -67.41 1305.29 2.35 1183.21 12.31 1165.77 92.03 1026.26 92.03 1026.26 -67.41 1026.26 -67.42 1026.26"/>
        <polygon class="cls-5" points="-67.42 747.21 -147.14 886.74 -226.86 1026.24 -226.87 1026.26 -226.86 1026.26 -67.42 1026.26 -67.41 1026.26 92.03 1026.26 12.31 886.74 -67.42 747.21"/>
        <polygon class="cls-13" points="-67.41 747.21 -67.41 747.21 2.35 625.14 12.31 607.7 92.03 468.18 -67.41 468.18 -226.86 468.18 -147.14 607.7 -67.41 747.21"/>
        <polygon class="cls-13" points="-67.43 189.16 -123.23 286.81 -147.14 328.67 -226.87 468.19 -67.43 468.19 92.02 468.19 92.03 468.19 12.3 328.67 -67.43 189.16"/>
        <polygon class="cls-15" points="36.2 7.81 92 -89.85 92.01 -89.86 92 -89.86 -67.44 -89.86 -67.45 -89.86 -226.89 -89.86 -147.17 49.65 -67.44 189.18 12.29 49.65 36.2 7.81"/>
        <polygon class="cls-5" points="1897.62 1216.52 1846.88 1305.31 2006.32 1305.31 2165.77 1305.31 2086.05 1165.79 2006.32 1026.28 1926.6 1165.79 1897.62 1216.52"/>
        <polygon class="cls-14" points="1926.6 886.75 2006.32 1026.27 2086.05 886.76 2165.77 747.24 2006.32 747.24 1846.88 747.24 1846.88 747.24 1846.88 747.24 1926.6 886.75"/>
        <polygon class="cls-13" points="1897.62 658.46 1846.88 747.24 2006.32 747.24 2165.77 747.24 2086.05 607.72 2006.32 468.2 1926.6 607.72 1897.62 658.46"/>
        <polygon class="cls-13" points="1925.62 49.65 2005.34 -89.86 2085.07 49.64 2164.79 189.17 2005.34 189.17 1845.9 189.17 1845.9 189.17 1845.9 189.17 1925.62 49.65"/>
        <polygon class="cls-13" points="1896.63 277.94 1845.9 189.17 2005.34 189.17 2164.79 189.17 2085.07 328.68 2005.34 468.2 1925.62 328.68 1896.63 277.94"/>
      </g>
    </g>
    <g id="Text">
      <text class="cls-18" transform="translate(456.24 341.51)"><tspan class="cls-19"><tspan class="cls-20">W</tspan><tspan x="36.13" y="0">e p</tspan><tspan class="cls-21" x="88.22" y="0">r</tspan><tspan x="102.18" y="0">o</tspan><tspan class="cls-22" x="123.49" y="0">m</tspan><tspan x="157.18" y="0">o</tspan><tspan class="cls-23" x="178.49" y="0">t</tspan><tspan x="192.29" y="0">e </tspan><tspan class="cls-24" x="222.14" y="0">f</tspan><tspan class="cls-21" x="237.69" y="0">r</tspan><tspan x="251.65" y="0">eedom. </tspan></tspan><tspan class="cls-25"><tspan class="cls-26" x="0" y="38.4">F</tspan><tspan class="cls-27" x="19.94" y="38.4">r</tspan><tspan x="32.35" y="38.4">eedom of association, </tspan><tspan class="cls-24" x="0" y="76.8">f</tspan><tspan class="cls-27" x="13.41" y="76.8">r</tspan><tspan x="25.82" y="76.8">eedom of assembl</tspan><tspan class="cls-28" x="321.63" y="76.8">y</tspan><tspan x="337.88" y="76.8">, a</tspan><tspan class="cls-29" x="371.93" y="76.8">n</tspan><tspan x="393.66" y="76.8">d </tspan><tspan class="cls-24" x="0" y="115.2">f</tspan><tspan class="cls-27" x="13.41" y="115.2">r</tspan><tspan x="25.82" y="115.2">eedom of </tspan><tspan class="cls-30" x="187.87" y="115.2">e</tspan><tspan x="206.72" y="115.2">xp</tspan><tspan class="cls-27" x="245.5" y="115.2">r</tspan><tspan x="257.92" y="115.2">ession. </tspan><tspan x="0" y="153.6">Our </tspan><tspan class="cls-30" x="69.6" y="153.6">w</tspan><tspan x="97.25" y="153.6">o</tspan><tspan class="cls-31" x="117.31" y="153.6">r</tspan><tspan x="129.89" y="153.6">k suppo</tspan><tspan class="cls-32" x="258.14" y="153.6">r</tspan><tspan x="271.45" y="153.6">ts civil </tspan><tspan x="0" y="192">socie</tspan><tspan class="cls-26" x="81.66" y="192">t</tspan><tspan class="cls-28" x="94.33" y="192">y</tspan><tspan x="110.59" y="192">, civic </tspan><tspan class="cls-33" x="204.73" y="192">p</tspan><tspan x="226.33" y="192">a</tspan><tspan class="cls-32" x="245.21" y="192">r</tspan><tspan x="258.52" y="192">tici</tspan><tspan class="cls-33" x="306.75" y="192">p</tspan><tspan x="328.35" y="192">ation, </tspan><tspan x="0" y="230.4">a</tspan><tspan class="cls-29" x="18.88" y="230.4">n</tspan><tspan x="40.61" y="230.4">d philanth</tspan><tspan class="cls-27" x="206.46" y="230.4">r</tspan><tspan x="218.88" y="230.4">o</tspan><tspan class="cls-30" x="238.94" y="230.4">p</tspan><tspan x="260.16" y="230.4">y in </tspan><tspan class="cls-34" x="324.54" y="230.4">c</tspan><tspan x="342.27" y="230.4">ount</tspan><tspan class="cls-31" x="418.52" y="230.4">r</tspan><tspan x="431.1" y="230.4">ies </tspan><tspan x="0" y="268.8">a</tspan><tspan class="cls-27" x="18.88" y="268.8">r</tspan><tspan x="31.3" y="268.8">ou</tspan><tspan class="cls-29" x="72.9" y="268.8">n</tspan><tspan x="94.62" y="268.8">d t</tspan><tspan class="cls-29" x="137.69" y="268.8">h</tspan><tspan x="159.42" y="268.8">e </tspan><tspan class="cls-30" x="187.13" y="268.8">w</tspan><tspan x="214.78" y="268.8">o</tspan><tspan class="cls-31" x="234.85" y="268.8">r</tspan><tspan x="247.42" y="268.8">ld.</tspan></tspan></text>
      <g class="cls-35">
        <image width="3360" height="5240" transform="translate(159.13 7.29) scale(0.5)" xlink:href="../../screencapture-staging-icnl-org-2018-10-07-18_01_47.png"/>
      </g>
      <text class="cls-36" transform="translate(1059.61 579.13)">69</text>
      <text class="cls-37" transform="translate(1057.51 618.31)"><tspan class="cls-38">C</tspan><tspan class="cls-39" x="13.14" y="0">SO Sustainabili</tspan><tspan x="152.96" y="0">t</tspan><tspan class="cls-39" x="160.41" y="0">y </tspan><tspan class="cls-39"><tspan x="0" y="19">I</tspan><tspan class="cls-40" x="5.76" y="19">n</tspan><tspan x="18.25" y="19">d</tspan><tspan class="cls-41" x="30.71" y="19">e</tspan><tspan class="cls-42" x="41.63" y="19">x </tspan><tspan class="cls-43" x="56.77" y="19">r</tspan><tspan x="64.12" y="19">epo</tspan><tspan class="cls-44" x="99.38" y="19">r</tspan><tspan class="cls-42" x="107.21" y="19">ts </tspan></tspan><tspan class="cls-42"><tspan x="0" y="38">p</tspan><tspan class="cls-43" x="12.46" y="38">r</tspan><tspan x="19.8" y="38">odu</tspan><tspan class="cls-45" x="56.23" y="38">c</tspan><tspan class="cls-39" x="66.55" y="38">ed</tspan></tspan></text>
      <text class="cls-46" transform="translate(1368.73 577.76)">9</text>
      <text class="cls-47" transform="translate(1366.64 616.94)"><tspan class="cls-48">C<tspan class="cls-49" x="12.8" y="0">ount</tspan><tspan class="cls-50" x="56.84" y="0">r</tspan><tspan class="cls-42" x="64.28" y="0">ies </tspan><tspan class="cls-45" x="94.9" y="0">c</tspan><tspan class="cls-51" x="105.21" y="0">ov</tspan><tspan class="cls-39" x="126.52" y="0">e</tspan><tspan class="cls-52" x="137.72" y="0">r</tspan><tspan class="cls-39" x="145.06" y="0">ed </tspan></tspan><tspan class="cls-39"><tspan x="0" y="19">in our Philanth</tspan><tspan class="cls-52" x="138.69" y="19">r</tspan><tspan class="cls-42" x="146.03" y="19">o</tspan><tspan class="cls-41" x="157.64" y="19">p</tspan><tspan x="169.83" y="19">y </tspan></tspan><tspan class="cls-53" x="0" y="38">L</tspan><tspan x="10.93" y="38">a</tspan><tspan class="cls-42" x="21.69" y="38">w Repo</tspan><tspan class="cls-44" x="91.6" y="38">r</tspan><tspan class="cls-42" x="99.43" y="38">ts se</tspan><tspan class="cls-50" x="141.68" y="38">r</tspan><tspan class="cls-39" x="149.11" y="38">ies</tspan></text>
      <text class="cls-36" transform="translate(1367.68 317.77)">3,9<tspan class="cls-54" x="89.46" y="0">4</tspan><tspan x="128.28" y="0">7</tspan></text>
      <text class="cls-55" transform="translate(1367.62 356.95)">Docu<tspan class="cls-53" x="49.48" y="0">m</tspan><tspan class="cls-39" x="68.74" y="0">ents in our </tspan><tspan x="0" y="19">onli</tspan><tspan class="cls-53" x="34.45" y="19">n</tspan><tspan x="46.94" y="19">e lib</tspan><tspan class="cls-45" x="86.02" y="19">r</tspan><tspan x="93.44" y="19">a</tspan><tspan class="cls-44" x="104.38" y="19">r</tspan><tspan class="cls-56" x="112.21" y="19">y</tspan><tspan class="cls-39" x="121.86" y="19">, </tspan><tspan class="cls-57" x="131.15" y="19">f</tspan><tspan class="cls-43" x="139.12" y="19">r</tspan><tspan x="146.46" y="19">om </tspan><tspan class="cls-41"><tspan x="0" y="38">ov</tspan><tspan class="cls-42" x="21.31" y="38">er </tspan><tspan class="cls-58" x="45.09" y="38">2</tspan><tspan class="cls-42" x="55.55" y="38">00 </tspan><tspan class="cls-59" x="84.94" y="38">c</tspan><tspan class="cls-42" x="95.26" y="38">ount</tspan><tspan class="cls-60" x="139.3" y="38">r</tspan><tspan class="cls-42" x="146.73" y="38">ies</tspan></tspan></text>
      <text class="cls-61" transform="translate(1058.56 317.77)">64</text>
      <text class="cls-62" transform="translate(1058.56 356.94)"><tspan class="cls-39">Bills anal</tspan><tspan x="83.16" y="0">y</tspan><tspan class="cls-45" x="93.22" y="0">z</tspan><tspan class="cls-39" x="102.63" y="0">ed in</tspan><tspan class="cls-42"><tspan x="0" y="19">our US </tspan><tspan class="cls-63" x="67.35" y="19">P</tspan><tspan class="cls-52" x="80.19" y="19">r</tspan><tspan x="87.53" y="19">o</tspan><tspan class="cls-64" x="99.14" y="19">t</tspan><tspan x="106.45" y="19">est</tspan></tspan><tspan class="cls-53" x="0" y="38">L</tspan><tspan x="10.93" y="38">a</tspan><tspan class="cls-42" x="21.69" y="38">w </tspan><tspan class="cls-65" x="43.07" y="38">T</tspan><tspan class="cls-45" x="53.59" y="38">r</tspan><tspan class="cls-53" x="61" y="38">a</tspan><tspan class="cls-50" x="72" y="38">c</tspan><tspan class="cls-66" x="82.33" y="38">k</tspan><tspan class="cls-39" x="93.2" y="38">er</tspan></text>
    </g>
  </g>
</svg>
